<svg version="1.2" xmlns="http://www.w3.org/2000/svg" viewBox="0 0 240 271" width="469" height="530">
	<title>avatar-svg</title>
	<style>
		.s0 { fill: #f5f3f4 } 
		.s1 { fill: #340621 } 
		.s2 { fill: #e12d1a } 
		.s3 { fill: #ddd5da } 
		.s4 { fill: #ac99a4 } 
		.s5 { fill: #e9e4e7 } 
		.s6 { fill: #e6e1e4 } 
		.s7 { fill: #3d0f28 } 
		.s8 { fill: #f8f7f7 } 
		.s9 { fill: #cec3c9 } 
		.s10 { fill: #f8b995 } 
		.s11 { fill: #8ac7d2 } 
		.s12 { fill: #feebdf } 
		.s13 { fill: #bd2e1d } 
		.s14 { fill: #a6929d } 
		.s15 { fill: #88151b } 
		.s16 { fill: #e52b1a } 
		.s17 { fill: #d3c9cf } 
		.s18 { fill: #b01e1a } 
		.s19 { fill: #e45224 } 
		.s20 { fill: #f9d4bf } 
		.s21 { fill: #eb9d73 } 
		.s22 { fill: #bfb1ba } 
		.s23 { fill: #f3762f } 
		.s24 { fill: #e6431f } 
		.s25 { fill: #6e4d60 } 
		.s26 { fill: #4f273f } 
		.s27 { fill: #f7852a } 
		.s28 { fill: #ffcc79 } 
		.s29 { fill: #5591a3 } 
		.s30 { fill: #6cecf9 } 
		.s31 { fill: #4f071c } 
		.s32 { fill: #fadbc9 } 
		.s33 { fill: #000000 } 
		.s34 { fill: #ffb033 } 
		.s35 { fill: #ffe6be } 
		.s36 { fill: #f6c985 } 
		.s37 { fill: #f9e9d0 } 
	</style>
	<path id="Layer" class="s0" d="m38.5 137c6.3-0.5 11.6 1.2 17 4.2 1.4-5.2-0.3-10.3 1.3-15.2 1.4-4.1 2.9-7.8 6.3-10.7 1.1-0.9 2.9-1.8 0.9-3.9-3.4-3.4-7.2-6.3-9.7-10.5-0.9-1.5-2.4-0.7-3.7-0.9-2.9-0.3-5.8 0.3-8.8-0.6-6.7-2-8-7.5-8.8-13.2-0.8-6.5-1.3-13.1-1-19.7 0.2-5.9 4.7-10.4 10.6-10.5 7.3-0.1 7.1-0.2 8.4-6.9 5.2-27.5 15.6-37.1 42-44.1 12.8-3.4 25.8-4.1 38.7-2.8 21.8 2.1 41.9 9.1 58 25 5.9 5.9 9.1 13.2 9.3 21.7 0.1 2.7 0.7 5 3.2 7 1.8 1.5 3 4 3.1 6.8 0.6 8.9 3.2 17.9-3.9 25.6-1 1.1-1.6 2.8-1.4 4.6 0.3 4.8-1.1 9.4-3.2 13.5-2 4.1-1.8 6.4 3 7.1-0.4-10 4.5-13.6 9.4-15.2 5.4-1.7 12.2 2.4 12.7 8 0.2 2.3 1.4 3.2 3 3.6 3.2 0.8 5.7 2.9 6.1 5.7 0.6 5 4.2 7.2 7.3 10.1 4.6 4.4 4.7 13.5-3.9 16.3-1.9 0.7-3.3 0.7-2.7 4.1 0.9 4.7-4 9.4-8.8 8.8-8.7-1.1-13.2 4.4-17.8 10-2.9 3.4-5.6 6.9-9.5 9.2-5.2 2.9-10.2 1.6-13.6-3.3-1.8-2.5-3-5.9-7.2-3.8-0.6 0.2-1.5 0.3-2-0.1-6.1-4.3-9-1.3-10.7 4.6-1.3 4.6-4.9 7.7-7.5 11.4-0.6 0.9-2.4 1.6-1.2 2.7 2.6 2.6 4 5.5 3.7 9.2-0.1 1.9 1.7 1 2.7 1.2 5.5 0.9 6.9 2.7 7.3 8.3q0.7 10.3 2 20.5c0.5 3.7 2.6 7 6.3 7.9 6.3 1.4 9.4 6.6 13.2 10.7 3.3 3.4 2.2 9.2-1.4 13.9-8.6 11.3-20.4 13.9-33.7 12.7-0.3 0-0.8 0.1-0.9-0.1-5.5-7.9-15.2-11.5-19.1-21.7-2.7-6.9-3.5-13.4-3.5-20.3 0-1.4-0.8-2.1-1.5-2.9-4.1-4.6-4.8-9.5-2.1-14.9 0.5-1 1.4-1.9 1.5-3 0.1-1.4 1.2-2.8-2.5-2.6-8 0.5-9.7 6-12 11.6-1.3 3 0.7 5.7 1.1 8.5 0.4 2.8 0.1 5.3-0.3 8.1-1.4 11.2-9.5 18.7-15 27.6-1.6 2.5-4.3 3.9-7.6 3.8-8-0.3-16.1 0.9-23.5-3.4-4.7-2.8-9.2-6-11.5-10.9-2.3-4.6 0.6-9.2 3.2-13 2-2.7 4.4-5.4 7.8-6.7 4.4-1.6 6.4-5.7 6.1-9.3-0.6-6.9 0.2-14-1.1-20.7-0.7-3.9 0.4-5.7 2.7-8 0.9-0.9 1.9-1 3.1-1.2 1.6-0.2 3.7-0.4 3.6-2.9-0.1-2.1 0.4-4.1-2.5-5.2-6.7-2.7-10.6-7.4-9.5-15.1 0.2-1.4 0-2.8-1.3-3.4-1.7-0.8-2.4 0.9-3.2 1.8-2.4 2.6-5 5.3-7.1 8.1-1.3 1.9-1.7 3.6 0.1 6.1 4.4 6.1 2.8 11.1-4 14.8-1.4 0.8-1.8 1.8-1.6 3.5 0.7 4.9-0.2 9.4-5.4 11.5-4.8 1.9-9.4 1.7-12.8-2.9-1.3-1.7-2.4-0.2-3.4 0.1-4 1.3-7.6 1.6-10.7-2-0.8-1-1.4-2.2-3.8-1.8-8.6 1.7-11.2 0-14.5-8.9-1.6-4.2 2.7-10.5 8.4-12.5 1-0.4 2.3-0.2 2.9-1.4-7.8-4.8-9-13-2.7-19.1 1.6-1.7 3.6-3 6-2.6 4.1 0.7 6.3-1.2 8.1-4.7 2.7-4.9 6.1-9.4 8.9-14.3 1.1-1.8 2.7-2.1 4.6-3z"/>
	<path id="Layer" class="s1" d="m200.8 118.2c1.2-2.4 2.3-4.3 1.8-7.1-1-5.5 3.2-10.4 8.4-10.8 4.9-0.4 8.6 3.3 8.7 9.2 0.1 2.3 0.7 2.5 2.7 2.6 5 0.4 7.4 3.1 6.5 7.9-0.5 3.4 0.5 4.4 3.8 4.6 0.5 0.5 0.6 0.7 0.6 1.3-0.9 1.1-1.8 1.5-3 2.2-3.4 2.7-6.1 5.7-10.1 6.8-1.5 0.4-3 1.3-4.3 0.1-1.3-1.3-1.2-3.1-0.7-4.7 0.5-2 1.4-3.7 3.1-5.5 1.5-1 3.1-1 4.4-1.8 2.5-1.7 2.3-4.3-0.8-6.3-4.3 2.1-5.5 6.4-8 9.6-1 1.3-0.6 4.3-3.2 3.6-2.5-0.7-3.5-3-3.4-5.5 0.1-0.7 0.3-1.3 0.7-2.2 3.1-3.3 5.7-6.4 7-10.4 0.7-2.3 1.3-4.8-1.3-6.1-2.3-1.2-4.8-1.3-6.4 1.9 0.2 7.1-1.8 13.3-5.1 19.4-3.2-0.3-3.9-3-5.3-4.9-3.4-4.6-5.3-4.5-8.2 1.3 0.7 2.5 4.8 2.6 3.6 6.3-3.5 2.6-6.2 0.9-7.8-1.7-2.1-3.4-3.5-2.2-4.9 0-2.9 4.2-3.1 9.4-5 14-0.3 0.7 0.2 1.4 0.9 1.5 1.3 0.2 3.1 0.6 3.7-0.7 2.9-5.5 9.3-7.4 12.8-12.8 4.8-0.4 5.3 0.4 3.5 6.4-0.2 0.9-0.4 1.3-0.8 2.1-0.3 0.5-0.5 0.7-1 1-3.4 0.3-6.2 1.2-8.3 3.5-1.4 1.6-2.6 3.1-0.6 5.5 0.5 0.7 0.8 1.1 1.1 1.9 0.7 2.8 0.6 5.2 0.3 8.1-1.8 3.9 0.8 7.1 0.3 10.8-3.7 1.2-3.9-1.8-4.6-3.6-0.9-2.4-1.9-3-4.4-2.4-3.6 0.9-7.3 0.2-10.6-1.7-1.9-1-2.8-1-3.6 1.2-2.8 7.5-6.9 14.3-12.2 20.4-1.7 1.9-1.7 3.4 0.4 5 2.3 1.8 3.5 4.3 2.3 7-1.2 2.6 0 3.1 2 3.4 1 0.1 2 0.4 3 0.4 4.4-0.2 6.3 1.5 6.4 6.3 0.2 7 1 14 2.2 20.9 0.7 4.3 2.8 8.2 7.8 9.5 2.8 0.7 5.2 2.1 7.5 4.4-0.2 0.6-0.5 1.2-1.1 1.8-0.6 0.4-1 0.4-1.6 0.2-0.6-0.3-1-0.5-1.6-0.8-0.4-0.2-0.6-0.3-1.1-0.4-1.3-0.4-2.2-0.8-3.5-1.1-1.8-0.6-3.4-0.5-5-1.7-0.3-0.4-0.4-0.5-0.7-1-0.6-1.7-1.9-1.9-3.4-2.3-0.5-0.2-0.6-0.3-1.1-0.7-0.4-0.8-0.5-1.2-0.6-2.1 0.4-2.7 0.8-5.2 0-7.9-0.4-4.6-1.3-8.8-1.5-13-0.1-1.8-0.7-3.6-2.4-5.1-2.1-2.9-4.7-3.7-8.1-3.6-1.7 0-3 0-4.5-0.7-1.7-1.7-0.8-3 0.4-4.5 0.1-1.2 3.3-1.2 0.6-2.6-0.6 0.4-1 0.6-1.5 1.1-0.3 0.4-0.4 0.6-0.8 1-2 1.8-4.1 3.1-6.7 3.9-1.3 0.3-2.3 0.2-3.5 0.3-0.2 0-0.4 0.3-0.4 0.5 1 0.7 2 0.6 3.2 0.8 0.6 0.1 0.8 0.2 1.2 0.5 1.3 2.9-1.1 3.4-2.7 4.8-1.1 1.7 0.4 3.1-0.4 4.8-0.4 0.4-0.6 0.6-1.1 0.8-3.6 1.3-4 4-2.1 6 4.6 4.7 3.6 10.3 3.7 16.1 0 5.8 3.7 9.7 5.7 14.7 0.9 1.1 1.4 2.2 2.4 3.2 1.4 1.4 2.8 2.2 4.3 3.5 1.7 2.3 3.6 3.9 4.2 6.8-0.5 2.4-1.7 2.1-2.9 1-4.2-4-9.9-7.4-12-12.4-2.1-5.1-6.6-9.7-5.7-16.2 0.6-5.2 1.1-10.8-4.1-15-2.1-1.7-2.5-5.4-0.5-7.8 3.5-4 3.9-8.1 1.7-12.9-4.5 2.4-9.2 3.9-14.7 2.6-0.6-0.1-0.8-0.1-1 0.2 1.1 4.4 0.6 8.2-2.9 11.5-0.5 0.3-0.8 0.4-1.2 0.2-0.7-1.8-1-3.3-0.3-4.7 1.8-3.5 0.2-5.5-3.2-7.1-0.4-0.4-0.6-0.6-0.9-1.1-0.6-1.2-0.4-2.4-1.7-3.2-1.2-0.2-2-0.4-3.2-0.6-1.6-0.7-3-1.3-4.9-1.2-1.3-0.3-2.2-1-3.6-1.2-0.9 0-1.5 0.1-2.4 0.2-0.5 0.1-0.7 0.1-1.2 0.1-1.3 0-2.2 0.2-3.4 0.7-1 0.6-1.6 1.1-2.3 2-0.3 0.5-0.4 0.7-0.7 1.2-4.3 7.3-2.1 14.9-2.1 22.6 0.3 1.1 0.4 1.9 0.5 3 0 1.1-0.1 1.8-0.4 2.9-0.2 0.5-0.3 0.7-0.7 1.1-1.1 0.9-1.9 1.5-2.3 2.9-0.3 0.5-0.4 0.7-0.8 1.1-1.4 1.4-3 1.8-4.7 2.6-2.9 1.2-4.8 3-6.3 5.3-2.1 3.3-2.7 6.4 0.5 9.4 1.1 1.1 2.3 2.4 2 4.7-0.3 0.5-0.4 0.7-0.9 1-1.1-0.4-1.8-0.9-2.6-1.8-0.7-1.5-1.4-2.5-2.9-3.3-4.6-4-1.9-7.7-0.2-11.4 1.5-3.1 3.7-5.7 6.9-7 6.9-2.8 8.3-8.3 7.9-15-0.4-6.3-0.5-12.6-1-18.9-0.3-3.1 0.5-4.5 3.6-5.1 2.4-0.4 4.8-1.4 7.4-2.2-1.1-2.5-2.5-4.8-1.8-7.6 0.7-2.8-2-2.6-3.4-3.2-5.7-2.6-9.1-6.5-8.8-13.1 0.2-2.6 0.5-5.9-2.5-6.9-3.3-1.1-4.5 2.3-6.5 4.7-0.6 0.1-0.8 0-1.3-0.5-0.8-1.7-0.9-3.1-0.8-4.9 0-0.7 0.1-0.9 0.2-1.6 0.4-0.9 0.7-1.3 1.5-1.8 2.6 0 4.8-0.7 7.4-0.9 0.9 0.1 1.4 0.3 2.2 0.7 2.7 2.6 3.5 5.7 3.4 8.9-0.3 6.4 2.9 10.2 8.8 12.1 2.4 0.7 4.8 1.4 6.8 3.5 0.2 0.6 0.2 0.9-0.1 1.4-3.3 2.7-2.6 5 0.1 7.1 3.3 2.5 7.2 3.3 11.2 3.1 4.3-0.3 5.3-2.8 2.8-7 0.2-0.8 0.6-1.2 1.5-1.6 9.9 0.4 19.4 0.6 29.3 0.9 0.6 0.4 0.8 0.5 1.3 1.1 0.1 1.3-0.6 1.7-1.8 2.1-1.8 0.3-3.4 0.4-3 2.6 0.4 2.4 1.3 4.4 4.6 4.4 0.5-0.2 0.7-0.3 1.2-0.5 0.5-0.2 0.7-0.3 1.2-0.6 5.5-2.8 6.4-4.8 3.8-8.4-0.3-0.5-0.4-0.7-0.4-1.2 1.6-2.2 4.5-2.1 6.1-4.5 1.2-1.5 2.1-2.9 3.1-4.6 0.3-0.7 0.5-1 0.8-1.7 0.2-0.7 0.4-1.1 0.7-1.8 1-1.6 1.9-2.9 2.7-4.6 1.4-5.6 2.8-10.9 5.2-16.2 1.6-1.1 3-1.6 4.7-2 1.4 1.5 1.3 3.1 1.4 4.9-0.1 4.2 2.8 5 5.6 5.5 3 0.6 6.1 0.4 8.1-2.4 2.3-3.3-0.6-4.7-2.9-6.5-3.8-1.7-7.3-0.7-11.1-0.8-1.3-1.4-2.5-0.7-4-0.7-0.5-0.6-0.7-1-0.8-1.9 0.5-3.4 0.5-6.6 1-9.7 0.3-2.1-0.3-4.4-2.8-4.5-3.1-0.1-2.1 2.3-1.8 4 0.2 1.4 0.2 2.7-1.3 3.9-1.6 0.7-2.9 0.8-4.2 0.7-11.6-0.6-23.1 1.6-34.6 1-1.9-0.1-3.6 0.7-5.8 0.8-0.7 0-1 0-1.7-0.1-0.9-0.3-1.4-0.5-2.2-0.9-0.5-0.3-0.7-0.4-1.1-0.8-1.1-1.2-1.8-2.4-3-3.5-0.8-0.8-1.3-1.4-2.2-2-0.7-0.5-1.3-0.8-2.2-1.1-2-0.6-3.6-1.2-5.7-1.9-2.1-1.1-3.9-2-4.9-4.3 0.3-0.9 0.7-1.2 1.7-1.5 10.1 3.2 20.1 4.9 30.3 4.2 7.6-0.5 15.2-0.7 23.2-1.3 1.5-0.3 2.6-0.4 4.1-0.5 1.1 0 1.9 0 3 0 1.4 0 2.4 0 3.6-0.5 0.6-0.1 0.9-0.2 1.5-0.3 3.7 0.3 6.6-1.7 10.3-1.7 0.8 0.2 1.2 0.5 1.8 1.2 0.5 5.3-1 10-2.1 14.8 2.7-4.8 5.6-9.4 5.5-15.6 0.1-0.8 0.2-1.3 0.4-2.1 0.9-1.8 2.3-2.8 4-3.9 1.9-0.9 3.2-2 4.6-3.4 0.6-0.6 0.8-0.9 1.3-1.4 0.6-0.7 1-1.2 1.4-2 0.4-0.6 0.7-1 1.1-1.6 3.2-4.3 4.8-8.9 6.1-14 0.1-1 0.2-1.6 0.4-2.6 0.4-1.4 0.7-2.5 0.7-3.9 0.1-0.8 0.1-1.2 0.3-2 0.3-0.4 0.4-0.6 0.6-1.1 1.8-2.4-1.2-1-1.3-2.3-1.2-2.9-0.6-5.5-0.3-8.1 0.7-8.7 0.7-17.4-0.4-26.5-0.1-1.9 0.6-3.5 0.3-5.4-0.1-4.2-2-7.3-3.7-10.6-0.9-1.9-2.3-3.6-1.9-6.3 0.2-0.6 0.4-0.8 0.9-1.1 5.5 5.1 8.4 11.3 9 18.6 0.2 3.8 0 7.9 4.5 10 0.9 0.4 1.5 1.8 1.8 2.9 1.9 7.9 3.6 15.9-1.7 23.6-3.7-3.6-0.6-7.8-1.3-12.1 0-2.7 0.1-5-0.3-7.5-0.3-0.6 0-1.3-0.7-1.2-0.7 0.1 0.3-0.1-0.1 0.8 0.1 2.2 0.2 4.2 0.1 6.6 0.7 4.5-1.3 9 1.6 13.3-1.6 2-2.1 4.2-2.3 6.8-0.8 8.1-3.5 15.7-7.8 22.8 3.2 0.6 6.8 0.2 8.9 3.8 0.5 0.9 1.1 1.1 1.9 0.6z"/>
	<path id="Layer" class="s1" d="m35.7 204.1c-0.9-2.2-1.9-1.5-3.4-0.6-5.8 3.7-7.8 3.3-11.5-2.7-1.1-1.8-1.7-1-3-0.5-5.6 2.6-9.9 1.2-12.1-3.6-2.2-4.8 0.3-10.3 5.6-12.5 3.9-1.6 3.9-1.6 6.2-5.9-3.6 0.2-6.2-1.3-7.2-4.5-1-2.9-0.6-5.9 1.1-8.6 1.9-3 4.7-4.7 8-3.2 3 1.4 3.8 0 5.1-2.2 3.6-6.1 7.5-12 11.6-18.3 0.5-0.2 0.7-0.1 1.1 0.3 1.5 2.9 0.1 5-1.2 7-2.1 3.2-4.1 6.4-6 9.6-1.3 2.3 0 2.5 2.2 2.3 3.4-0.2 6.3 0.7 9.6 1.1 1.1 0.2 1.8 0.4 2.8 0.7 0.9 0 1.3 0.1 2.2 0.2 1 0 1.7 0.2 2.7 0.4 1.8 0.8 2.8 2.1 4.5 2.9 3.2 0.9 4.3-2.3 6.9-2.7 0.6 0.4 0.9 0.8 1.3 1.8-1.8 4.7-7.7 6.1-7.8 11.7 0 1.3-0.9 2.4 0.6 3.6 3 2.2 4 5.3 2.6 8.7-1.5 3.6-4.4 5.3-9.1 4.7 2.8 4.6 4.2 9.1-0.1 12.7-3.4 3-7.3 2.7-11.4-0.3 0.7-1.5 2.3-1.2 3.7-1.3 5.4-0.6 6.7-3.1 4.1-8.4-1.4-2.5-1.3-4.9-1-7.7 0.4-1.4 0.9-2.3 2.3-3 1.5 0 1.8 1 2.6 2.1 1.1 1.4 2.3 1.8 3.9 1 1.8-3 0.9-4.9-2.5-5.8-0.5-0.3-0.7-0.4-1.2-0.8-0.5-0.6-0.6-1.1-0.6-1.9 0.8-2.2 2-3.9 2-6 0.1-1.6-0.5-2.9-1.9-3.8-1.4-0.9-2.5-0.3-3.3 1.4-0.3 0.5-0.4 0.7-0.8 1.1-0.5 0.4-0.8 0.4-1.3 0.5-0.6-0.1-0.8-0.2-1.3-0.5-1.9-4.4-4.9-6.8-9.9-6.5-5 5.8-9.7 1.8-14.6 0-0.6 0-0.8 0-1.3 0.2-2.5 5-2.1 6.1 2.9 6.9 1.8 0.2 3.2 0.8 5 1.3 0.8 0.3 1.2 0.7 1.7 1.4 0.6 2.3-0.4 3.5-2 4.4-4.6 2.6-8.1 6.7-13 9.4-1.6 2.6-1.3 4.8 0.9 6.4 2.4 1.7 4.3 0 6.1-1.5 3.1-2.7 5-6.1 6.2-10.3 0.3-0.5 0.4-0.7 0.8-1.2 0.6-0.7 1-1 1.8-1.4 2.8-0.6 5.1-0.3 7 2 0.2 0.6 0.2 0.8 0.1 1.4-4.6 3-6.5 7.6-8.9 12.3 0 2.2 0.6 3.7 2.9 3.3 2.1-0.5 3.6-1.7 3.9-4 0.2-1.7-0.5-3.3-0.2-5.3 0.1-0.6 0.2-0.9 0.5-1.5 1.8-2.6 3.6-5.7 6.7-4.6 3.1 1 2 4.5 2.2 7.1 0.2 3.1-0.8 5.9-2.4 8.9-0.6 1.2-1.2 1.7-2.4 2.3z"/>
	<path id="Layer" class="s1" d="m49.4 97.6c-9 0.6-12.4-1.9-13.5-10.3q-1.2-8.6-1.8-17.4c-0.5-8.8 4.2-13.1 12.8-11.6 4.6 0.8 6 1.5 6.5-5.1 1.1-13.9 5-27.6 17.8-36.8 0.6-0.1 0.8 0 1.2 0.5 0.9 2.7-0.7 4-2.2 5.4-2.5 2.2-4.9 4.5-6 8.2-0.4 0.9-0.8 1.6-1.3 2.5-0.7 1.5-1.4 2.7-1.9 4.3-1 3.2-1.8 6.1-2.7 8.9-1 3.1-0.5 5.6 1.9 8.1-1.7 2.5-3.5 4.6-2.6 8.1-0.1 1-0.2 1.7-0.4 2.8-0.4 1-0.7 1.6-1.7 2-2.8-1.5-4.1-4.8-8-4.7-1.8-0.1-2.1 0.7-2.2 2-0.1 1.3-0.5 2.5-2.4 2.7-1.6-0.4-2.2-2.4-3.6-1.7-1.4 0.7-0.9 2.4-0.9 3.7-0.1 2-0.1 4 0 6.3 0 1.3 0.1 2.2 0.5 3.5 0.4 1.5 0.4 2.8 0.5 4.4 0.2 7.1 1.7 9.1 7.7 10.2 2.6 0 4.9-0.1 7.5 0 0.6 0.1 0.9 0.1 1.5 0.3 1.5 0.4 2.7 0.7 4.2 1.2 0.5 0.3 0.7 0.5 1.1 0.9 0.4 3 1.8 5.1 3.6 7 1.3 1.3 2.7 2.8 3 5.2-0.1 0.8-0.3 1.2-0.7 1.9-4.4-3.8-8.5-8-13-12.2-1.7-0.6-3.2-0.3-4.9-0.3z"/>
	<path id="Layer" class="s1" d="m71.7 16.9c14.5-9.7 30.8-12.9 47.8-13 23.7-0.3 45.2 6.2 64.1 21.3 0.2 0.5 0.2 0.7-0.1 1.2-4.8 1.6-7.1-2.7-11-4-0.5-0.2-0.7-0.3-1.1-0.5-0.7-0.4-1-0.6-1.6-1-0.5-0.4-0.9-0.6-1.5-1-0.4-0.3-0.6-0.4-1-0.6-0.7-0.4-1-0.6-1.7-1-8.9-3.9-17.6-7.2-27.1-9.2-1.5-0.5-2.7-0.8-4.3-0.7-1.4 0-2.4-0.1-3.7-0.3-1.4-0.3-2.4-0.7-3.8-0.7-3.3 0-6.2 0-9.5 0-1.2 0.1-2 0.2-3.1 0.6-3.5 0.7-6.8 0-10.2 1.2-3.9 0.2-7.3 1.3-10.9 2.5-1.1 0.4-1.8 0.7-2.8 1.1-6.2 1.1-11.2 4.4-17.2 5.9-0.6-0.5-0.8-0.8-1.3-1.8z"/>
	<path id="Layer" class="s1" d="m36.6 141.8c1.1-3.8 3.9-2.8 6.2-2.6 3.9 0.4 7.6 1.5 10.6 4 1.7 1.5 3.3 1.4 5 0.6 2-1 0.7-2.7 0.6-4-0.5-5.1-1-10.2 0.8-15.2 1.5-4.1 3.8-7.5 7.5-9.6 2.3-1.3 1.7-2.3 0.2-4.1 0-0.5 0.2-0.6 0.8-0.9 4.8-0.3 7 2.5 8.8 6.3-1.1 2.2-3 2-4.8 2.1-2.2 0.3-4.5 0.4-6.1 2.8-4.5 6.8-4.6 13.7-2.3 21.2 0.6 1.2 1.2 2 1.3 3.3-2.2 2.2-5.2 2.3-7.9 4-0.5 0.3-0.7 0.4-1.2 0.6-2.9-0.1-4.5-2-6.8-3.4-3.4-2.7-7.4-2.3-11.3-3.1-0.6-0.5-0.8-0.9-1.4-2z"/>
	<path id="Layer" class="s2" d="m186.3 169.6c-0.2-3.5-4-6.4-1.8-10.6 3.1 1.7 5.3 1.1 7.6-1.3 2.3-2.5 4.6-5.1 7.8-7.2 3.1-0.3 4.9 1.5 7.2 3.1 1.2 2.7-0.5 4.2-1.7 6.2-0.2 0.3-0.2 0.4-0.2 0.4-0.7 0.4-1.4 0.4-2.4 0.9-0.7 0.4-1.2 0.7-1.9 0.9-0.6 0.8-0.8 1.7-1.5 2.9-0.2 0.4-0.3 0.2-0.2 0.2-2.1 1.8-3.1 4.7-5.9 5.7-2 0.8-4.1 0.9-6.3-0.9-0.3-0.3-0.6-0.3-0.7-0.3z"/>
	<path id="Layer" class="s1" d="m184.4 242.4c4.7 6.5 4.7 7.6 0.3 13.7-7.5 10-17.8 13.1-29.7 11.9-2.2-0.2-3.8-1.1-2.9-4 1.6-0.5 2.6-0.6 4-0.5 7.1 0.5 13.6-0.1 19.3-4.2 5.2-3.8 8.9-8.3 7.2-15.7 0.4-0.8 0.8-1.1 1.8-1.2z"/>
	<path id="Layer" class="s1" d="m105 246.7c-2.6 4.3-5.4 8.1-7.9 12.2-1.2 2-3 2.6-4.9 2.9-9.1 1.5-17.7 0.8-25.7-5.1 0.1-0.6 0.3-1 0.8-1.9 2.7-1 4.6 0.3 6.4 1.3 2.6 1.3 5.4 2 8.1 2.3 6 0.6 11.5-0.1 14.8-6.4 1.3-2.4 2.8-4.9 5.7-6.5 1.2-0.1 1.9 0.2 2.7 1.2z"/>
	<path id="Layer" class="s1" d="m235.5 127.3c4.1 1.8 3.8 5.3 2.5 8.6-1.9 4.5-5.9 5.2-10.9 4 1.4 3.2 2.7 6.1 0.8 9.1-0.7 1.1-1.6 1.6-3 0.3-0.9-2.4-0.2-4.9-3-6.1-1.6-1-2.5-2.1-1.8-4.2 0.4-0.5 0.5-0.7 1-1.2 0.4-0.4 0.6-0.5 1.2-0.9 1.5-0.7 2.8-0.9 4.1-0.8 6.8 0.1 7.2-0.3 8.3-6.7 0.1-0.6 0.3-1.3 0.8-2.1z"/>
	<path id="Layer" class="s3" d="m235.7 127c-1 2.8 1.8 6.1-1.3 8.9-3 2.7-6.2 1-9.4 1.2-0.7 0-1.5 0.6-2.6 1-1.8-2.1-0.3-3.5 1.3-4.2 2.9-1.4 4.5-3.7 6-6.8 0.9-1 1.7-0.8 2.8-0.5 1-0.3 1.7-0.3 2.7 0.2 0.3 0.1 0.4 0.2 0.5 0.2z"/>
	<path id="Layer" class="s1" d="m110.1 214.2c-0.6 2.2 0.1 4 0.6 5.7 2.9 8.7-0.2 16.7-3.4 24.9-2.4 1.3-2.8-0.2-3.2-2 0.8-3.7 1.6-7.1 2.7-10.8 1.5-5 0.2-9.6-0.6-14.5-0.3-2.1 0-3.6 2.1-4.6 0.7 0.2 1 0.5 1.8 1.3z"/>
	<path id="Layer" class="s4" d="m157.3 264.6c-1.6 0.9-2.8 0.5-4.2-0.7-0.4-0.2-0.1-0.3-0.1-0.2-1.7-1.9-3.3-3.9-5.1-6.1 0-0.6 0.1-0.8 0.5-1.2 3.5-1.7 6.2-4 9.4-6.2 2.2-0.8 2.8 0.1 2.9 1.8 0 1.5-0.3 2.9-0.8 4.8-1.9 2.4-1.1 5.3-2.6 7.8z"/>
	<path id="Layer" class="s1" d="m205.5 160.2c-2.3-2.7 1.1-3.6 1.5-5.8-0.1-0.6-0.2-0.8-0.2-1.3 1.5-1.7 3.5-1.8 5.4-3 1.4-1 2.5-2.1 4.2-2.6 2.8 0.4 5.2 1 8 1.1 3.8 4.3-1.1 4.6-2.3 4.2-8-2.6-11.7 3.2-16.6 7.4z"/>
	<path id="Layer" class="s5" d="m45.8 196.5c2.7 2.1 2.8 4.7 0.9 7.3-1.7 2.4-4.2 2.9-7.1 1.7-0.7-0.3-1.5-0.3-2.7 0-0.7-0.1-1.1-0.6-1.5-1.1 1 0 1.7-0.3 1.9-1.8 0.4-1.1 1-1.4 2.1-1.5 3.9 0.6 4.5-2.6 6.4-4.6z"/>
	<path id="Layer" class="s6" d="m224.7 148.7c-2.9 2.8-5.4 1.2-8.3-0.8-0.6-0.3-0.7-0.4-0.9-1 0.1-0.6 0.2-0.8 0.5-1.2 0.6-0.5 1.1-0.7 1.8-0.9 2.1 0.1 2.9-1.1 4-2.5 3.7 0.5 5.2 2.2 3.1 6.1-0.3 0.4-0.2 0.4-0.2 0.3z"/>
	<path id="Layer" class="s1" d="m186.3 169.9c5.9 2 8.8-2.3 12.6-4.9 0.3 2.9-2.5 6.8-5.5 7.6-2.9 0.8-5.8 1.2-7.1-2.7z"/>
	<path id="Layer" class="s7" d="m104.8 242c0.3 1.3 0 2.5 1.8 2.9-0.1 0.7-0.5 1.3-1.2 2-0.8-0.1-1.3-0.4-2.2-0.8-1-0.5-2.2-0.5-2.4-1.9 1-1.6 2.1-2.4 4-2.2z"/>
	<path id="Layer" class="s1" d="m183.5 25.7c1.5 0.8 2.6 1.9 3.9 3.2 0 0.5-0.1 0.7-0.5 1.2-2.9 0.8-4.4-0.2-4.4-3.4 0.3-0.5 0.5-0.7 1-1z"/>
	<path id="Layer" class="s1" d="m199.5 165.6c-0.9-1.5-0.2-2.2 0.9-3.3 1.1-0.8 1.8-1.1 2.6-0.6 1.1 0.8 0.4 1.4-0.2 2-0.9 0.8-1.5 2.2-3.3 1.9z"/>
	<path id="Layer" class="s7" d="m70.4 110.4c-0.6 0.4-1.1 0.4-2.4 0.3-0.8-0.1-0.9-0.2-0.9-0.3 0-0.6 0-1.2 0.1-2.3 2.1-1 3 0.1 3.2 2.3z"/>
	<path id="Layer" class="s7" d="m61 251.3c1.5-0.2 2.6 0.5 2.9 2.5-0.9-0.5-1.9-1.3-2.9-2.5z"/>
	<path id="Layer" class="s7" d="m49.5 97.6c1-1 2.5-0.8 4.2-0.1-1.1 0.2-2.5 0.2-4.2 0.1z"/>
	<path id="Layer" class="s7" d="m235.6 126.5c-0.6 1.9-1.3 1.2-2.4 0.4-0.3-0.6-0.3-0.9-0.2-1.6 1.2-0.5 1.9 0.2 2.6 1.2z"/>
	<path id="Layer" class="s7" d="m200.7 118.1c0.1 0.4 0 1.1-0.4 1.4-0.6 0.3-1.1-0.3-1.3-1.2 0.5-0.3 0.9-0.2 1.7-0.2z"/>
	<path id="Layer" class="s6" d="m181.5 243.1c0.8-0.4 1-1.2 1.4-2.3 0.1-0.4 0.1-0.4 0.1-0.4 0 0.4 0 0.8-0.1 1.4-0.1 0.5-0.2 0.6-0.5 1-0.3 0.3-0.5 0.4-0.9 0.3z"/>
	<path id="Layer" class="s7" d="m202.7 161.7c-0.1-1.6 0.5-2.2 2.1-1.8 0.4 1.9-0.4 2.5-2.1 1.8z"/>
	<path id="Layer" class="s7" d="m181.2 243c-0.2-0.5-0.3-0.8-0.2-1.3 0.9-0.1 1.6 0 2.8 0.1 0.4 0.2 0.8 0.3 0.9 0.5-0.4 0.6-0.9 1-1.6 1.8-0.5 0.3-0.7 0.3-1.2 0-0.4-0.3-0.6-0.5-0.7-1.1z"/>
	<path id="Layer" class="s1" d="m184.1 241.7c-0.5 0.3-1.2 0.2-2.3-0.1-0.2-0.6 0.1-1 0.8-1.3 0.8 0.5 1.1 0.8 1.5 1.4z"/>
	<path id="Layer" class="s8" d="m150.3 130.7c-1.3 0.3-2.3 0.4-3.7 0.4-13.5 0.7-26.5 1-39.3-2.9-8.9-2.8-15.9-7.9-19.5-16.6-6.7-16.1-8.4-33-6.7-50.3 0.3-3 1.2-5.9 2.4-9.1 0.2-0.7 0.2-0.9 0.4-1.6 0.3-0.6 0.4-0.8 1-1.7 0.7-0.8 0.9-1 1.3-1.5 1.4-1.4 2.6-2.5 4.2-3.6 10-4.9 20.5-7 31-7.9 10.1-0.8 20.4-2.5 31 0.1 2.3 1.5 4.5 2.4 6.1 4.1 1.4 1.4 2.8 3 2.2 5.2-0.7 2.4-2.7 3.3-4.9 3.8-2.5 0.6-5.4-0.2-8.1 1.8-7.6 1-14.8 0.3-22.4 0.5-2.4 0.1-4.3-0.2-6.6 0.4-1.6 0.5-2.9 0.5-4.6 0.6-1.5 0-2.7-0.1-4.2 0.4-0.9 0.4-1.6 0.6-2.6 0.8-5.7 0.3-10.5 1.9-15 5.3-0.6 0.8-1 1.4-1.3 2.3-0.3 0.8-0.4 1.3-0.6 2.1-1.6 6.2-1.1 12.1 0.1 18.4 1.3 4.5 0.4 9 1.8 13.1 1.1 3.2 2.2 6.4 6.2 7.7 0.6 0.2 0.8 0.2 1.4 0.4 2.1 0.8 3.8 1.7 6.2 1.7 2.4 0 4.3 0.8 6.7 1 1.1 0 1.9 0 3.2 0 0.7 0 0.9 0 1.6 0 6.6 0 12.8 0 19.4 0 2.7-0.1 5 0.3 7.7-0.6 2.6-0.5 4.9-0.4 7.6-0.4 2.1 0 3.7 0 5.7 0.2 2.6 0.8 4.9 1.3 6.9 2.5 2.7 1.6 4.9 3.7 4.7 7.1-0.2 3.1-2.4 4.9-5.1 6.2-3.6 1.8-7.6 2.2-10.7 3.2 6.5-0.8 12.7-4.5 19.9-6.5 0.6 0.1 0.9 0.2 1.4 0.6 0.8 2.8-1.2 3.7-2.8 4.7-4.6 3-9.2 5.8-15 7.1-0.5 0.2-0.7 0.2-1.1 0.5-0.9 0.3-1.6 0.3-2.6 0.3-1.2 0-2.1 0-3.3 0.2z"/>
	<path id="Layer" class="s9" d="m148.2 50.1c0.5-2.9 2.7-1.9 4.3-2.1 2.8-0.2 6.4 0.2 7.1-3.1 0.6-3.1-2.5-4.5-5-5.9-0.5-0.3-1-0.8-1.6-1.5 3-3.6 6.5-1.1 9.7-0.8 8.4 0.6 16.7 1.7 24.7 5.8 0.6 0.2 0.8 0.4 1.4 0.7 2.1 2.2 3.7 4.3 4 7.5 1.8 12.9 1.2 25.6 0.5 38.6 0.7-0.1 0.9-0.4 0.9-0.2-0.5 0.3-0.7 0.1-1.2 0.1 0.2 2.9-0.3 5.9-2.5 11.6-1 2.7-2 5.3-3.2 8.2-0.9 1.7-1.1 3.1-1.1 4.9-0.1 0.6-0.3 0.8-0.7 1.2-0.8 0.3-1.3 0.6-1.5 1.6-0.1 0.6-0.2 0.9-0.7 1.2-2.3 0.5-3.5 2.2-5 3.9-1.5 1.1-2.7 1.9-4.1 3-1.7 1.9-3.4 3.1-6.2 2.9-3.6 0.9-6.9 1.6-10.6 2.2 3.2-3.6 8.6-4.1 12.5-7.2 1.6-1.4 3.8-2.1 5.1-4.3 0.4-0.6 0.7-0.8 1.4-1 0.2-0.1 0.6-0.4 0.8-0.5 0.2-0.1 0.3-0.6 0.2-0.3-0.1 0.2-0.5 0.5-0.7 0.6-0.6 0.3-0.9 0.4-1.5 0.6-8.7 3.1-16.8 7.5-26.3 6.5q5.4-1.6 10.7-3.2c1.3-0.4 2.6-0.8 3.8-1.3 2.7-1.1 5.4-2.8 5.1-6-0.3-3.1-2.6-5.2-5.8-6.1-1.1-0.2-2.2-0.7-3.5-1.4-0.3-0.5-0.4-0.7-0.4-1.3 1-1 2-1.2 3.4-1.3 4.8-1 9.5-0.5 13.9-3 0.4-0.3 0.6-0.4 1-0.7 0.5-0.5 0.9-0.7 1.4-1 0.4-0.3 0.6-0.4 0.9-0.7 0.4-0.5 0.6-0.8 1-1.3 0.3-0.4 0.4-0.6 0.7-1 1-1.1 1.5-2 1.8-3.5 0.2-0.5 0.3-0.7 0.5-1.2 1.2-3.5 2.4-6.7 2.6-10.5 0.1-0.8 0.2-1.2 0.4-2 0.2-0.8 0.2-1.2 0.2-2.1 0-0.8 0-1.3 0-2.1 0-3.1 0-5.8 0-8.8 0.1-2.3-0.4-4.2-1.5-6.2-0.3-0.4-0.4-0.5-0.8-0.9-0.3-0.4-0.5-0.6-1.1-1.1-1.7-1.4-3.2-1.8-5-2.4-0.5-0.1-0.8-0.2-1.3-0.3-1.2-0.5-2.1-0.7-3.3-1-2.9-0.8-5.5-1.7-8.6-1.5-2 0-3.6 0-5.6-0.3-2.5-0.8-4.7-0.7-7.3-0.7-1.6-0.1-2.7-0.2-3.9-1.3z"/>
	<path id="Layer" class="s2" d="m149.9 179.7c-1.1 3.2-3.6 3.7-6.5 4.4-1.9 1.6-3.6 2.4-6.1 1.4-10.3 1.1-20.2 0.5-30.6-0.7-5.4 0.8-10-0.8-14.8-2.8-3.4-1.5-6.6-2.7-9.9-3.8-5.3-1.9-8.1-5.7-7.6-11.3 0.3-3.4-1.3-6-2-9.3 3.4-3.3 6.2-0.5 9.4 0.8 1.7 2.4 0.2 4.4-0.1 6.5-0.7 5.2 1.4 7.5 6.7 7.2 4.4-0.3 8.7-2.1 13.5-1.9 0.9 3.3 0.9 3.3-4.5 6 1.8-0.6 3.2-1.4 4.6-2.2 1.4-0.7 2.7-1.7 4.3-3 0.3-0.4 0.4-0.6 0.8-1.1 0.5-0.9 1-1.4 1.7-2.2 1-0.8 1.9-1.2 3.2-0.8 1.1 1.5 0.4 2.9 0.4 4.6-0.1 3-1.4 5.9 1.6 8.2 0.6 0.6 0.9 0.8 1.6 1.3 0.8 0.6 1.4 0.9 2.4 1.2 8.1 1.1 15.8-0.5 23.8-1.3 0.8-0.3 1.1-0.6 1.7-1 0.7-0.6 1.2-1 1.7-1.8 0.4-0.7 0.7-1.2 1.1-2 0.3-0.8 0.6-1.3 1-2.1 0.4-0.8 0.6-1.3 1-2.1 0.4-0.8 0.7-1.4 1-2.2 0.8-2 1.9-3.5 0.4-5.6-0.6-0.6-0.9-0.9-1.4-1.4-0.7-0.6-1-0.9-1.7-1.4-4.7-2-8.9 0.7-13.3 0.2-2.4-0.4-4.9-0.1-7.8-0.1-1.2-0.1-2-0.2-3.1-0.9-0.9-3.5 1.8-3.8 4.2-4.8 7.9-1.5 15.4-1.8 23.4-1 1.7 0.2 3 0.7 4.5 1.5 1.8 2.2 1.4 4.5 1.8 7.1 0 0.8 0 1.3 0 2.1-0.1 0.9-0.2 1.3-0.4 2.1-0.4 1-0.8 1.6-1.2 2.6-1.8 3.2-3.7 6.1-4.8 9.6z"/>
	<path id="Layer" class="s10" d="m127.1 156.7c-1.9 0.9-3.5 1.8-5.3 2.9-0.9 2.7-3.5 3.2-5 5.2-0.7 0.7-1.3 1.1-2.1 1.6-0.9 0.4-1.5 0.7-2.5 0.8-0.9 0.3-1.5 0.7-2.4 1.2-0.5 0.1-0.7 0.1-1.1-0.1-0.4-0.5 0.4-1.6-1-1-0.7 0.5-1.2 0.7-1.9 1.2-0.4 0.3-0.6 0.4-1 0.7-0.5 0.3-0.7 0.4-1.2 0.6-1.4 0.2-2.5 0.2-3.9-0.1-0.5-0.2-0.6-0.4-0.9-0.8 0.1-1.5 1.2-1.9 2.1-2.6 0.1 0-0.1-0.1-0.3 0-3.8 2.4-7.6 4.3-12.2 4-5-0.3-6.7-3.5-4.2-7.8 0.7-1.3 1.7-2.4 2.6-3.6 5.8-7.4 6.1-15.5 3-24-0.6-1.5-1.5-3-1.3-5.1 0.4-0.5 0.5-0.7 1.1-0.9 1.9 0.7 3.3 1.5 4.9 2.5 6.8 7.2 7.3 13.7 1.9 25-0.3 0.7-1.1 0.8-0.7 1.3 3.4 2.6 0.2 3.8-1.5 5.6-0.5 0.4-0.9 0.3-1.1 0.5-0.1 0 0.1 0.2 0.2 0.2 0.7-0.1-0.3 0 0.5-0.5 4.1-2 6.2-6.3 11.1-7 0.5 0 0.7 0.1 1.2 0.3 0.6 0.8 0.7 1.4 0.4 2.4-0.3 0.5-0.4 0.8-0.6 1-0.4 0.5 0.6 0.4 0 0.1 0 0 0.1-0.1 0.3-0.6 0.9-1.7 1.7-2.9 3.8-3.1 1.4 0.2 2.7 1.1 3.6 0 1.1-1.1 0-2.1-0.7-3-0.6-0.8-1.4-1.4-1.4-2.9 0.8-2.1 2.3-2.8 4-3.1 11.9-1.7 23.9-1.9 36-0.3 1.4 0.2 2.9 0.6 4.2 2.1 0.4 3.3-2.7 3.1-4.3 5-6 0.3-11.6-1.8-17.3 0.3-2.1 0.8-4.5 1-7 2z"/>
	<path id="Layer" class="s11" d="m84.6 49.9c-1.3 8.3-3.3 16.5-2.7 25.1 0.7 8.8 1.8 17.5 3.6 26.1 3.8 17 14.7 25.7 31.5 27.9 9.4 1.2 18.8 2.4 28.8 2-17.8 0.9-36.2 5.3-54.3-3-2.1-0.4-3.7-0.9-5.5-1.9-0.5-0.2-0.7-0.3-1.1-0.7-0.7-0.6-1.1-1.2-1.8-1.9-1.8-1.8-4.2-2.7-4.6-5.9 0.2-1 0.3-1.2 0.7-1.7 2.6-2.6 1.6-5.3 1.1-7.8-2.4-11.6-4.3-23.2-3.7-35.5 0-1.5 0-2.6 0-4 0.3-5.8 0.9-11.2 4.2-16.2 1-1.5 2-2.4 3.8-2.5z"/>
	<path id="Layer" class="s4" d="m216.3 145.8c-0.3 0.2-0.4 0.6-0.5 0.8-3.1 2.9-6.5 2.1-10.2 0.6-1.2-1.4-0.8-2.2 0.3-3.2 0.7-0.3 1.1-0.4 1.6-0.5 0.4-0.1 0.4-0.2-0.4-0.3-0.4-0.2-0.5-0.3-0.7-0.8-0.2-0.4-0.2-0.7-0.3-1.2 0.1-1.2 0.4-2 0.8-3.1 0.1-0.5 0.1-0.8 0.3-1-0.4 0.2-0.3 0.7-0.6 1.3-0.8 1.5-1.7 2.2-3.4 2.7-3.8 0.6-6.6-0.5-8.9-3.8-0.9-2.1 0.9-3.3 1.1-4.8 0.2-1.9-1.2-3.2-3.5-2.7 2-0.7 0.8-1.6-0.4-2.2-1.7-0.7-3.6-1-4.4-3.3 3.8-4.5 6-4.3 11.7 1.3 0.4 0.5 0.7 0.8 1.3 1.2 2.3 0.7 3.5-1.5 3.3-1.7-2.6-5.2 4.7-9 1.9-14.2-0.4-0.8 0.3-2.2 0.7-3.7 4.4-1 5 2 5.3 5.1 0.3 3.2-1.4 6-2.1 9.4-1.2 3.5-0.9 6.1 2.3 7.9 1.2-6 5-10.3 9.3-14.4 2.6 3.6 1.7 6.6-1.5 9.7-1.5 3.3-5.5 7.3-2.6 9.2 2 1.3 7.5-1.3 9.9-5.1 0.5-0.9 1.7-1.5 2.9-2.2 1.1 3.8-0.5 6.2-4.1 7.6-1.4 0.5-3.1 1.1-3.4 3.4 0.1 0.4 0 0.3 0 0.3-0.2 0.1-0.5 0.3-1 0.6-0.8 1.3-2.8 2.6 0.7 3.2 0.7 2.7 0.2 4.5-3.3 4.1-0.8-0.6-1.3-0.6-2.1-0.2z"/>
	<path id="Layer" class="s12" d="m156.2 151.8c-3-4.2-7.2-3.5-10.7-3.6-9.9-0.5-19.9-0.5-29.8 0.7-1.8 0.2-3.3 0.5-3.7 3-0.1 2.1-1.1 3.5-2.1 5-1.3 0.9-2.3 1.9-3.6 3-0.3-0.6-0.3-1.4-0.3-2.5 0.2-0.7 0.4-1 0.6-1.5 0-0.2 0.1-0.6 0.1-0.4-0.2 0.5-0.4 0.7-0.5 1.3-3.6 0.1-5.1 3-7.4 4.6-1.5 1.1-2.9 2.6-5.4 2.6 0-2.2 4-2.8 1.9-6-0.6-2.5 1-4.4 1.9-6.4 3-6.9 1.3-13.1-2.5-19.5 1.8 0.3 3.7 1 5.9 1.9 0.9 0.5 1.5 0.5 2.3 0.9 0.7 0.6 1.3 1.1 1.9 1.8 1.1 1.4 1.4 3 3.3 3.6 0.3-0.1 0.5 0.1 0.6 0.2-0.6 1.1 0.4 0.9 1.1 1.3 0.2 0.2 0.2 0.2 0.2 0.2 6.9 1.4 13.8 0.6 20.6 0.2 7.1-0.5 14.2-1 21.4-0.6 6.7 0.3 10.5 5.7 8.5 11.5-0.2 0.7-0.7 1.1-1.8 1.2-0.7-0.2-0.9-0.3-1.5-0.7-0.5-0.5-0.6-0.8-1-1.8z"/>
	<path id="Layer" class="s13" d="m163.6 223.5c1.6 2.6 1.7 5.2 0.6 8.1-3.1 2.5-6.4-0.1-9.7 1-2.3 1-4.1 2.2-5.9 3.8-0.6 0.5-0.9 0.8-1.4 1.3-0.3 0.4-0.4 0.5-0.6 1-0.5 0.8-0.7 1.4-0.9 2.3-1.1 3.7 0.9 7-0.2 10.7-1.2 1.1-2.2 0.9-3.3-0.2-3.4-4.9-6.5-9.4-7-15.6 3.4-3.3 7.4-5.1 11.4-7.6 1.7-0.6 3-1 4.8-1.2 4.9 0.8 7.9-2.9 12.2-3.6z"/>
	<path id="Layer" class="s10" d="m156.7 152.2c0.9 0.3 1.5 1.2 2.2 1.2 1.4 0 1-1.3 1-2.2 0.2-4.8-3.1-8-8.5-8.2-11.5-0.5-22.9 1.1-34.3 1-2.3 0-4.7 0.1-6.9-1.7 15.7-1.5 31.5-2.3 47.9-2.2 4.3 0.1 4.3 3.3 5 6.3 0 0.8-0.1 1.3-0.1 2.4-0.1 0.5 0 1-0.1 1.2 0 0.2-0.2 0.6-0.3 0.8-1.9 5.6-3.7 11-5.6 16.8-0.5 0.7-0.9 0.9-1.7 0.6-0.3-0.7-0.3-1.1-0.1-1.9 0.2-0.7 0.3-1.2 0.2-2 0.1-2.4-1.8-4.2-0.9-6.7 0.3-2 1-3.6 2.2-5.4z"/>
	<path id="Layer" class="s14" d="m100.8 243.8c0.6 0.7 1.3 1.1 2.1 1.9-1.4 2.1-2.9 3.8-4.2 5.7-6 8.5-13.4 10.7-23.4 6.8-2.4-1-4.6-2.4-7.3-3.8-8.4-8-7.7-13.9 2.6-19.5 2.8 4.9 2.6 5.6-1.9 7.9-1.5 0.7-2.9 1.5-3.9 3-0.3 0.5 0.2-0.1-0.2 0.4 0.5 0.1 0.4-0.5 1.1-0.6 0.8 0 1.2 0.2 1.8 0.7 2.1 6 7.2 7.1 12.4 8.6 9 2 13-0.7 13.4-9.3 0.2-4.5 3.8-2.5 6-3.8 1.2 0.2 1.4 0.8 1.5 2z"/>
	<path id="Layer" class="s15" d="m182.3 26.3c0.6 2.1 2 3.1 4 3.9 2 3.5 3.7 6.9 5.4 10.2 0.9 1.8 1.5 3.7 1.2 6.1-2 0.9-2.1-1.5-3.9-1.9-0.3 0-0.4-0.2-0.3-0.2-3.5-3.2-7.9-4.2-12.5-5.8-2.7-3.1-2.3-7.1-4.4-10.5-0.3-0.5-0.4-0.7-0.7-1.3-0.4-2-1.2-3.7-0.2-5.7 4.8-0.3 6.9 4.5 11.4 5.2z"/>
	<path id="Layer" class="s16" d="m128.6 196.2c-3.8 4-8.2 5.2-12.9 3.5-4.3-1.6-4.7-5.6-4.9-9.6-0.1-2.4 0.6-3.3 3.1-3 4.1 0.4 8.4 0 12.4 0.9 4.7 1 2.1 5 2.3 8.2z"/>
	<path id="Layer" class="s17" d="m142.7 200.8c2.1 3.3 4.6 0 7.4 0.7 0.9 0.1 1 0.2 1.2 0.5-0.1 0.6 0 0.9 0.2 1.5 0 0.5 0 0.7-0.1 1.1-1.2 1.2-2.5 0.8-3.7 0.9-0.1 0-0.3-0.1-0.4-0.2 0 0.1 0 0.3 0.3 0.4 0.4 0.2 0.7 0.3 1.2 0.2 0.7-0.4 1.2-0.4 2-0.5 0.5 0 0.6 0 1.1 0.1 0.6 0.2 0.9 0.4 1.5 0.8 0.6 0.4 0.9 0.7 1.5 1.1 0.4 0.3 0.5 0.5 0.8 0.9 0.3 0.5 0.4 0.7 0.6 1.2 0.8 2.7 1.3 5-1.4 6.9-0.6 0.2-0.8 0.2-1.4 0.1-1.5-0.7-1.7-2.2-3-3.2-0.5-0.2-0.7-0.4-1.2-0.6-0.9-0.4-1.4-0.8-2.1-0.9-0.9-0.1-2.1-0.4-2.2 1.1 0 0.8 0.7 1.4 1.6 1.5 1.1 0.3 2.2-0.2 3.6 0.5 0.8 1.1 0.9 2 0.6 3.4-0.5 1.1-1 1.5-2 2.1-0.6 0.3-0.8 0.3-1.4 0.5-0.9 0-1.4 0-2.1-0.3-1.4-1.1-2.6-1.5-4.3-1.1-2.1-0.6-2.7-2.2-3.6-4-0.3-0.8-0.4-1.3-0.5-2.1 0.1-1 0.1-1.7 0.3-2.7 0.3-0.8 0.7-1.2 1.3-1.6 0.2-0.1 0.3-0.4 0.1-0.4-0.2 0.1-0.6 0.1-0.9 0.1-1.4-0.2-2.6 0-3-1.8 2.1-2.3 5.8-1.5 7.1-4.9 0-0.9 0.3-1.2 0.9-1.3z"/>
	<path id="Layer" class="s18" d="m101 244.1c-0.6-0.6-0.8-1.1-1.2-2-0.1-0.5-0.2-0.7-0.2-1.3 1.7-4.1 0.6-7.4-2.1-10.6-0.5-0.3-0.6-0.5-1-0.8-0.6-0.6-0.9-0.8-1.5-1.3-0.4-0.3-0.6-0.5-1-0.8-3-1.6-5.9-1.6-9.1-0.7-0.6 0.2-0.8 0.3-1.4 0.4-1.6 0.2-2.8 0.2-4.2-0.6-0.3-1.1-0.4-1.9-0.4-3.1 1.3-3 3.8-2.6 6-3.1 8.9-1.8 18.8 1.5 23.1 11.4-0.7 3.6-1.6 6.8-2.7 10.3-1.5 0.9-2.7 1.5-4.3 2.2z"/>
	<path id="Layer" class="s19" d="m108.4 231.7c-1.1-0.4-2.2-1-2.8-2-4.9-7.8-12-9.7-20.6-8-1.7 0.4-3.5 0.6-5.7 1.1-0.9-8.2-3.4-16.8 2.3-24.7 1.2 0.6 1.3 1.6 1.2 2.6-0.1 1-0.5 1.9-0.9 2.8-3.1 9.8-2.6 10.9 7.4 14.2 2.2 0.9 4.1 1.2 6.4 0.4 0.8-0.2 1.3-0.3 2.2-0.4 2.9 0.1 5.5 0.1 7.2 2.4-0.1-1.1-0.2-2.4 1.4-3.4 1.9 4.7 3 9.6 1.9 15z"/>
	<path id="Layer" class="s0" d="m191.8 130.1c0.3 2.9-0.6 4.8-3.5 6-3.5 1.4-6 4.1-7.8 7.3-0.9 1.5-1.5 2.1-3.4 1.9-3.7-0.5-6.2-1-3.3-5.3 1-1.5 1.6-3.4 1.9-5.2 0.7-5.2 2.8-9.4 7.9-12 0.3 4.6 3.5 6.7 7.9 7.7 0.3-0.3 0.4-0.4 0.3-0.4z"/>
	<path id="Layer" class="s20" d="m200.3 150.2c-2.6 4.5-6.3 7.5-9.9 10.7-2.2 2-4.2 1.5-5.5-1.8 0.5-3 1.4-5.5 0-8.6-0.3-1.8 0.7-2.1 2-2.4 3.6 1.1 6-0.7 8.7-2.6 2.9 0.3 3.8 2.2 4.7 4.7z"/>
	<path id="Layer" class="s10" d="m90.3 219.2c-1.7-0.5-3.2-0.8-4.6-1.2-7.3-2-8.1-3.3-6.4-10.8 0.7-2.9 1.9-5.6 2.8-8.9-0.1-0.3-0.1-0.3-0.1-0.3 0.6-0.6 1.2-1.2 1.9-2.2 1.5-0.6 2.8-1 4.4-1.1 1 1.7 0.9 3.2 0.3 5-0.5 1.8-1.3 3-2.3 4.6-1.4 2.3-1 4.5-0.6 7 0.3 0.4 0.5 0.6 0.8 1 1 1.3 1.7 2.3 2.9 3.4 0.6 0.7 1.1 1.2 1.7 1.9 0.2 0.5 0.2 0.7 0.2 1.3-0.4 0.4-0.6 0.4-1 0.3z"/>
	<path id="Layer" class="s10" d="m106.9 216.3c-1.1 6.9-5.5 1.9-8.8 2.4-0.5-0.6-0.4-0.8-0.1-1.2 0.9-1 1.7-1.8 2.3-3.1 1.8-3.3 1.5-6.9 3.3-10.2 0.6-1 1.1-1.4 2.2-1.7 6.5 1.9 7 3.5 3 10-1.4 0.9-1.9 2-1.9 3.8z"/>
	<path id="Layer" class="s6" d="m209.4 122c-2.6-1.9-0.6-3.7 0-5.7 0.9-3.5 2.1-7.2-2.8-9.3 1.4-4.1 4.7-4.4 8-2.7 3.2 1.6 2.9 4.9 1.8 7.9-1.5 3.7-3 7.4-7 9.8z"/>
	<path id="Layer" class="s21" d="m147 228.8c-3.6 2.5-7.3 4.7-11.4 6.8-0.3-2.2-0.5-4.4-0.3-6.5 0.2-3.1-0.3-5.5-2.9-7.8-4.1-3.5-3.1-7.2 2.2-9.2 0.7 0.3 1.1 0.4 1.9 0.4 0.5 0.2 0.6 0.3 0.9 0.8 0.1 0.7 0.1 1.2 0.2 2 0.2 0.7 0.1 1.2-0.1 2-1.1 2.9 0.1 5.5-0.1 8.1-0.1 2 1.3 2 2.8 1.7 2.4-0.4 4.6-0.1 6.8 1.7z"/>
	<path id="Layer" class="s3" d="m178.9 149.8c3.4 0.9 4.7 3.1 4.1 6.3-0.5 3.1-3 4-5.7 4.6-5.1 1-9.6-0.9-11.3-5.3 1.1-1.5 2.5-1.4 3.8-1.1 4.1 1 6.9-0.6 9.1-4.5z"/>
	<path id="Layer" class="s4" d="m178.8 149.4c-0.6 6.7-3 7.7-12.3 5.7-0.9-1.9 0-3.5 0.2-5.7 3.8-1.6 7.8-2.3 12.1 0z"/>
	<path id="Layer" class="s22" d="m104.7 186c1.3 0.7 4.2-0.4 3.4 2.5-0.7 2.4-0.8 5.7-4.3 5.8-5.5 0.1-10.6-1.4-14.9-4.7-2.6-2-3.3-4.7 0.2-7.2 0.8-0.2 1.2-0.1 2 0.3 1.4 4.4 3.5 7.4 8.4 7.4 2.2-0.1 3.6-0.7 4.4-3 0.3-0.5 0.4-0.7 0.8-1.1z"/>
	<path id="Layer" class="s23" d="m173.7 126.6c0.4 7.7-2.6 14-8.1 20.8 0.5-6.9 3-12.3 3.1-18.2 1.3-1.9 2.8-2.7 5-2.6z"/>
	<path id="Layer" class="s24" d="m163.3 146.4c-2-1.6-1.9-4.6-4.4-6.4-0.8-1.3-1.5-2.5-1.8-3.7-0.4-1.6-2.8-3.7 1-4.5 2.8-0.6 5.4-1.2 6.2 2.6 0.8 3.9-0.4 7.8-1 12z"/>
	<path id="Layer" class="s5" d="m133.8 187.7c1-0.5 1.7-0.6 2.8-0.8 2.1-1 3.9-1.6 6.2-1.3 3.1-0.4 4.3 0.4 3.2 3.4-1.1 3-3.1 5.2-6.3 6.4-3-2.1-7.4-2.5-5.9-7.7z"/>
	<path id="Layer" class="s7" d="m200.6 150.7c-1.5-1.6-2.7-3.1-4.2-4.7-1.2-0.6-2-1.3-2.8-2.5-0.6-0.8-0.8-1.4-1.2-2.3-0.1-0.8 0-1.2 0.3-1.9 0.5-0.3 0.7-0.3 1.3-0.4 2.4-0.1 2.9 2 4.6 3 2.3 1.3 4.2 0.6 6.4-0.3 0.6 0 0.8 0 1.3 0.3 0.3 0.4 0.3 0.5 0.5 0.9 0.4 0.4 0.6 0.6 0.5 1-0.9 0.7-1.6 1.1-2.4 1.7 0 1.1-0.2 2-0.3 3.1 0.4 1.7 1.7 2.2 2.5 3.6 0 0.5 0 0.8-0.1 1.4-2.4 0.1-4.2-1.4-6.4-2.9z"/>
	<path id="Layer" class="s21" d="m163.9 223.3c-3.7 2.4-6.8 5.5-11.8 5.1 0-2 1.6-2.7 2.8-3.8 4.9-4.3 7.1-9.3 4.1-15.7-0.5-1-0.8-2.1-0.7-3.7 0.2-0.6 0.4-0.8 0.9-1.1 4.6 3.6 3.4 8.8 4.3 13.3 0.3 1.8 0.3 3.6 0.4 5.9z"/>
	<path id="Layer" class="s6" d="m199.9 127.8c-3.8-2.7-6.3-8.2-12.5-4-0.8-3.9 1.9-5.7 5-6.5 3.1-0.8 4.3 1.2 4.9 4.1 0.3 1.8 3.3 2.4 3 5.2 0.3 0.2 0.4 0.3 0.5 0.3-0.1 0.3-0.4 0.6-0.9 0.9z"/>
	<path id="Layer" class="s9" d="m66.5 245.9c-2.2 0.8-0.1 2.5-1.6 3.8-1.7-3.5-1.3-6.4 2.2-7.6 3.6-1.1 4.7-3 3.9-6.8 1.4-1.1 2.9-1.7 4.9-2.2 0.6 2.5-0.8 4.8 0.5 7.4-0.1 0.7-0.3 1.1-0.8 1.7-1.4 1-2.7 1.2-4 2.2-0.6 0.3-1 0.5-1.7 0.7-1.2 0.4-2.2 0.7-3.4 0.8z"/>
	<path id="Layer" class="s3" d="m96.8 228.3c0.1 0.4 0.1 0.5 0.2 0.5 0.3 0.5 0.5 0.9 0.4 1.8-2 1.9-3.5 0.4-5.1-0.3-2.5-1.1-4.5-1-6.1 2-0.7 0.5-1.2 0.7-2.1 0.9-2.1 0.2-3.9 0.3-5.9-0.7-0.9-1-1-1.8-0.4-3.1 0.2-0.3 0.7-0.5 0.9-0.6 1.6-1.2 3.9-0.6 5.3-2.4 0.3-0.1 0.2-0.3 0.2-0.2 3.3-1.4 6.7-1 10.4 0.6 0.4 0.3 0.4 0.2 0.4 0.2 0.5 0.5 1.2 0.5 1.8 1.3z"/>
	<path id="Layer" class="s0" d="m94.8 196.1c1.8-0.1 3.4 0.1 5.1 0.5 0.4 0.6 0.7 1 1.1 1.8 0.1 0.9 0.1 1.4 0.1 2.2-0.2 0.6-0.2 0.9-0.5 1.4-0.4 0.8-0.8 1.2-1.5 1.7-0.9 0.6-1.5 0.7-2.1 1.2-1.3 1-2.4 3.1-4.5 1.9-1.8-1.1-1.8-3-1.6-5.3 0.3-1.3 0.9-2.1 1.9-2.9 0.7-0.5 1.2-0.7 1.6-1.5 0.2-0.4 0.2-0.6 0.4-1z"/>
	<path id="Layer" class="s5" d="m219.4 125.1c0.5-2.9 2.7-5.6 1.7-9.5 3.2-1.1 5.4 0 5.2 3.5-0.1 4-1.7 6.8-6.9 6z"/>
	<path id="Layer" class="s2" d="m192.7 138.8c0.3 0.6 0.3 1 0.5 1.8-1.8 4.1-5.7 5.5-9 8.1-1.5-0.6-2.3-1.4-1.9-3 0.9-3.5 6-7.1 10.4-6.9z"/>
	<path id="Layer" class="s2" d="m61.5 163c-1.7 1.8-3.2 3.3-4.7 4.9-1.1 1.2-1.9 0.7-2.8-0.6-1.8-3.3-0.1-5.6 1.8-8.2 0.5-0.4 0.7-0.5 1.3-0.8 1.6-0.5 2.9-0.6 4.4 0.3 0.8 1.6 0.7 2.8 0 4.4z"/>
	<path id="Layer" class="s22" d="m133.8 187.3c-0.2 2.6 0.3 4.6 3.4 4.9 1.4 0.1 1.7 1.1 2 2.7 0.2 0.4 0 0.3 0 0.3-0.4 0-0.6 0.2-1 0.7-3.8 1.9-5.9 0-6.8-3.1-0.6-1.9-2.1-5 2.4-5.5z"/>
	<path id="Layer" class="s25" d="m200.9 71c1.1 4.5-0.6 8.5-0.7 12.9 0.3 0.4 0.2 0.5 0.1 0.5-2.4-0.6-3.8-1.8-3.4-4.7 0.3-2.6 0.1-5.3 0.2-8.4 1.2-1.4 2.3-1.3 3.8-0.3z"/>
	<path id="Layer" class="s7" d="m82.5 159.3c-3.5 0-5.9-3.4-9.7-2.1-1-0.1-1.6-0.2-2.7-0.3 0-2.8 5.6-2.5 3.3-7.1 0.5-2.9 1.8-2.7 3.4-1.2 1.3 1.2 1.3 3.1 2.8 4.5 1.2 2.7 3.3 2 5.5 2.1 0.6 0.2 0.8 0.3 1.1 0.8-0.2 2.3-1.3 3.4-3.7 3.3z"/>
	<path id="Layer" class="s14" d="m73.9 149.8c4.5 5.7-1 5.3-4 6.8-2.4 0-4.3 2-6.8 0.7-0.3-0.5-0.4-0.7-0.4-1.3 2.9-3.7 7.7-3.6 11.2-6.2z"/>
	<path id="Layer" class="s4" d="m168.6 236.9c1.7 1.4 3.5 0.7 5.2 1.6 0.3 3.2-2.2 2.6-4.2 3.4-2.6 0.5-4.7 1.3-6.9 1.6-2.1 0.4-3.6-0.1-2.8-3.1 0.7-1 1.3-1.5 2.2-2.3 2.1-1.4 4.1-1.7 6.5-1.2z"/>
	<path id="Layer" class="s5" d="m143.5 200.7c-1 0.4-1.4 0.6-1.9 0.8-0.6 0.3-1.2 0.5-2.7 1-1.6-0.4-1.7-1.2-1.3-2.5 2.4-1.4 4.9-2 7.1-3.8 1.5-0.7 2.6-0.5 3.9 0.6-1 2.1-2.9 2.8-5.1 3.9z"/>
	<path id="Layer" class="s26" d="m185.3 110.5c3.2-6.6 5.4-13.4 7.1-20.8 0.6 0.3 1 0.8 1.5 1.9-0.8 1.6-0.1 3-0.7 4.5-0.2 1.1-0.2 1.7-0.2 2.7-1.8 2.4-2.2 5.1-3.3 7.5-0.8 1.8-1.2 4.2-4.4 4.2z"/>
	<path id="Layer" class="s4" d="m184.8 110.5c3.8-0.7 3-4.5 4.7-6.4 1.3-1.4 0.9-3.8 3.1-5-0.5 5.5-2.9 10.2-6.2 14.9-0.6-1.1-3.3-1.2-1.6-3.5z"/>
	<path id="Layer" class="s21" d="m150.8 201.8c0.2-0.4 0.1-0.3 0.1-0.3 3.1-0.7 5.9-0.2 8.5 2.3 0.1 0.5 0 0.6-0.2 1-1.2 1.3-2.5 2-3.9 3-0.8 0.1-1.4 0-2.1-0.3-0.4-0.6-0.6-0.9-1.1-1.3-0.2-0.2-0.1-0.2-0.1-0.2-0.8-0.6-0.4-1.7-0.8-2.8-0.3-0.2-0.2-0.2-0.2-0.2-0.1-0.2-0.2-0.5-0.2-1.2z"/>
	<path id="Layer" class="s23" d="m184 149.1c1.6-4.1 5.7-5.3 8.9-8.1 0.6 0.3 0.9 0.8 1.3 1.5-0.9 3.1-3.1 4.9-5.8 6.5-1.3 0.2-2.1 0.4-3.3 0.8-0.5 0-0.8-0.2-1.1-0.7z"/>
	<path id="Layer" class="s9" d="m201.2 70.9c-1.1 0.3-2.2 0.2-3.6 0-0.5-2.4-0.6-4.7-0.6-7.5 0.8-1 1.6-1.1 2.7-0.6 1.9 2.5 1.1 5.2 1.5 8.1z"/>
	<path id="Layer" class="s7" d="m91.4 183.5c-0.7-0.4-1.1-0.6-1.8-1 0.2-0.4 0.6-0.4 1.6-0.7 5.2 0.8 9.8 1.6 14.8 2.8 0 0.4-0.3 0.6-0.8 1-0.2 0.2-0.4 0.4-0.3 0.5-4.7 1.5-9 0.1-13.5-2.6z"/>
	<path id="Layer" class="s6" d="m168.7 241.1c1.8-0.8 3.5-1.2 5.2-2 1.2 0.1 2.3 0.5 3.6 1.1 1 4-2.6 2.6-4.6 3.8-2.3 0-4.2 0.1-4.2-2.9z"/>
	<path id="Layer" class="s17" d="m198.4 143c-2.2-0.6-2.6-2.4-3.8-3.9-0.3-0.6-0.5-1-0.5-1.8 2.9 0.3 4.7 3.7 8.6 2.9 0.8 4-2.2 2.3-4.3 2.8z"/>
	<path id="Layer" class="s22" d="m149.2 197.1c-1.3-0.2-2.4-0.4-3.8-0.9-0.3-0.4-0.2-0.7 0.1-1.1 1.6-1.3 2.6-3.9 4.8-2.3 1.6 1.2 0.3 2.9-1.1 4.3z"/>
	<path id="Layer" class="s23" d="m150.2 179.9c-2.2-4.2 2.4-6.2 3.5-9.8 0.7 0.2 0.9 0.7 0.6 1.6-0.2 0.8-0.3 1.2-0.3 1.9-0.2 0.5-0.3 0.6-0.6 1.1-0.5 2.2-2 3.4-3.2 5.2z"/>
	<path id="Layer" class="s4" d="m164.8 234.2c1.6-0.3 3-0.8 3.9 1.3-2 2.5-5.2 1.5-7.9 3-2-1.4-0.8-2.6 0-4.1 0.8-0.6 1.4-0.8 2.4-0.5 0.6 0.4 0.9 0.5 1.6 0.3z"/>
	<path id="Layer" class="s4" d="m147.9 257.1c-1.3-0.8-2.6-1.8-4-3-0.4-1.4 0.7-1.4 1.6-2.2 0.6-1.2 0.5-2.2 1.5-3.1 0.8-0.3 1.3-0.3 2 0.1 1.5 2.6 0.5 4.8-0.4 7.4-0.2 0.3-0.5 0.6-0.7 0.8z"/>
	<path id="Layer" class="s22" d="m137.4 199.5c0.4 0.9 0.5 1.7 0.6 2.9-1.9 0.8-4 1.7-5.7-0.8-0.1-0.6 0.1-0.9 0.5-1.4 1.5-0.4 2.9-0.6 4.6-0.7z"/>
	<path id="Layer" class="s26" d="m94 198.6c-0.7 0.8-1.3 1.2-2 2-0.3 0.4-0.4 0.6-0.9 0.9-1.6 0.2-2.8-0.2-3.9-1.4 1.1-1.5 0.7-3.1 1.1-4.8 0.2-0.4 0.2-0.4 0.2-0.3 0.8 0.3 1.5 0.9 2.6 1.5 0.7 0.2 1.1 0.3 1.9 0.6 0.7 0.4 0.9 0.8 1 1.5z"/>
	<path id="Layer" class="s22" d="m138.2 209.7c-0.2 1.1-0.2 1.9-0.3 3.1-0.2 0.5-0.3 0.6-0.7 0.4-0.2-0.3-0.2-0.2-0.2-0.2-0.2-0.2-0.5-0.4-0.9-0.8-0.3-2-2.7-2.9-1.5-5.2 0.8 1.2 2.1 0.4 3.2 0.8 0.6 0.6 0.7 1 0.4 1.9z"/>
	<path id="Layer" class="s26" d="m83.9 226.2c0.9 4.4-2.4 2.4-4.6 2.7-0.3-0.8-0.3-1.4-0.3-2.4 1.5-0.4 3-0.4 4.9-0.3z"/>
	<path id="Layer" class="s4" d="m173.4 243.2c0.8-2.1 3.3-0.2 4.3-2.5 0.4-0.3 0.6-0.3 1.1-0.1 0.8 0.6 1.3 1 2.2 1.9 0.3 0.4 0.2 0.3 0.2 0.2 0.1 0.2 0.3 0.4 0.4 1.3-3.1 2.3-5.5 0.4-8.2-0.8z"/>
	<path id="Layer" class="s7" d="m188.7 44.9c2.2-1.5 2.7 0.5 3.9 1.8 1.9 1.2 0.6 2.5 0.5 3.9q-2.2-2.4-4.4-5.7z"/>
	<path id="Layer" class="s26" d="m164.2 234.6c-0.6 0-1.1-0.3-1.9-0.6-0.9 0-1.5 0-2.4-0.2-0.6-0.2-1-0.3-1.8-0.4-1.4-0.1-2.5-0.1-3.9-0.3-0.5-0.2-0.7-0.3-1.2-0.7 3.1-2.9 6.7-0.8 10.5-0.5 0.5 0.5 0.5 0.9 0.5 1.7 0.2 0.5 0.3 0.7 0.2 1z"/>
	<path id="Layer" class="s14" d="m100.2 201.6c-0.3-0.7-0.2-1.2-0.2-2.1 0.8-1.7 2.6-0.9 3.7-2.2 2.7-0.5 2.2 1.3 2.2 3.1-0.1 0.6-0.2 0.8-0.6 1.2-0.5 0.2-0.7 0.3-1.2 0.4-0.6 0.1-0.8 0.2-1.3 0.2-1 0-1.7-0.2-2.6-0.6z"/>
	<path id="Layer" class="s5" d="m93.2 197.5c-0.7 0.1-1.1 0.2-1.7 0.3-1.4-0.8-1.4-1.7-0.6-3 1.5 0 2.7 0.3 4 0.8 0.1 0.3 0.1 0.8 0.1 1-0.3 0.9-0.9 1-1.8 0.9z"/>
	<path id="Layer" class="s25" d="m159.6 237.9c3-0.7 5.7-1.4 8.8-2 0.4 0.1 0.4 0.3 0.5 0.9-1.7 0.6-3.5 1-5.6 1.5-0.4 0.6-0.8 1-1.7 1.2-0.8 0.1-1.3 0.2-2.1-0.1-0.7-0.6-0.7-1 0.1-1.5z"/>
	<path id="Layer" class="s4" d="m178.4 122c0.2-2.3 0.7-4.7 4.4-4-0.7 1.8-2.3 3-4.4 4z"/>
	<path id="Layer" class="s26" d="m84.9 125.1c2.8-0.9 3.9 1.7 6 2.6-0.1 0.4-0.4 0.5-0.7 1-0.3 0.2-0.5 0.2-1.3 0.3-0.9 0-1.1-0.1-1.7-0.2-1.6-0.8-3-1.5-2.3-3.7z"/>
	<path id="Layer" class="s7" d="m174 126.5c-1.4 0.9-2.9 1.6-4.7 2.3-0.6-0.2-0.8-0.5-1.4-0.8 1.6-1.1 3.5-2 5.8-2.9 0.3 0.3 0.3 0.7 0.3 1.4z"/>
	<path id="Layer" class="s7" d="m143.1 185.4c-1.8 0.7-3.6 1.1-5.8 1.4-0.3-0.2-0.3-0.5-0.4-1.1 1.8-0.8 3.6-1.2 5.8-1.5 0.3 0.3 0.4 0.5 0.4 1.2z"/>
	<path id="Layer" class="s5" d="m103.6 197c1 3.6-1.2 2.4-3.2 2.1-0.4-0.5-0.4-1-0.3-1.9 1-0.3 2-0.3 3.5-0.2z"/>
	<path id="Layer" class="s21" d="m154.4 172c-0.3-0.4-0.4-0.9-0.4-1.7 0.2-0.9 0.4-1.4 0.8-2.1 0.6-0.2 1-0.2 1.8-0.2 0.1 1.6-0.8 2.7-2.2 4z"/>
	<path id="Layer" class="s26" d="m77.9 231.3c2 0.2 3.6 0.5 5.7 0.8 0.4 0.3 0.5 0.6 0.2 1.2-2.5 1.4-4.8 1.4-7.5 0.2-0.3-0.2-0.3-0.4-0.3-0.6 0-0.1 0-0.6 0.1-0.8 0.4-0.6 0.9-0.8 1.8-0.8z"/>
	<path id="Layer" class="s5" d="m200.1 62.6c-0.8 0.4-1.5 0.4-2.6 0.4-0.4-1.2-1.5-2.8 0.1-3.2 1.3-0.4 2.1 1 2.5 2.8z"/>
	<path id="Layer" class="s10" d="m108.3 140c-2.6 1.5-3-0.3-3.4-2.7 1.1 0.6 2.2 1.5 3.4 2.7z"/>
	<path id="Layer" class="s14" d="m90.9 194.3c0.3 1.1 0.3 1.9 0.3 3.1-2.1 1-2-0.5-2.5-2.1 0.5-0.6 1.2-0.9 2.2-1z"/>
	<path id="Layer" class="s4" d="m184.2 116.9c-1-0.5-2.2-1-1.6-2.2 0.5-0.9 1.4 0 2.4 0.4 0 0.6-0.2 1.1-0.8 1.8z"/>
	<path id="Layer" class="s7" d="m162.8 151c-0.4-0.1-0.4-0.3-0.5-0.8 0.1-0.4 0.2-0.6 0.5-1.1 0.1-0.2 0.1-0.2 0.1-0.2 1-0.2 2-1.1 3.4-0.1 0.3 0.2 0.2 0.2 0.2 0.2-1.1 0.7-2.2 1.3-3.7 2z"/>
	<path id="Layer" class="s7" d="m145.7 251.8c0 1.3-1.1 1.1-1.9 1.9-1-0.3-1.6-1-1.8-2.3 0.8 0 1.6 0.3 2.7 0.6 0.5-0.1 0.6-0.2 1-0.2z"/>
	<path id="Layer" class="s14" d="m78.2 231c-0.4 0.5-0.9 0.7-1.7 0.8-0.5-1.1-1.1-2.5 1.2-2.8 0.4 0.6 0.4 1.2 0.5 2z"/>
	<path id="Layer" class="s17" d="m221.7 129.7c-1.5 0.4-2.1-0.1-1.5-1.1 0.5-0.9 1.8-1.1 2.6-0.3 0.7 0.6-0.4 0.9-1.1 1.4z"/>
	<path id="Layer" class="s23" d="m61.8 158.7c-1.4 0.2-2.8 0.2-4.6 0.1 0.1-1.8 1.4-1.8 3.1-1.7 0.6 0.2 0.8 0.3 1.3 0.7 0.2 0.3 0.3 0.7 0.2 0.9z"/>
	<path id="Layer" class="s7" d="m104.3 201.2c0.4-0.2 0.6-0.2 1.2-0.3 0.5 0.2 0.5 0.5 0.6 1.2-0.3 0.8-0.6 1.1-1.1 1.7-0.6 0.3-0.9 0.3-1.4-0.8 0.1-1.1 0.3-1.3 0.7-1.8z"/>
	<path id="Layer" class="s19" d="m83.7 195.7c0.4 0.9 0 1.8-1.4 2.3-0.5-1.2 0.2-1.7 1.4-2.3z"/>
	<path id="Layer" class="s25" d="m193.3 96.2q-0.2-1.5 0.4-3.8 0.2 1.5-0.4 3.8z"/>
	<path id="Layer" class="s26" d="m62 157.9c-0.3 0.1-0.5 0.1-0.9-0.1-0.7-0.6-0.8-1.2-0.6-2.2 0.3-0.4 0.4-0.6 0.9-0.8 0.8 0 1.1 0.3 1.4 1 0.1 0.3 0.1 0.8 0.1 1-0.4 0.4-0.6 0.6-0.9 1.1z"/>
	<path id="Layer" class="s7" d="m194.1 89.3c-0.2 0.3-0.2 0.2-0.3 0.2q0.2-1.1 0.4-2.2c0-0.1 0.3-0.1 0.4-0.1-0.1 0.6-0.2 1.2-0.5 2.1z"/>
	<path id="Layer" class="s7" d="m153 130.3c1 0 1.7-0.1 2.6 0q-0.6 0.4-2.2 0.7c-0.5-0.2-0.6-0.4-0.4-0.7z"/>
	<path id="Layer" class="s9" d="m153 130.2c0.4 0.1 0.3 0.5 0.2 0.6-0.9 0.2-1.7 0.2-2.8 0.1 0.3-0.9 1.3-0.9 2.6-0.7z"/>
	<path id="Layer" class="s10" d="m110 141.7c-0.6 0.3-1.3 0.2-1.4-0.8 0.5 0 1 0.3 1.4 0.8z"/>
	<path id="Layer" class="s10" d="m103 134.8c-0.5 0.1-1.1 0-1.8-0.4 0.4-0.1 1-0.1 1.8 0.4z"/>
	<path id="Layer" class="s7" d="m135.8 212c0.6 0.1 0.9 0.3 1.2 0.7-0.7 1.2-1.1 0.4-1.9-0.3 0-0.3 0.2-0.3 0.7-0.4z"/>
	<path id="Layer" class="s7" d="m153.4 174.8c-0.1-0.1 0-0.4 0.3-0.8 0.2 0.2 0.1 0.5-0.3 0.8z"/>
	<path id="Layer" class="s5" d="m145.7 194.9c0 0.1 0.1 0 0.1-0.1 0.1 0-0.1 0-0.1 0.1z"/>
	<path id="Layer" class="s5" d="m138.4 196.1c-0.2-0.3 0-0.6 0.5-0.9 0.1 0.2 0 0.6-0.5 0.9z"/>
	<path id="Layer" class="s7" d="m132.7 200.1q0.1 0.3-0.4 1-0.1-0.2 0.4-1z"/>
	<path id="Layer" class="s0" d="m114 203c-0.4-0.1-0.6-0.4-0.8-0.7 0.3 0 0.5 0 1 0.1 0.1 0.3-0.1 0.5-0.2 0.6z"/>
	<path id="Layer" class="s6" d="m179.1 240.7c0 0 0.1 0.1 0.1 0.2 0.1 0 0-0.2-0.1-0.2z"/>
	<path id="Layer" class="s7" d="m164.3 234.8c-0.3 0-0.3-0.4-0.3-0.6 0.1-0.2 0.5-0.2 0.8-0.2q0.3 0.6-0.5 0.8z"/>
	<path id="Layer" class="s4" d="m40.4 201.8c-1.1 0.2-1.7 0.3-2.8 0.3-0.4-4 2.8-7.5 1.6-11.8-0.4-1.3 0.9-3.2-1.1-3.8-1.3-0.5-2.2 1-3.1 1.9-0.7 0.7-1.3 1.5-2.2 2.5-0.8 0.3-1.1 0.6-1.4 1.5-1.9 5.9-2.9 6.7-7.9 5.9 2.2-4.8 2.6-10.7 9-12.8-0.7-2.5-3-2.4-5.6-2.5-0.8 0.1-1.1 0.3-1.7 0.8-0.2 0.3-0.2 0.2-0.1 0.2-2.4 2.1-4 4.9-6.7 6.7-3.1 2.1-6.2 3.4-9.4-0.5 0.5-2.1 1.9-2.9 3.5-3.3 2.9-0.8 5.6-1.6 6.5-5 0.8-3.1 5.4-0.3 6.1-4.2 0.2-0.9 0.3-1.5 0.3-2.3 0.3-0.5 0.4-0.7 0.5-1-0.3 0-0.5 0.4-1.2 0.5-1.6 0-2.8-0.5-4.3-1-0.6-0.3-0.8-0.4-1.3-0.7-2.3-2.3-4.8-4.3-3.2-8.1 2-1.4 3.3-0.3 4.6 0.7 5.2 4.2 6 4.1 10.3-0.5 5 1 8 3.7 9.4 8.6 1.3 0.3 2.8 2.4 3.1-0.9 0-0.3 0.5-0.4 0.6-0.2 4.5 0.2 5.5 1.4 5.3 7.4 0.2 0.5 0.4 0.7 0.1 1.1-0.2 0.8-0.1 1.5-0.4 2.5-0.4 1-0.8 1.5-1.6 2.2-1 0.6-1.6 1-2.3 1.8-1.5 2.7-1.5 5.3-1.6 7.9-0.1 2.4-0.2 4.7-3 6.1z"/>
	<path id="Layer" class="s20" d="m49.6 145.8c2.5 1.1 4.1 2.7 6 4.4 0.5 0.1 0.7 0.1 1.2 0.2 0.4 0.3 0.6 0.4 1 0.8 0.4 0.6 0.7 1 1.1 1.6 0.4 1 0.5 1.6 0 2.6-5.6 0.5-8.7 3.9-11.7 8.2-0.7 0.3-1.1 0.3-1.8 0.3-0.7-0.3-1.3-0.4-2.1-0.6-3.6-0.5-7-0.9-10.8-1.4 1.2-6.4 10.7-15.5 17.1-16.1z"/>
	<path id="Layer" class="s24" d="m49.7 145.7c-4.4 1.2-7.4 4.5-10.4 7.9-2.2 2.6-4.6 5.1-7.1 8-1.7-0.2-3.7 2.2-4.9 0.3-0.9-1.5 1-3 1.8-4.3 2.6-4.5 5.5-8.9 8.4-13.7 4.5-2.3 8.3-0.5 12.2 1.8z"/>
	<path id="Layer" class="s6" d="m8.5 190.1c4.3 2.7 7.6 1.6 10.7-1.7 1.5-1.6 2.8-3.7 5.5-4.3-0.3 4.2-2.1 8-5.1 11.1-2.3 2.4-4.7 4.9-8.5 3.2-3.7-1.6-3.4-4.8-2.6-8.3z"/>
	<path id="Layer" class="s6" d="m23.2 198.4c4.7 0.9 5.7-3.2 8.2-6 0.1 2.6 3.5 5.7-0.3 8.6-3.9 3-6 2.6-7.9-2.6z"/>
	<path id="Layer" class="s10" d="m47.3 164c2.3-7.7 3.9-8.9 11.3-9 0.7-0.3 1-0.5 1.9-0.4-0.9 0.7 0 1.5 0.3 2.7-1.1 0.6-2.2 0.7-3.7 1.1-0.3 0.3-0.3 0.3-0.3 0.4-2.5 1.4-3.8 4.2-6.6 5.8-1 0-1.8-0.2-2.9-0.6z"/>
	<path id="Layer" class="s3" d="m49.5 180.4c-1.1-2.8-1.2-6.1-5.1-7.4-0.7-2.4-0.9-5.4 2.5-4.9 3 0.5 5.5 2.8 5.1 6.3-0.3 2.1-1.4 3.9-2.5 6z"/>
	<path id="Layer" class="s9" d="m40.2 202.2c1.5-2.2 2.1-4.5 1.9-7.1-0.2-2.5 0.1-4.9 2.5-6.9 0.6 2.4-0.3 5 1.1 7.8-0.1 3.6-1.1 6.6-5.5 6.2z"/>
	<path id="Layer" class="s3" d="m40.2 174.9c-0.9 0.2-2.1 0.6-2 0.2 0.9-5.4-3.2-7.1-6.9-9.6 8.3 0.2 10.7 1.3 10.2 7 0 0.5 0.1 0.7 0.1 1.2-0.4 0.6-0.8 0.9-1.4 1.2z"/>
	<path id="Layer" class="s5" d="m19.3 174.7c-2.2 0.7-4.2 1.4-5.6-0.6-2.3-3-0.6-5.9 0.9-8.8 1.3 2.7 1.1 6.1 5.1 7.5 0.3 0.2 0.3 0.2 0.3 0.2 0.5 0.6 0.2 1.1-0.7 1.7z"/>
	<path id="Layer" class="s23" d="m50.1 165c0.9-3.2 2.8-5.4 6.3-6.2-0.7 2.4-2.2 4.7-2.5 7.8-1.2-0.2-2.4-0.8-3.8-1.6z"/>
	<path id="Layer" class="s3" d="m53.6 189.5c-1.9 2.2-3.7 1.8-5.6-0.1 0.3-2.2 1.4-3.5 3.1-4.8 3.6 0.2 2.8 2.5 2.5 4.9z"/>
	<path id="Layer" class="s0" d="m53.9 189.6c-1.6-1.1 0-3.5-2.4-4.6-0.6-0.2-0.8-0.2-1.3-0.6-0.7-0.8-1-1.5-1.1-2.6 5.7 0.4 6.9 2.3 4.8 7.8z"/>
	<path id="Layer" class="s14" d="m50.6 183.9c0.3 0.2 0.4 0.6 0.5 0.8-0.2 1.9-1.1 3.2-2.9 4.2-1.3-0.4-1-1.3-1.2-2.5 0.2-0.9 0.4-1.5 0.9-2.3 0.9-0.7 1.7-0.8 2.7-0.2z"/>
	<path id="Layer" class="s3" d="m19.9 172.7c-4.9 0.4-5-3.1-4.9-7.1 0.2-0.5 0.4-0.6 0.8-0.7 0 3.1 1.7 5.4 4.1 7.8z"/>
	<path id="Layer" class="s3" d="m19.4 174.9c-0.1-0.6 0.2-1 0.5-1.7 1.6 0.1 3.1 0.4 4.9 0.8 0.5 0.2 0.6 0.3 0.6 0.8-0.3 0.5-0.6 0.8-1.2 1-1.8 0.4-3.2 0.2-4.8-0.9z"/>
	<path id="Layer" class="s25" d="m40 175.2c0.1-0.5 0.3-0.8 0.8-1.1 0.6-0.5 1.2-0.6 1.9-0.9 0.1-0.3 0.4-0.4 0.5-0.5 0.9 1.4 0.9 2.9 0.9 4.9-1.5-0.9-2.2-2.8-4.1-2.4z"/>
	<path id="Layer" class="s9" d="m36.6 193.2c0.1 1.1 0.5 2.2-0.7 2.2-1.1 0-1.2-1.2-1.2-1.9 0.1-0.9 0.5-2.2 1.9-0.3z"/>
	<path id="Layer" class="s3" d="m50.8 183.7c-0.6 0.3-1.3 0.2-2.3 0.2-0.2-0.6 0-1.3 0.4-2.2 0.2-0.2 0.2-0.2 0.2-0.2 0.5 0.6 1 1.2 1.7 2.2z"/>
	<path id="Layer" class="s7" d="m24.2 176.2c-0.1-0.5 0.1-0.8 0.5-1.1 0.5-0.3 0.8-0.4 1.6-0.4 0.1 0.7-0.2 1.4-0.8 2.4-0.5-0.1-0.8-0.4-1.3-0.9z"/>
	<path id="Layer" class="s7" d="m43.2 163.5q0.6-0.2 1.7 0.2-0.5 0.2-1.7-0.2z"/>
	<path id="Layer" class="s7" d="m42.5 172.9c-0.1 0.4-0.5 0.7-1.2 1.1-0.3-0.3-0.2-0.6 0-1 0.4-0.1 0.6-0.1 1.2-0.1z"/>
	<path id="Layer" class="s6" d="m25.4 184.1c-0.1-0.3 0.2-0.5 0.9-1 0 0.3-0.3 0.6-0.9 1z"/>
	<path id="Layer" class="s7" d="m32.9 185.5c0 0 0.4-0.1 0.4-0.1 0 0-0.1 0.1-0.2 0.1-0.2-0.1-0.1 0-0.2 0z"/>
	<path id="Layer" class="s9" d="m31.9 191.8c-0.2 0.2-0.3 0.3-0.3 0.4 0.1-0.3 0.2-0.7 0.6-1.1 0.2 0.1 0.1 0.3-0.3 0.7z"/>
	<path id="Layer" class="s27" d="m60.2 55.3c-4.2-2.4-4.4-6-2.8-10.2 0.9-2.4 1.4-4.8 2.2-7.5 7 3.4 13.1 8.1 19.1 13.3 0.2 0.9 0.2 1.5 0.1 2.4-3.1 7-2.6 14-2 21.4 0.2 2.9 0.3 5.4 0 8.4-1.8 2.3-3.2 0.8-5-0.2-0.7-0.7-1-1.2-1.3-2.1 0.1-3 0-5.5 0-8.4 0-2.8 0.1-5.2-0.1-7.6 0.2 2.1 0.1 4.3 0.1 6.8 0 2.7 0 5-0.1 7.7-0.2 0.6-0.4 0.8-1 0.9-2.7-2.6-1.3-5.8-2.1-9-0.4-1.5-0.5-2.7-1-4.2-0.3-0.9-0.5-1.5-0.9-2.5-0.3-0.8-0.4-1.5-0.5-2.4-0.1-0.8-0.1-1.4-0.4-2.2-0.1-0.4-0.2-0.5-0.5-0.9-0.5-0.6-1-1-1.7-1.4-1.2-0.7-2.3-1-2.1-2.3z"/>
	<path id="Layer" class="s8" d="m78.2 53.2c-0.3-0.6-0.2-1-0.1-1.7 0-3.2 2.1-4.8 4-7 1.5-1.6 1.2-2.9-0.1-4q-6.3-5.3-12.5-10.5c-1-0.8-2.1-0.7-3.5 0.3-0.6 0.5-1 0.7-1.8 1-0.5 0.1-0.8 0.1-1.3-0.2 1.6-5.2 5.2-8.8 9.5-12.3 5.3-3.3 10.7-5.6 16.8-7.4 0.6-0.1 0.8 0 1.2 0.4-0.1 1.4-0.9 2-2 2.8-3.1 1.7-6 2.9-8.9 5-3.8 1.6-4.1 3.2-1.6 6.3 3.3 4.2 7.6 7.2 11.4 10.9 2.3 2.1 4.9 1.4 7.7 0.3 3.5-0.8 6.5-1.8 9.9-3 2-0.5 3.6-0.8 5.6-1.3 8.9-2 17.6-1.4 26.7-1.3 1.3 0.1 2.2 0.2 3.4 0.9 0.8 0.7 0.9 1.3 0.7 2.3-10.6 1.6-21.3 0.8-31.6 3.2-6.9 1.6-14 2.6-20.7 6-3.5 2-6.2 4.3-9 7.2-0.8 1-1.2 1.9-2.5 2.4-0.6 0-0.8 0-1.3-0.3z"/>
	<path id="Layer" class="s15" d="m70.6 110.9c-0.7-1.4-1.4-2.5-3.1-3.1-2-2.2-3.6-4.4-5.6-6.3-1.5-1.5-1.9-2.9-0.8-5 0.1-0.5 0.2-0.7 0-0.7-1.4 0-2.5-0.1-3.9-0.5-0.6-0.6-0.8-1-0.9-1.7 0-0.6 0-0.8 0.2-1.4 0.5-2 0.7-3.9 2.4-5.5 3-0.7 3.9 1.5 5.4 3.4 2.3 3.7 5.2 6.2 8.4 9 1.4 1.6 1.6 3.1 1.4 4.8 0 0.5 0.1 1 0.3 1.4 0.1-0.5 0-1 0.6-1.7 1.1-0.5 1.8-0.6 3-0.4 3.9 5 4.3 9.4 1.4 13.8-0.2 0.3-0.1 0.2-0.1 0.2-0.4 0.2-0.8 0.4-1.5 0.7-0.6 0.1-0.8 0.1-1.3 0-0.6-3.5-3.3-5.1-5.9-7z"/>
	<path id="Layer" class="s28" d="m83.1 44.7c-1.5 2.2-3 4.1-4.7 6.3-6.3-4.2-13-7.6-18.3-13.4 0.1-1.6 0.5-2.8 1.2-4.4 1-0.5 1.4-1.4 2.4-2 0.5-0.5 0.7-0.7 1.1-1 1.3-0.7 2.2-0.2 3 0.4 5.3 4.3 11.1 8.2 15.3 14.1z"/>
	<path id="Layer" class="s3" d="m46.8 61.3c3.6 0.3 7.2 0.6 8.1 5.4 3.2 3 2.9 7 3.9 10.8 0.2 1.2 0.2 1.9-0.2 3-2.8 0.7-5.8 0.4-6.7 4-0.2 0.7-1.3 0.9-2.4 0.2-1.2-2.2-0.8-4.3-1-6.7-0.4-2.9-0.8-5.4-1.3-8.3-0.3-0.9-0.4-1.4-0.6-2.3-0.4-2.2-1.1-4 0.2-6.1z"/>
	<path id="Layer" class="s14" d="m49.2 85.9c1.7-1.2 2.6-2.6 2.9-4.5 0.3-1.4 0.5-3.1 2.3-3.3 1.8-0.3 1.3 2 2.8 2.7 1.4 0.3 1.6 1.2 2 2.5-0.5 3.3-2.1 5.9-2 9.3-0.3 0.4-0.2 0.4-0.2 0.4-0.4 0.4-0.5 1-0.9 1.8-3.1 0-5.9-0.1-8.9-0.7-0.3-0.6-0.4-0.8-0.6-1.3 0.1-1.1 0.3-1.9 0.5-3 0.1-0.5 0.1-0.7 0.3-1.2 0.5-1.1 0.7-2.2 1.8-2.7z"/>
	<path id="Layer" class="s5" d="m65.7 60.9c0.2 1 0.3 1.6 0.3 2.7 0.2 0.5 0.3 0.6 0.3 1.1-0.3 0.6-0.6 0.8-1.3 1-0.5 0.2-0.6 0.2-1 0.4-0.2 0.2-0.3 0.6-0.3 0.9 0.1 0.4 0.1 0.6 0.1 1.1-0.1 1.1-0.4 1.8-1.5 2.3-1.3 0.1-1.9-0.6-2.6-1.5-0.5-0.8-0.8-1.4-1.2-2.3-0.6-1-0.9-1.7-1.3-3.1-1.7-4-2.7-7.2 2.9-8.3 1.3 0.5 2.1 1 3.1 1.7 0.6 0.6 1.1 1.1 1.6 1.9 0.2 0.3 0.2 0.2 0.2 0.2 0.4 0.4 0.5 1 0.7 1.9z"/>
	<path id="Layer" class="s4" d="m47.1 93.1c-0.1 0.4-0.2 0.5-0.2 0.5-3.7 2.6-5.8 0.1-7.4-2.7-1-1.8-1-4.1-1.4-6.6 0.2-0.5 0.4-0.6 0.9-0.8 1.8 0.5 2.2 2.1 3.6 3.2 0.7 0.4 1.2 0.6 2 0.4 1.1-1.1 2-2 3.7-1 0.2 1 0.2 1.7-0.1 2.6-0.2 0.3-0.2 0.3-0.2 0.3-1 1.1-0.2 2.6-0.9 4.1z"/>
	<path id="Layer" class="s3" d="m37.5 76.2c-0.4-2.9-0.5-5.6-0.6-8.2 0-2.1-0.1-4.6 2-5.2 2.5-0.8 2.5 2.3 4 3.9 0.4 0.5 0.5 0.7 0.6 1.2-0.2 0.8-0.5 1.1-1.2 1.5-3.5 1.2-1.1 4.5-3 6.6-0.6 0.4-1.1 0.5-1.8 0.2z"/>
	<path id="Layer" class="s7" d="m43.2 68.2c-0.1-0.3-0.1-0.8-0.1-1 0.9-1.1 1.5-1.9 1-3.2-1-2.3 0.5-2.8 2.6-3-0.3 1.9 1.2 3.4 1.3 5.6-0.3 0.7-0.5 0.9-0.9 1.3-0.2 0.4-0.2 0.6-0.2 1 0 0.5 0 0.7 0.1 1.1 0.1 1.2 0.2 2 0.1 3.2-0.2 0.8-0.4 1.2-0.9 1.8-0.5 0.3-0.7 0.3-1.3 0.1-1.5-2.2-2.1-4.3-1.7-6.9z"/>
	<path id="Layer" class="s7" d="m57.8 78.7c-0.8-3.8-1.6-7.4-2.7-11.3 0.3-0.9 0.6-1.5 1-2.3 0.3-0.3 0.5-0.3 1.1 0 1.2 1.8 1.5 3.5 2 5.6 0.1 1.4 0.2 2.4 0.2 3.8-0.1 1.2-0.2 2-0.6 3.2-0.3 0.7-0.5 0.9-1 1z"/>
	<path id="Layer" class="s14" d="m37.1 76.2c0.4-0.4 0.7-0.4 1.2-0.3 1.3 0.3 1.4 1.2 1.2 2.5-0.4 0.6-0.6 0.8-1.3 0.8-1.3-0.8-1-1.8-1.1-3z"/>
	<path id="Layer" class="s5" d="m37.8 79.4c0.2-0.4 0.4-0.3 0.8-0.3 1.7 1.1 1.7 2.5 1.2 4.5-0.4 0.4-0.7 0.4-1.3 0.3-0.5-1.3-0.6-2.7-0.7-4.5z"/>
	<path id="Layer" class="s12" d="m63.6 31c0 0.9-0.5 1.6-1.8 1.9-0.1-0.5 0.1-1.1 0.6-1.8 0.5-0.2 0.7-0.2 1.2-0.1z"/>
	<path id="Layer" class="s7" d="m56.1 95c-0.1-0.7 0.1-1.3 0.5-2 0.4 0.4 0.4 0.8 0.4 1.7-0.2 0.3-0.4 0.3-0.9 0.3z"/>
	<path id="Layer" class="s19" d="m57.3 64.5c-0.3 0.5-0.7 0.4-1 0.4 0-0.6 0.2-1.1 0.6-1.8 0.2-0.2 0.2-0.1 0.2-0.1 0.2 0.2 0.3 0.6 0.2 1.5z"/>
	<path id="Layer" class="s16" d="m143.4 33.4c-1-0.3-1.8-0.4-2.9-0.6-3.3-2.4-3.3-6.1-4.7-9.2-2.3-5.3-5.4-10.2-7.2-16 0.3-0.6 0.4-0.8 1-0.9 1.4 0.2 2.5 0.3 4 0.4 1.4 0.8 2.6 0.2 4 0.6 10.3 2 19.9 5.2 29.3 9.8 0.3 0.6 0.5 0.9 1 1.2 0.2 0.1 0.3 0.1 0.3 0.1 1.6 2.4 2.8 4.8 3.6 7.8 0.2 0.3 0.2 0.4 0.2 0.4 1.2 3.4 3.7 6.4 1.6 10.5-3.4 1.3-6.2-0.4-9.5-0.5-2.2-0.4-3.9-0.7-6.1-1-0.7-0.1-0.9-0.1-1.5-0.2-4.6-0.6-8.7-1-13.1-2.4z"/>
	<path id="Layer" class="s17" d="m91.7 10.8c3.7-1.1 7.1-2 10.9-2.8 0.5 0.3 0.6 0.5 0.6 1.1-2.4 2.9-5.7 2.7-9 3.6-0.9 0.1-1.4 0-2.2-0.5-0.4-0.5-0.4-0.8-0.3-1.4z"/>
	<path id="Layer" class="s20" d="m103.2 9.3c-0.3-0.4-0.2-0.8-0.2-1 3.3-1.2 6.7-1.5 10.6-1.6 1-0.2 1.6-0.2 2.6-0.1 0.6 0.2 0.8 0.4 0.9 1-4.4 2.5-8.9 3-13.9 1.7z"/>
	<path id="Layer" class="s13" d="m172 26.5c-2-1.7-2.9-4.3-3.8-7.3 0.6-0.1 1.1 0.1 1.8 0.5 0.3 0.5 0.4 0.8 0.9 1.1 0.2 0.1 0.2 0.1 0.3 0.1 0.3 1.7 0.5 3.5 0.8 5.6z"/>
	<path id="Layer" class="s14" d="m116.8 7.3c-0.4-0.3-0.7-0.2-0.7-0.4-0.3-0.2-0.4-0.4-0.3-0.7 3.5-0.1 6.8-0.1 10.5-0.1 0.6 0.3 0.7 0.6 0.5 1.2-3.4 1.7-6.5 1.7-10 0z"/>
	<path id="Layer" class="s7" d="m137.7 7.6q-1.3 0.1-3.4-0.4 1.3-0.1 3.4 0.4z"/>
	<path id="Layer" class="s7" d="m127.5 7.1c-0.4-0.2-0.6-0.6-0.7-0.8 0.8-0.1 1.7 0 2.9 0.2 0.3 0.3 0 0.4-0.2 0.5-0.6 0.4-1.1 0.5-2 0.1z"/>
	<path id="Layer" class="s8" d="m91.6 10.6c0.3 0.1 0.4 0.3 0.4 0.9-0.2 0.7-0.6 0.9-1.5 0.8-0.4-0.2-0.5-0.4-0.8-0.8 0.4-0.4 1-0.6 1.9-0.9z"/>
	<path id="Layer" class="s7" d="m115.8 6c0.3 0 0.1 0.4 0.1 0.6-0.4 0.2-0.8 0.2-1.5 0.1 0.1-0.3 0.6-0.5 1.4-0.7z"/>
	<path id="Layer" class="s15" d="m171 20.7q-0.3 0.1-0.8-0.5 0.4-0.3 0.8 0.5z"/>
	<path id="Layer" class="s13" d="m168 18.5q-0.3 0.2-0.8-0.5 0.3-0.1 0.8 0.5z"/>
	<path id="Layer" class="s7" d="m78.9 117.8c1.1 2.3 3.3 3.2 4.9 4.9 0.5 0.6 0.5 1 0.1 1.5-0.2 0.2-0.7 0.3-0.9 0.3-0.3 0-0.7 0.2-0.4 0.2 0.7 0.4 1.1 0.8 1.5 1.6 5 6.3 7.9 13.1 7.2 20.9-0.3 3.4-0.7 7-4.8 8.9-0.5-0.1-0.7-0.3-1.1-0.7-0.6-1.7 0-3.1 0.4-4.6 1.6-6.5-2.3-16-8.2-19.3-2.8-1.7-5.9-1.8-8.1 0.9-1.6 2-3.4 4.5 0 7.1 1.4 1.3 1.5 3.1 2.7 4.6-0.2 1.1-0.7 1.5-1.8 2-1.8 0.4-3.4 0.9-5.2 0-0.8-0.7-1.3-1.1-2.1-1.7 1-1.7 0.3-3.3 0-4.9-0.8-3.6-0.9-7.3-0.1-10.8 1.3-5.7 4.6-8.3 11.2-9.1 1.2-0.1 2.1-0.2 3-1.2 0.6-0.5 1-0.6 1.7-0.6z"/>
	<path id="Layer" class="s13" d="m75.8 120.3c-12.1-0.2-13.2 11.2-11.4 19.8 0.3 1.4 2.9 3.4-1.1 4.1-2.7-7.8-3.7-15.5 1.5-23.1 3.6-3.3 7.1-3.3 11-0.8z"/>
	<path id="Layer" class="s0" d="m64.6 145.9c1.8-0.3 3.1-0.5 4.8-0.7 0.6 0.1 0.8 0.2 1.2 0.7 1 3.4-0.3 5.4-3.1 6.3-1.8 0.6-3 1.8-5.1 2.5-0.5 0-0.7 0-1.1 0-0.3 0-0.3 0.1-0.3 0.2-0.6-0.5-1.2-1.1-2-2-0.7-0.6-1.1-1.1-1.8-1.7-0.2-0.3-0.2-0.2-0.2-0.2-0.5-0.5-0.5-1.1-0.8-2 2.6-1.2 5.4-2.1 8.4-3.1z"/>
	<path id="Layer" class="s10" d="m76.2 120.8c-3.6-1.4-7-0.7-10.7 0 2.2-3.5 5.3-5.6 10.2-3 0.4 0 0.8-0.2 0.8-0.4 1.2-0.1 1 0.8 1.2 1.9 0.3 1.5-0.1 1.9-1.5 1.5z"/>
	<path id="Layer" class="s7" d="m56.1 149.1c0.5 0.2 1 0.7 1.3 1.6-0.7 0.2-1 0.2-1.4-0.1-0.1-0.5 0-0.8 0.1-1.5z"/>
	<path id="Layer" class="s6" d="m182 244.5c0-0.3 0.4-0.1 0.6-0.1 2.9 3.9 2 7.3-1 10.7-6.2 7.4-14.1 10.8-24.1 10-0.2-2.7-1.3-5.4 0.8-7.9 0.9-0.6 1.5-1 2.7-1 0.5 0.2 0.8 0.3 1.2 0.7 0.3 1 0.2 1.6-0.2 2.5-0.3 0.5-0.5 0.8-0.4 1 0.7-0.4 1.3-0.4 2.1-0.4 0.5 0.1 0.6 0.1 1.1 0.2 0.8 0.1 1.4 0.1 2.2-0.3 1.2-0.6 2.2-1 3.5-1.6 1.3-0.5 2.2-0.9 3.4-1.6 0.6-0.3 0.9-0.4 1.5-0.7 0.4-0.2 0.6-0.3 0.9-0.6 0.4-0.2 0.5-0.3 1.1-0.8 0.5-0.5 0.6-0.6 1-1.2 0.4-0.7 0.6-1 0.8-1.6 0.3-0.3 0.4-0.5 0.6-0.8 0.2-0.1 0.5-0.5 0.5-0.7-0.3-0.8-0.3-1.3-0.2-2.1 0.2-1.1 0.6-1.8 1.5-2.6 0.4-0.3 0.4-0.5 0.4-1.1z"/>
	<path id="Layer" class="s3" d="m221.2 138.9c-0.9-0.9-0.1-0.9 0.7-0.9 0 0.3-0.2 0.6-0.7 0.9z"/>
	<path id="Layer" class="s0" d="m162.4 257c-1.3 0-2.1 0-3.4-0.1-0.8-2 2-4.2-0.9-6.1-3 0.2-6.6 4.5-8.3-1.7-0.5-0.9 0.1-2-1.3-2.2-1 0-1.7-0.1-2.6-0.6-0.7-0.9-0.8-1.7-0.8-2.8 0.9-3.4 2-6.3 5.2-8.2 1.3-0.5 2.3-0.5 3.6-0.2 2.7 1.9 0.4 3.1-0.3 4.8-0.3 0.3-0.3 0.5-0.6 0.8-0.1 0.3-0.2 0.7-0.1 0.8 0.5 0.1 0.7 0 1.2-0.4 0.3-0.3 0.5-0.5 0.8-0.8 0.5-0.5 0.8-0.7 1.3-1.2 0.4-0.3 0.6-0.4 1.1-0.5 0.5 0 0.7 0 1 0.3 0.8 0.3 1.3 0.3 2.3 0.3 0.6 0.1 0.8 0.3 0.7 0.7-0.9 2.8-0.9 2.9 0.7 2.5 2.1-0.5 4.1-1 6.5-1.6 0.6 2.1 2.2 2.3 4.3 2.1 3.3 0 6 0.9 8.9 2.3-0.1 1-0.3 1.8-0.7 2.8-0.5 0.5-1 0.5-1.7 0.2-0.9-0.5-0.1-0.1-0.6-0.5-0.8-0.6-1.7-0.6-2.5-0.7 0.7 0.1 1.6 0.1 2.5 0.8 0.4 0.4 0.5 0.6 0.5 1.1-6.2 1.6-10.7 6.3-16.8 8.1z"/>
	<path id="Layer" class="s6" d="m149.9 248c0.9 4.9 4.7 2.4 7.6 2.9-2.1 2.8-4.6 5.4-8.8 5.8-1.3-2.5-0.1-4.7 0.4-7.6 0.2-0.8 0.4-0.9 0.8-1.1z"/>
	<path id="Layer" class="s17" d="m203.3 149.3c-0.6-1.5-0.2-2.5 1.1-3.4 3.6 1.8 7.1 1.1 11 0.9 0.4 0.1 0.5 0.3 0.6 0.8-1 1.1-2 2-3.3 3.1-3.3 0.6-6.4 1-9.4-1.4z"/>
	<path id="Layer" class="s6" d="m203 149.3c3 0.2 5.9 0.7 9.1 1.4-0.9 1.6-2.4 2.1-4.6 1.8-1.8-0.9-3.6-1.2-4.5-3.2z"/>
	<path id="Layer" class="s17" d="m216.4 146c0.2-0.6 0.3-2.4 1.6-0.3-0.4 0.3-0.8 0.3-1.6 0.3z"/>
	<path id="Layer" class="s29" d="m177 53.9c0.3-0.1 0.8 0 1 0.1 1.6 1.7 3.8 1.8 5.8 2.8 0.3 0.2 0.2 0.2 0.2 0.2 0.2 0.2 0.4 0.5 0.9 0.8 0.2 0.2 0.1 0.2 0.1 0.2 1.1 1.8 1.5 3.9 2.4 6.2 0.1 3.4 0.1 6.4 0.1 9.7-0.2 1.2-0.4 2-0.5 3.3-0.4 5-1.8 9.5-2.8 14.5-0.2 0.4-0.2 0.3-0.2 0.3-1.1 1.4-1.4 3.2-2.7 4.8-0.2 0.3-0.3 0.2-0.2 0.2-0.5 0.4-0.6 1-0.9 1.8-0.2 0.3-0.2 0.2-0.2 0.2-0.4 0.4-1 0.5-1.8 0.9-0.2 0.2-0.2 0.1-0.2 0.1-3.9 3.4-8.9 3.2-14 4-1.4 0-2.4 0-3.8 0.3-1.2 0.2-1.9 0.5-3 0.7-2.2 0.1-4.1-0.2-6.3 0.4-2 0.1-3.6 0.1-5.7 0.2-3.1 0.8-6 0-9.2 0.7-5.9 0.2-11.3 0.2-17.2 0.2-0.7 0-1 0-1.7 0-1.2-0.1-1.9-0.4-3.1-0.5-2.5 0.2-4.4-0.6-6.8-0.5-2.5-0.3-4.5-1.1-7-1.4-0.5 0-0.7-0.1-1.1-0.2-5.8-3.1-7.6-8.3-8.2-14.2-0.2-2.1-0.2-4.3-0.8-6.8-1.5-7-1.2-13.6-0.8-20.7-0.3-0.6-0.3-0.8 0-1.1 0.7-0.3 1-0.6 1.5-1.3 2.1-2.2 3.9-4 7.2-3.1 1.1 2 0.1 3.5-0.4 5-1.7 4.5-1.4 9.2-0.8 13.8 0.6 4.2 3.4 6.7 7.6 8.2 2.1 0.9 3.1 2.4 4.3 3.9 3.4 4.1 6.6 4.9 12 2.6 0.6-0.6 0.9-0.9 1.4-1.5 0.6-0.5 1-0.8 1.6-1.3 1.7-1 2.6-2.6 4.7-3 5.8-0.1 11.2-0.7 16.9-1.7 2-0.2 2.6 1 3.2 2.2 2.4 4.5 5.6 7.5 11 6.6 5.3-0.8 7.5-4.9 9.4-9.2 0.9-1.9 0.7-3.9 1.8-6 2-2.9 2.6-5.4-0.2-8.1-1.2-1.2-1.7-2.4-2.7-3.7-0.7-1.1-1-1.9-1.6-3-0.4-0.9-0.6-1.6-0.3-2.6 2.6-1.6 5.6-1.6 7.7-4.2 1.1-0.7 2.1-0.7 3.4-0.8z"/>
	<path id="Layer" class="s30" d="m174 54.5c-0.6 4.7-4.2 4.1-7.7 4.5-1.3 0.9-2.3 0.7-3.7 0.4-6-1.6-9.8 0.1-12.8 5.1-3.3 5.5-3.4 11.6-3.3 18-0.6 1.2-1.3 2.1-2.3 2.1-5.3 0-10.6 2.1-16.3 0.5-1.2-2.6 0.3-4.5 0.5-6.6 0.4-3.8 0.5-7.6-1.1-11.6-0.6-1.5-1-2.8-2.2-3.9-0.6-0.5-0.9-0.8-1.5-1.3-0.5-0.5-0.8-0.8-1.3-1.4-1.6-1.8-3.4-2.1-5.7-1.9-6.9 2.5-10.8 7.8-11.2 14.6-0.2 3.8 0.5 7.6 0.1 11.7-6.7-0.9-10-4.2-10.5-10.4-0.4-5.9-0.3-11.6 2.8-17.2 2-3.6 5.5-3.5 9.1-4.1 0.7-0.2 1-0.5 1.6-0.9 1.9-0.1 3.6 0.1 5.6-0.5 1.4-0.1 2.4-0.1 3.9-0.2 2.2-0.7 4.2-0.1 6.5-0.8 8.9-0.1 17.3-0.1 26.2-0.1 2.6 0.6 4.9 0.4 7.6 0.7 2 0.5 3.6 0.2 5.7 0.3 2.6 0.7 5 0.3 7.5 1.5 1.1 0.2 1.8 0.6 2.5 1.5z"/>
	<path id="Layer" class="s7" d="m162.3 35.7c3.4 0.6 6.6 1 10.2 1.4 1.2 0.5 2.1-0.1 3.1 0.5 4.9 1.4 9.6 2.4 13.1 6.4-11-5.1-23-6-35.3-6.9-21.7-2-42.5-0.4-62.9 7.9-0.8 0.3-1.2 0.2-1.5-0.5 11.4-6.8 24-7.9 36.6-9.4 5.4-0.6 10.9-0.5 16.8-0.7 4.8-1 9.2 0.5 14 0.4 0.4 0.2 0.4 0.3 0.5 0.3 1.6 0.9 3.4 0.2 5.4 0.6z"/>
	<path id="Layer" class="s7" d="m124.8 115.3c11.3 5.2 22.1 5 32.9-1.8-2.9 11.1-21.3 12.6-32.5 2.8-0.3-0.5-0.4-0.6-0.4-1z"/>
	<path id="Layer" class="s26" d="m90.5 82.8c0.7 3.2 1.2 6.3 1.6 9.4 0.6 4.7 3.1 8.1 6.7 11.3-5-0.6-6.7-4.5-7.7-8.6-1-3.7-1.4-7.4-1.9-11.5 0.3-0.8 0.6-0.9 1.3-0.6z"/>
	<path id="Layer" class="s7" d="m90.7 82.5c0 0.5-0.5 0.4-0.5 0.4 0 0-0.5 0-0.7 0.1-1.1-6.8-1.4-13.5-0.4-20.7 2.1 2 0.7 4.9 0.9 7.5 0.3 4.1 0.5 8.2 0.7 12.7z"/>
	<path id="Layer" class="s26" d="m107.1 52.8c-2.8 1.4-5.8 2.5-9.1 3.8-2.8 0.1-4.7 1.4-6.7 3.3-0.4 0-0.6-0.3-0.6-0.9 4.4-5.2 10.4-5.6 16.4-6.2z"/>
	<path id="Layer" class="s1" d="m152.2 51c-9.2 0.3-18.3 0.3-27.8 0.3-0.5-0.2-0.6-0.4-0.5-0.9 7.8-0.4 15.5-0.5 23.6-0.6 1.5 0 2.6 0.1 4 0.3 0.6 0.2 0.7 0.4 0.7 0.9z"/>
	<path id="Layer" class="s26" d="m88.7 44.1c0.6 0.2 0.8 0.5 1.2 0.9-0.6 0.8-1.5 1.6-2.6 2.6-0.4 0.5-0.7 0.8-1.1 1.2-0.2 0.2-0.2 0.2-0.2 0.2-0.2 0.2-0.4 0.4-0.9 0.8-0.1 0.2-0.1 0.2-0.1 0.2-1.2 0.1-1.6 1.2-2.6 2-0.7 0.1-0.9-0.1-1.2-0.7 1.6-3.4 4.4-5.2 7.5-7.2z"/>
	<path id="Layer" class="s1" d="m116.7 106.1c6.3-0.2 12.4-0.3 18.9-0.3 1.2-0.3 1.9-0.3 2.4 0.7-6.7 0.4-13.4 0.5-20.5 0.4-0.7-0.2-0.8-0.4-0.8-0.8z"/>
	<path id="Layer" class="s25" d="m138.3 107c-0.8-0.4-1.3-0.7-2-1.1 2.3-1.5 5.1-0.7 8.3-0.9 0.6 0.3 0.7 0.6 0.7 1.2-2.4 0.5-4.5 0.7-7 0.8z"/>
	<path id="Layer" class="s25" d="m125.1 114.7c-0.1 0.4 0 0.8-0.1 1-1.5-0.7-1.3 2.8-2.7 1.5-0.8-0.9-0.3-2.1 0.5-3.1 0.9-1 1.7-1.9 2.9-0.5 0 0.1-0.1 0.3-0.2 0.4-0.1 0.2-0.2 0.3-0.4 0.7z"/>
	<path id="Layer" class="s25" d="m123.7 50.1c0.3 0.2 0.3 0.4 0.3 0.9-1.8 0.6-3.5 0.8-5.6 0.9-0.6-0.2-0.8-0.4-0.7-0.9 1.9-1.3 3.8-1 6-0.9z"/>
	<path id="Layer" class="s25" d="m151.1 105.1c1.4-1.5 3.3-1 5.6-1.1 0.9 0.5 1.5 0.5 2.3 0.9 0.1 0.2 0 0.7 0 0.9-1.7 0.3-3.5 0.4-5.6 0.3-0.9-0.6-1.6-0.6-2.3-1z"/>
	<path id="Layer" class="s7" d="m105.8 105c2.6-0.1 4.9 0 7.7 0.3 0.5 0.6 0.4 0.9-0.2 1.3-2.5 1.1-4.3-0.9-6.9-0.7-0.5-0.2-0.6-0.4-0.6-0.9z"/>
	<path id="Layer" class="s26" d="m105.7 104.6c0.3 0.3 0.3 0.5 0.3 1-2 0.6-3.8-0.5-6-1.1 1.8-1.7 3.6-0.3 5.7 0.1z"/>
	<path id="Layer" class="s26" d="m158.3 111.7c4-0.5 2.5 2.3 2.3 4.4-0.7-1.3-1.4-2.7-2.3-4.4z"/>
	<path id="Layer" class="s25" d="m114 51.9c-1.5 1.1-3.2 1.5-5.2 0.4 1.1-0.7 2.3-1 3.9-1.2 0.7 0.2 0.9 0.4 1.3 0.8z"/>
	<path id="Layer" class="s1" d="m150.5 104.8c1 0.2 1.6 0.4 2.3 0.9-2.2 0.4-4.5 0.6-7.3 0.8-0.4-0.2-0.4-0.4-0.5-1.1 1.7-0.4 3.4-0.5 5.5-0.6z"/>
	<path id="Layer" class="s1" d="m113.4 106.8c-0.1-0.4 0.1-0.7 0.4-1.2 0.7-0.1 1.2 0 2 0.6-0.5 0.6-1.3 0.6-2.4 0.6z"/>
	<path id="Layer" class="s9" d="m143.2 125.6c0.8-0.7 1.9-0.8 2.9-0.1-0.9 0.7-1.8 0.4-2.9 0.1z"/>
	<path id="Layer" class="s1" d="m114.5 52.1c-0.7-0.1-1-0.3-1.3-0.7 1.2-0.4 2.6-0.5 4.3-0.7 0.5 0.2 0.5 0.4 0.5 0.9-1 0.3-2.1 0.4-3.5 0.5z"/>
	<path id="Layer" class="s7" d="m90.6 58.8c0.3 0.1 0.3 0.3 0.4 0.9-0.2 0.7-0.5 1.1-1.2 1.3-0.1-0.6 0.2-1.3 0.8-2.2z"/>
	<path id="Layer" class="s11" d="m86.2 48.9q-0.1-0.4 0.6-1 0.1 0.4-0.6 1z"/>
	<path id="Layer" class="s11" d="m85.3 50q-0.2-0.5 0.4-1 0.2 0.4-0.4 1z"/>
	<path id="Layer" class="s7" d="m116.2 106.8c-0.2-0.1-0.2-0.4-0.2-0.6 0.1-0.2 0.3-0.3 0.7-0.3 0.3 0 0.3 0.4 0.3 0.7-0.2 0.3-0.3 0.3-0.8 0.2z"/>
	<path id="Layer" class="s26" d="m162.9 103.5c5.1-0.5 10-1.1 14.8-3.5-3.2 5.1-9 3.8-14.3 4.9-0.6-0.1-0.7-0.3-0.9-0.6 0-0.4 0.1-0.6 0.4-0.8z"/>
	<path id="Layer" class="s7" d="m184.4 91.9c0.3-4.6 1-9.3 1.8-14.5 0.3-0.7 0.7-0.9 1.4-0.6 0.2 0.7 0.2 1.1 0.1 1.8-0.2 0.6-0.2 0.8-0.4 1.3 0 4.4-1.5 8.1-2.9 12z"/>
	<path id="Layer" class="s25" d="m172.3 53.7c-2.4-0.2-4.6-0.5-7-1.1-0.5-0.4-0.6-0.6-0.6-1.2 3.2-0.6 6 0.4 9.2 1.2 0 0.9-0.6 1.1-1.6 1.1z"/>
	<path id="Layer" class="s25" d="m152.3 51.5c-0.3-0.4-0.3-0.6-0.4-1.1 2.2-0.2 4.3-0.2 6.8 0 0.5 0.4 0.6 0.6 0.6 1.1-2.4 0.3-4.5 0.3-7 0z"/>
	<path id="Layer" class="s1" d="m186.9 75.3c-0.3-3.5-0.2-7 0-10.8 0.1-0.6 0.3-0.7 0.7-0.7 0.3 3.6 0.4 6.9 0.4 10.7-0.3 0.6-0.5 0.7-1.1 0.8z"/>
	<path id="Layer" class="s26" d="m187.9 63.7c-0.2 0.3-0.4 0.3-0.8 0.3-0.9-1.8-1.6-3.6-2.2-5.7 2.4 0.7 2.6 3 3 5.4z"/>
	<path id="Layer" class="s26" d="m183.9 56.6c-2.2 0.7-4-0.1-5.6-2.1 2-0.1 3.8 0.7 5.6 2.1z"/>
	<path id="Layer" class="s26" d="m181.4 97.2c-0.4-2.2 1-3.6 2.3-5.1 0.7 2.2-0.7 3.7-2.3 5.1z"/>
	<path id="Layer" class="s26" d="m172.3 53.9c0.2-0.4 0.8-0.6 1.6-1 1.2 0.1 2 0.3 3.2 0.7-0.3 1.2-1.2 1.3-2.5 1.2-0.9-0.3-1.5-0.5-2.3-0.9z"/>
	<path id="Layer" class="s1" d="m162.7 103.8c0.3 0.3 0.3 0.7 0.3 0.9-1 0.3-2.1 0.4-3.5 0.5-0.9-0.2-1.5-0.4-2.3-0.9 0.6-0.2 1.4-0.3 2.5-0.4 1.1-0.5 1.9-0.4 3-0.1z"/>
	<path id="Layer" class="s1" d="m159.5 51.9c-0.4-0.3-0.4-0.5-0.4-1 1.6-0.2 3.3 0 5.4 0.1 0.5 0.3 0.5 0.5 0.5 1.1-1.7 0.2-3.4 0-5.5-0.2z"/>
	<path id="Layer" class="s25" d="m186.3 75.4c0.4-0.2 0.7-0.3 1.3-0.4 0.4 0.4 0.4 0.9 0.3 1.7-0.4 0.4-0.8 0.3-1.4 0.3-0.3-0.5-0.3-0.9-0.2-1.6z"/>
	<path id="Layer" class="s8" d="m176.7 117c-0.1 0.4-0.5 0.7-1.3 1.1-0.3 0-0.4-0.1-0.4-0.1 0.4-0.4 0.9-0.7 1.7-1z"/>
	<path id="Layer" class="s6" d="m178.7 116q-0.2 0.5-1.3 1c-0.3 0-0.4 0-0.4 0 0.5-0.4 0.9-0.7 1.7-1z"/>
	<path id="Layer" class="s26" d="m180.4 98.9c-0.9-0.6-0.5-1.2 0.3-1.8 1.3 0.7 0.3 1.1-0.3 1.8z"/>
	<path id="Layer" class="s26" d="m178.3 100.3c-0.2-1 0.4-1.4 1.4-1.4-0.1 0.7-0.6 1.2-1.4 1.4z"/>
	<path id="Layer" class="s25" d="m187.4 80.1q-0.5-0.3 0-1 0.3 0.2 0 1z"/>
	<path id="Layer" class="s26" d="m185 57.7c-0.3 0.1-0.7 0-1-0.4 0.4-0.2 0.7-0.1 1 0.4z"/>
	<path id="Layer" class="s6" d="m179 116c0.1 0 0.2-0.1 0.1-0.1-0.1 0.1-0.1 0.1-0.1 0.1z"/>
	<path id="Layer" class="s23" d="m86 156.4c6.3-6.5 4.4-16.6 0.5-24.2-1-1.9-2.2-3.7-3.4-5.9-0.3-0.5-0.4-0.7-0.3-1.2 0.6-0.5 1.1-0.6 2-0.4 0.3 0.2 0.3 0.2 0.4 0.2-1.1 2.3 1.4 1.9 2.4 3 0.6 0.3 0.8 0.5 1.3 1 0.2 0.1 0.1 0.1 0.1 0.1 0.7 4 3.6 7.3 4 11.5 0.9 8.3-1.3 15.5-6.8 21.6-1.4 1.7-3.1 3.4-1.6 5.7 1.3 2.1 3.5 1.3 5.5 1.2 4.4-0.2 8-2.9 12.5-4-0.2 1.8-2 2.4-3.4 3.7 1.1 0.2 2.4 0.1 4.1 0.1 1.2 0.3 1 0.9 0.2 1.8-4.7 1.1-9 1.6-13.1 2.6-3.7 1-7.2 1-9.4-2.1-2.2-3-1.3-6.7 0.4-9.9 0.2-0.4 0.4-0.9 0.7-1.7 1.3-1.2 2.5-2 3.9-3.1z"/>
	<path id="Layer" class="s23" d="m127.2 156.8c6.8-4.6 14.3-6.3 22.9-2.9 1 0.3 1.3 0.7 1 1.7-8-0.1-15.8-0.2-23.9 1.2z"/>
	<path id="Layer" class="s31" d="m143.9 180.8c-4.2 3.9-9.7 1.7-14.6 2.8-3.8 0.9-7.9 0.2-12.2-0.1-0.2-0.5 0-0.7 0.5-1.2 2.5-1.3 4.8-1.8 7.1-1.7 5.8 0.2 11.6-0.6 17.8-0.7 0.6 0.3 0.9 0.4 1.4 0.9z"/>
	<path id="Layer" class="s23" d="m107.6 170.5c-3.2 5-8.2 6.5-13.8 6.8 3-1.9 6-3.8 9.1-6 0.1-0.3 0.1-0.3 0.1-0.3 0.6-0.5 1.4-0.9 2.4-1.4 0.9 0 1.5 0.3 2.2 0.9z"/>
	<path id="Layer" class="s31" d="m125.1 160.6c5.8-0.7 11.6-1.1 17.4-1.4 1.8-0.1 3.7-0.3 5.6 1.1 0.2 0.5 0.1 0.8-0.4 1.3-2.5 1.2-4.8 0.7-7.4 0.8-4.6-0.2-8.7 0.9-13.3 0.6-1.2-0.5-1.8-1.1-1.9-2.4z"/>
	<path id="Layer" class="s1" d="m151.2 156.2c-0.4-0.6-0.5-1.1-0.6-1.9 0.4-2.9 2.1-3.8 5-3.3 0.4 0 0.4 0 0.4 0 0.2 0.2 0.4 0.5 0.8 0.9 0.2 0.1 0.2 0.1 0.2 0.1-0.1 1.8 0.4 3.8-1.9 5.2-1.5-0.2-2.5-0.5-3.9-1z"/>
	<path id="Layer" class="s15" d="m124.7 160.1c0.7 0.5 0.9 0.9 1.3 1.5-2.6 2.4-6 3-9.6 4-0.7-0.2-0.9-0.3-1.2-0.8 1.9-1.9 3.9-3.3 6.1-4.9 1.2 0 2.1 0.1 3.4 0.2z"/>
	<path id="Layer" class="s31" d="m114.1 181c-3.9-1.7-3.8-4.9-3.1-8.6 0.2-0.5 0.4-0.6 0.9-0.6 1.5 1.4 1.2 3.1 1.8 4.9 0.4 1.2 0.7 2 0.9 3.2-0.1 0.5-0.2 0.7-0.5 1.1z"/>
	<path id="Layer" class="s15" d="m112.6 171.9c-0.5 0.1-0.7 0.1-1.3 0.1 0-1.4 0.3-2.8 0.6-4.5 0.4-0.8 0.8-1.2 1.5-1.7 0.5 0 0.7 0.1 1.1 0.5 0.3 2.3 0 4.1-1.9 5.6z"/>
	<path id="Layer" class="s31" d="m150 162.8c2.7 2.1 2 4.5 0.1 6.8-1.6-1.7-1.5-3.5-1-5.7 0.3-0.6 0.4-0.8 0.9-1.1z"/>
	<path id="Layer" class="s31" d="m147.5 174.2c0.5 0.5 0.3 1-0.3 1.5-0.6-0.6-0.6-1.1 0.3-1.5z"/>
	<path id="Layer" class="s31" d="m145.9 178c0.1 0.7-0.1 1.2-0.8 1.7-0.6-0.5-0.6-0.9-0.2-1.5 0.4-0.3 0.6-0.4 1-0.2z"/>
	<path id="Layer" class="s31" d="m116.8 183.2c-0.5-0.2-1.1-0.4-1.5-1.1q1.3-0.9 1.8 0.6c-0.1 0.3-0.2 0.4-0.3 0.5z"/>
	<path id="Layer" class="s31" d="m147.1 176.1c-0.1 0.6-0.3 1.2-0.7 1.9-0.2 0.2-0.3 0.1-0.3 0-0.7-0.7-0.6-1.4 0.5-2 0.4 0 0.5 0.1 0.5 0.1z"/>
	<path id="Layer" class="s10" d="m109.4 168.3c-0.2 0.6-0.5 1-1.3 1.4-0.6-0.6-0.7-1-0.4-1.7 0.4-0.3 0.6-0.3 1.1-0.2 0.2 0.2 0.5 0.4 0.6 0.5z"/>
	<path id="Layer" class="s21" d="m155.2 164.3c0.7 0.2 0.9 0.7 0.2 1.5-0.2-0.2-0.2-0.7-0.2-1.5z"/>
	<path id="Layer" class="s10" d="m107.9 170.6c-0.6 0.1-1 0-1.6-0.3 0.3-0.6 0.7-0.7 1.5-0.5 0.2 0.2 0.2 0.2 0.2 0.2 0 0-0.1 0.4-0.1 0.6z"/>
	<path id="Layer" class="s31" d="m150.1 170.1c-0.1 0.6-0.3 1.1-1 1.6-0.6-0.8-0.5-1.4 0.6-1.8 0.3 0.1 0.4 0.2 0.4 0.2z"/>
	<path id="Layer" class="s31" d="m149.1 172.1c-0.1 0.6-0.3 1.1-0.7 1.9-0.2 0.1-0.3 0.1-0.3 0-0.7-0.7-0.6-1.4 0.5-2 0.4 0 0.5 0.1 0.5 0.1z"/>
	<path id="Layer" class="s31" d="m145.1 180.1c-0.1 0.3-0.2 0.6-0.7 0.9-0.2 0.1-0.3 0.1-0.4 0-0.2-0.5-0.1-0.8 0.7-1.1 0.3 0.1 0.4 0.2 0.4 0.2z"/>
	<path id="Layer" class="s31" d="m114.9 182.1c-0.3-0.1-0.6-0.2-1-0.7-0.1-0.2 0-0.3 0.1-0.4 0.5-0.2 0.9 0 1.1 0.7-0.1 0.3-0.2 0.3-0.2 0.4z"/>
	<path id="Layer" class="s31" d="m148.3 160.7c0.4 0 0.7 0.2 1.1 0.7 0.1 0.4 0.1 0.6-0.2 0.9-0.8 0-1.1-0.2-1.3-0.9 0.1-0.3 0.3-0.6 0.4-0.7z"/>
	<path id="Layer" class="s31" d="m149.4 161.7c0.4 0 0.6 0.3 0.9 0.7 0.1 0.2-0.1 0.4-0.3 0.5-0.5 0.3-0.9 0.2-1.1-0.5 0-0.3 0.3-0.6 0.5-0.7z"/>
	<path id="Layer" class="s1" d="m109.8 157.2c0.3-1.8-0.8-4.1 2-4.7 2.1 0.1 3.9 0.4 4.3 2.7 0.2 1.4 0 2.8-1.3 3.5-1.9 0.9-3.5 0.6-5-1.5z"/>
	<path id="Layer" class="s2" d="m107.9 169.7c-0.3 0.3-0.7 0.2-1.4 0.3-1.1 0.4-2 0.7-3.2 1-0.1-0.5 0.2-1.1 0.4-1.9 0-0.3 0.1-0.4 0.1-0.3 0.4-0.1 0.7-0.2 1-0.7 0.7-0.5 1.1-0.8 1.8-1.1 0.7 0 1 0.2 1.3 0.8 0 0.7-0.1 1.2 0 1.9z"/>
	<path id="Layer" class="s23" d="m108.3 168.1c-0.6-0.2-0.9-0.4-1.3-0.9 0.7-1.6 1.9-2.3 3.5-2.7 0.7 1.5-0.9 2-1.4 3.2-0.2 0.3-0.4 0.4-0.8 0.4z"/>
	<path id="Layer" class="s12" d="m106 160q-0.2 0.6-0.4 1.3c-0.7-0.3-0.3-0.7 0.2-1.2 0.2-0.1 0.2-0.1 0.2-0.1z"/>
	<path id="Layer" class="s15" d="m113.9 165.9c0.1-0.6 0.5-0.9 1.1-1.4 0.4 0 0.6 0.1 1 0.5 0.2 1-0.3 1.4-1.2 1.5-0.4-0.1-0.6-0.3-0.9-0.6z"/>
	<path id="Layer" class="s23" d="m104.7 167.9q0.1 0.4-0.6 0.8-0.1-0.3 0.6-0.8z"/>
	<path id="Layer" class="s23" d="m103 165c0.1 0 0-0.9 0.2 0-0.2 0-0.2 0-0.2 0z"/>
	<path id="Layer" class="s12" d="m95 158c-0.1 0-0.1 0.8-0.2 0 0.2 0 0.2 0 0.2 0z"/>
	<path id="Layer" class="s12" d="m93 164c-0.1 0-0.2 0.1-0.1 0.1 0.1-0.1 0.1-0.1 0.1-0.1z"/>
	<path id="Layer" class="s7" d="m80.9 51.2c0.5 0.1 0.7 0.3 1.1 0.7-2.4 4.9-4 9.9-4.1 15.6-0.6 1.6-0.3 2.7-0.4 4.2 0.2 12.8 1.5 25.1 4.4 37.3 0.6 3 1.8 6.3-2.3 8.4 2-4.4 0.4-8.6-1-13.1-1.9-1.2-2.1-2.9-2.2-4.5-0.2-5.1-2.2-10-0.8-15.6 0.3-3 0.2-5.7 0.1-8.9 0-7.6-1.3-14.9 3.1-21.7 0.9-0.9 1.4-1.6 2.1-2.4z"/>
	<path id="Layer" class="s25" d="m77.7 71.7c-0.9-0.8-0.8-2-0.1-3.5 0.2 0.9 0.3 2 0.1 3.5z"/>
	<path id="Layer" class="s26" d="m85.3 124.7c-0.7 0.3-1.1 0.3-1.9 0.2-0.5-0.3-0.7-0.4-0.7-0.7 0.6-0.3 0.9-0.5 1.2-1 0.6 0.3 1.2 0.7 1.4 1.5z"/>
	<path id="Layer" class="s1" d="m77.9 119.3c-0.7-0.2-1.3-0.8-1.6-1.7 0.9-0.4 1.5-0.5 2.6-0.4 0.5 0.1 0.6 0.5 0.4 0.6-0.5 0.5-0.9 0.9-1.4 1.5z"/>
	<path id="Layer" class="s5" d="m198.2 143.3c0.9-2.3 3.6-0.4 4.8-2.7 0.9-0.9 1.7-1.6 2.8-2.4 0.6-0.5 1-0.7 1.8-0.4 0 1.1-0.2 1.8-0.5 2.9-0.3 0.5-0.4 0.6-0.8 1.1-2.4 2.1-4.8 3.6-8.1 1.5z"/>
	<path id="Layer" class="s26" d="m207.4 144.1c-0.4-0.1-0.4-0.5-0.4-0.8 1.3-0.6 2.7-1.3 4.2-0.4-0.9 1.4-2.3 0.9-3.8 1.2z"/>
	<path id="Layer" class="s17" d="m207.9 137.7c-0.5 0.4-0.9 0.3-1.5 0.3-0.3-1.1-0.1-2.8 0.9-2.8 1.3-0.1 0.4 1.4 0.6 2.5z"/>
	<path id="Layer" class="s7" d="m199.6 128.1c0.2-0.7 0.4-1.1 1-1.4 1.1 1.5 0.3 2.2-0.7 2.5-0.6 0.2-0.4-0.5-0.3-1.1z"/>
	<path id="Layer" class="s7" d="m219.7 142.3c0 0.4-0.1 0.7-0.3 0.9 0-0.4 0.1-0.7 0.3-0.9z"/>
	<path id="Layer" class="s26" d="m206.2 142.1c0-0.4 0.1-0.7 0.5-1.1 0.3 0.2 0.2 0.4 0 0.8-0.2 0.3-0.4 0.3-0.5 0.3z"/>
	<path id="Layer" class="s10" d="m107.2 154.8c-0.1-0.4-0.1-1.1 0-1.7 0.2 0.1 0.6 0.2 0.6 0.2-0.1 0.4-0.2 0.9-0.6 1.5z"/>
	<path id="Layer" class="s10" d="m107 155c-0.2 0.5-0.3 1.1-0.7 1.8-0.3 0.2-0.3 0.2-0.3 0.2 0.2-0.6 0.3-1.1 0.8-1.8 0.2-0.2 0.2-0.2 0.2-0.2z"/>
	<path id="Layer" class="s10" d="m157 151.8q-0.4 0.1-1-0.5 0.4-0.2 1 0.5z"/>
	<path id="Layer" class="s32" d="m155 208c-0.2-2.4 0.7-3.6 3.6-3.1 1.4 3.8 4.2 7.2 3.2 11.5-1.2 5.4-4.4 9.1-9.7 11.7-1.6 0.4-2.9 0.7-4.6 1-3.9-1-7.4-0.9-11.1 0.5-0.7-3.6 0-7.2-1.2-10.4-0.4-1.1 0-2 1.6-2.3 3.6 1.2 3.3 5.1 6 7 0.6 0.4 1 0.7 1.6 1 1.4 0.8 2.6 0.9 4.1 0.3 2-0.8 3.5-1.6 5.1-3.1 0.6-0.7 1-1.2 1.5-2 0.3-0.5 0.4-0.7 0.6-1.2 1.5-3 1.5-5.7 0.1-8.8-0.2-0.7-0.3-1.1-0.6-1.8-0.2-0.3-0.2-0.3-0.2-0.3z"/>
	<path id="Layer" class="s14" d="m151.3 235.8c-3 1.7-3.8 4.6-5.6 7.1-0.8-0.1-1.1-0.5-1.1-1.3 0.6-1.2 1-2 1.2-3.3 0.3-0.3 0.2-0.3 0.2-0.3 0.5-0.4 0.5-1.1 1.2-1.8 1.8-1.4 2.9-3.2 5.3-3.8 0.5-0.1 0.7-0.1 1.3 0.1 1 2.4-1.1 2.3-2.5 3.3z"/>
	<path id="Layer" class="s31" d="m145.2 240.7c-0.2 0.7-0.1 1.3 0 2 0.2 1.1 0.2 1.9 0.5 3 1.1 1 1.3 1.8 1.1 3.2-0.2 1.2-0.3 2-0.6 2.9-0.3 0.2-0.7 0.2-0.9 0.2 0-3.8-2.6-7.5-0.7-11.6 0.5-0.2 0.7-0.1 0.6 0.3z"/>
	<path id="Layer" class="s26" d="m145.2 240.7c-0.2 0.2-0.3-0.2-0.3-0.4 0.2-0.8 0.4-1.4 0.9-2.2 0.1 0.7-0.1 1.5-0.6 2.6z"/>
	<path id="Layer" class="s26" d="m147.1 236.1c0.1 0.5-0.2 1.1-0.8 1.8 0-0.5 0.2-1.1 0.8-1.8z"/>
	<path id="Layer" class="s1" d="m162.7 149c0.2 0.2 0.1 0.4-0.3 0.8-0.1-0.1 0-0.4 0.3-0.8z"/>
	<path id="Layer" class="s5" d="m86.1 232.5c-0.7-4.5 1.8-5.1 5-4.3 1.9 0.6 3.8 1.8 6 2.6 3.7 2.4 4.1 5.8 3.2 9.8-0.2 0.4-0.4 0.8-0.5 1-0.8 3.8-3 3.1-5.3 1.4 1 10.8-3.5 14.9-14.6 13.3 1.8-2 4.1-2.1 6.6-2.7 1.3-0.5 2.1-1.3 1.9-2.3-0.9-3.9-1.6-7.8-3.1-11.5-0.4-1-2-1.6-1-2.9 0.7-1 2-0.9 3.2-0.8 1.1 0.2 2.2 0.5 3.7 0.7 1-0.4 3 2.3 2.2-1.3-0.4-0.6-0.6-0.8-0.9-1.1-0.5-0.4-0.7-0.7-1.3-1.2-0.3-0.3-0.7-0.4-0.7-0.1 0 0.4 0 0.5-0.3 0.9-0.3 0.3-0.5 0.4-1.3 0.4-1.4-0.5-2.2-0.9-2.8-1.9z"/>
	<path id="Layer" class="s30" d="m66.4 246.2c0.5-0.7 1.2-1.3 2.1-2 4.5 1 9 1.5 13.3 3.8 2.1 1.6 4.8 1.8 5.5 4.8-1.5 2.1-3.4 2.2-5.1 1.7-5.2-1.5-10.8-2.1-14.9-6.9-0.4-0.6-0.5-0.9-0.9-1.4z"/>
	<path id="Layer" class="s25" d="m67.1 247.7c6 2.9 12 6.4 19.7 5.4 1.3-0.2 1.7 0.4 1.2 1.6-2.6 0.6-4.9 0.9-7.6 1.3-3.8-0.8-7.2-1.4-10.1-3.4-1.6-1.1-3.1-2.3-3.2-4.9z"/>
	<path id="Layer" class="s13" d="m175.9 37.4c-0.8 0.3-1.7 0.2-2.8-0.1 2.5-3.5-1.3-6.3-1.1-9.8 3.3 2.1 2.7 6.2 3.9 9.9z"/>
	<path id="Layer" class="s22" d="m155.1 222.1c-1.2 2.4-3.3 3-5.6 3.9-1.8 0.3-3.2 0.7-5 0.2-0.6-0.4-1-0.7-1.5-1.3-0.8-3.3 1.9-3.3 3.6-4.6 0.4-0.2 0.6-0.3 1.1-0.3 1.1 0 1.8-0.2 2.3-1.2-0.1-1.3-0.1-2.3-0.2-3.7-0.6-1-0.7-1.8-0.3-2.9 0.4-0.3 0.6-0.3 1.2-0.2 1 1.1 1.8 2.1 1.8 3.5 0 0.6-0.2 1.3 0.5 1.7-0.4-0.4-0.4-0.8 0.1-1.2 0.4 0 0.4 0 0.4 0 1.6 0.5 3.7 0.6 2.7 3.7-0.2 0.4-0.2 0.3-0.2 0.3-0.5 0.4-0.5 1.2-0.9 2.1z"/>
	<path id="Layer" class="s0" d="m149.5 211.6c0.2 1 0.2 1.7 0.2 2.8-1.7 1.7-3.2 3.1-5.4 0.8-1.4-1.4-1.8-3.2-0.8-4.3 1.7-2 3.9-0.9 6 0.7z"/>
	<path id="Layer" class="s25" d="m146.5 220c1 3.4-3.2 1.7-3.6 4.2-4.2-0.3-3.5-4.4-5.4-7.1-0.3-0.6-0.3-1-0.3-1.7 0.2-0.5 0.4-0.7 1-0.7 1 1.5 1.6 2.7 2.5 4.2 1.4 0.9 2.6 0.2 4.1 0.4 0.7 0.3 1.1 0.4 1.7 0.7z"/>
	<path id="Layer" class="s25" d="m156.3 219.9c0.4-1.9-1.2-2.4-2.6-3.6 4.4-1.9 1.1-4.7 1-7.5 0.3-0.3 0.5-0.3 1-0.1 1.7 3.7 3.6 7.2 0.6 11.2z"/>
	<path id="Layer" class="s22" d="m145 219.1c-1.1 1.5-2.4 2.5-3.9 0.3 1.1-1.4 2.3-3.5 3.9-0.3z"/>
	<path id="Layer" class="s7" d="m150.8 203.3c1.2 0.1 1.1 1.1 1.2 2.4-0.7 0.3-1.5 0.3-2.6 0.4-0.5 0.3-0.7 0.5-1 1.2-1-0.8-2.2-1.2-3.5-1.4 1.4-2.1 4.6 0.5 5.9-2.6z"/>
	<path id="Layer" class="s25" d="m153.4 215.6c-0.1 0.8-0.1 1.4-0.4 1.6-0.9 0.6-1-0.2-1.1-0.8-0.3-1.2-0.6-2.4-0.9-4 1.9-0.1 2 1.4 2.4 3.2z"/>
	<path id="Layer" class="s25" d="m149.7 218.6c0.7 0.2 1.6 0.4 1 1.1-0.5 0.8-1.3 1.2-2.5 0.5 0.2-0.6 0.7-1.1 1.5-1.6z"/>
	<path id="Layer" class="s26" d="m138.4 210c-0.4-0.5-0.4-0.9-0.4-1.7 0.3-0.4 0.7-0.5 1.3-0.7 0.3 0 0.8 0.1 0.8 0.3 0.1 1.3 0.1 2.2-1.7 2.1z"/>
	<path id="Layer" class="s26" d="m139.7 207.7c0.3-0.7 0.9-0.9 1.4-0.4 0.5 0.5-0.2 0.6-0.7 0.8-0.3 0.1-0.5-0.2-0.7-0.4z"/>
	<path id="Layer" class="s7" d="m138.5 214.7c-0.1 0.3-0.4 0.3-1 0.3-0.5-0.4-0.7-0.9-0.7-1.7 0.2-0.4 0.7-0.3 0.9-0.2 0.4 0.5 0.5 0.9 0.8 1.6z"/>
	<path id="Layer" class="s22" d="m148.4 207.7c-0.2-0.3-0.2-0.7 0.3-1.3 0.3 0.3 0.8 1.1-0.3 1.3z"/>
	<path id="Layer" class="s7" d="m151.8 206.3c0.5-0.1 0.8 0.1 1.2 0.6-0.4 0.2-0.8 0-1.2-0.6z"/>
	<path id="Layer" class="s21" d="m155.9 208.7c-0.2 0.1-0.4 0.1-0.9-0.1-0.2-0.2-0.1-0.4-0.1-0.5 0.5-0.1 0.7 0.1 1 0.6z"/>
	<path id="Layer" class="s1" d="m150.6 201.4c0.4 0.3 0.4 0.6 0.4 1.3-1.1 0.2-1-0.5-0.4-1.3z"/>
	<path id="Layer" class="s26" d="m100.4 240.8c-0.7-3.1-0.1-6.6-2.6-9.8-0.4-0.7-0.5-1.1-0.7-1.8 4.2 2.2 5.5 6.3 3.3 11.6z"/>
	<path id="Layer" class="s26" d="m94.9 226.7c-3.2-0.3-6.6-1-10.4-0.4 3.2-2.5 6.7-2.1 10.4 0.4z"/>
	<path id="Layer" class="s26" d="m96.8 228.3q-0.7 0-1.8-0.9c0.7-0.4 1.4-0.2 1.8 0.9z"/>
	<path id="Layer" class="s21" d="m90.3 219.2c-0.1-0.3 0.1-0.3 0.5-0.5 0.5-0.2 0.7-0.4 1.3-0.6 1.4-0.3 2.4-0.2 3.6 0.7-1.5 1.8-3.3 1.1-5.4 0.4z"/>
	<path id="Layer" class="s26" d="m96.3 219c-1.7 0-3-0.1-4.8-0.3 1.3-2.3 3.4-2.3 6.2-1.1 0.3 0.5 0.3 0.7 0.2 1.1-0.5 0.3-0.9 0.3-1.6 0.3z"/>
	<path id="Layer" class="s33" d="m180.7 128.9c3.8-1.1 4.4 3.2 7.2 3.7-0.2 0.5-0.3 1.5-0.7 1.6-4.6 1.7-7.3 5.5-10.1 9.2q-0.6-0.4-1.1-0.7c1.4-4.5 2.9-9.1 4.7-13.8z"/>
	<path id="Layer" class="s10" d="m188.2 149.3c1.7-2.2 3.5-4.2 5.7-6.4 0.9 0.7 1.5 1.6 2.1 2.7-2 2.5-3.7 5.4-7.8 3.7z"/>
	<path id="Layer" class="s5" d="m98 218c-2 0-4.1 0.1-6.6 0.4-0.3 0.2-0.3 0.3-0.3 0.2 0 0 0-0.1 0-0.1-0.3-0.8-1.1-1-2-1.6-1-1.3-1.8-2.2-2.8-3.3 0.2-2.7 0.4-2.8 4.8-2.2 1.6 0.3 2.9 0.7 4.5 1.1 1.1 0.2 1.8 0.3 2.9 0.6 0.7 0.4 1.1 0.7 1.6 1.4 0.4 1.7-0.6 2.4-1.9 3.3-0.3 0.2-0.2 0.2-0.2 0.2z"/>
	<path id="Layer" class="s6" d="m87 200.1c1 0.4 2.6-1 3.7 0.8 0.6 1.4 0.2 2.7-0.1 4.3-1.7 1.8-0.9 5.4-4.7 5.1-1.9-1.8-1.3-3.8-1.1-6.1 0.8-1.5 2.1-2.3 2.2-4.1z"/>
	<path id="Layer" class="s25" d="m86.2 209.7c2.9-0.3 0.8-3.6 3.4-4.3 1.1 0.5 1.3 1.3 1.4 2.5 0 0.9 0.1 1.4 0.7 2.1 0.3 0.4 0.4 0.6 0.7 1 0.2 0.7 0.1 1.1-0.3 1.7-2.1 0.3-4-1.9-6 0.3-0.2 0.3-0.4 0.1-0.9-0.1-0.9-1.4-0.9-2.5 1-3.2z"/>
	<path id="Layer" class="s26" d="m86.4 209.6c-1 0.5-1.4 1.3-1.5 2.8-2.1-2.3-0.9-5.2-0.3-8.3 1.3 1.4-0.2 3.6 1.8 5.5z"/>
	<path id="Layer" class="s25" d="m89 216.9c0.7 0 1.4 0.4 2.1 1.2-0.7 0-1.4-0.4-2.1-1.2z"/>
	<path id="Layer" class="s26" d="m100.5 215.3c-0.5-0.6-0.8-0.8-1.3-1.1-0.6-0.5-0.8-1-0.8-1.9 1.8-3.3 1-7.6 5.1-9.5 0.5 0.3 0.7 0.6 1.1 1-0.8 3.7-1.8 7.3-3 11.2-0.5 0.4-0.7 0.5-1.1 0.3z"/>
	<path id="Layer" class="s25" d="m100.1 215.2c0.4-0.3 0.6-0.2 1-0.1-0.1 1.6-1 2.5-2.8 2.9 0.3-0.9 0.9-1.7 1.8-2.8z"/>
	<path id="Layer" class="s0" d="m91.1 183.6c4.4 0.6 8.8 1.4 13.5 2.4 0.8 3.2 0.1 5.7-3.4 5.8-7 0.3-10-2.1-10.1-8.2z"/>
	<path id="Layer" class="s8" d="m88.1 254.8c-0.5-0.4-0.5-0.9-0.8-1.7-1-2.5-3.8-1.7-5.3-3.6-0.2-0.5-0.1-0.7 0-1.1 0.5-1.3 0-1.7-1.1-2.2-0.9-0.4-1.4-0.7-2.2-1.2-0.5-0.2-0.6-0.4-1-0.7-0.3-0.4-0.4-0.6-0.6-1-0.4-0.7-0.6-1.2-0.9-2-2.2-2.6-3.2-4.9-0.3-7.7 2.4-0.4 4.8-0.4 7.7-0.5 1.9-0.2 3.3 0.3 5.1 0.7 0.3 0.3 0.3 0.2 0.3 0.2 0.3 0.3 0.6 0.4 1.3 0.4 0.5 0 0.7 0.1 1.1 0.3 0.4 0.3 0.5 0.4 0.9 0.8 0.2 0.5 0.3 0.6 0.3 1.1 0 0.5 0 0.7-0.3 1.2-2.6-0.1-4.9-0.4-7.7-0.7 4.4 4.3 6.3 13.6 3.5 17.7z"/>
	<path id="Layer" class="s8" d="m81.8 249.2c-4.3-1.5-8.5-3-12.9-4.8 0.3-0.4 0.9-0.4 1.8-0.4 1.3-0.7 2.3-1 3.9-1 1.3-0.1 2.1 0 3.1 0.8 0.3 0.2 0.3 0.2 0.3 0.2 0.3 0.3 0.7 0.5 1.3 0.9 1.6 1 3.5 1.2 3 3.8q-0.4 0.4-0.5 0.5z"/>
	<path id="Layer" class="s14" d="m75.3 243.6c-1.3 0.3-2.4 0.4-3.8 0.4 0-1.7 1.4-2 3.2-2.1 0.5 0.2 0.6 0.3 0.8 0.7 0 0.5 0 0.6-0.2 1z"/>
	<path id="Layer" class="s5" d="m75.3 243c-0.3-0.4-0.2-0.7-0.2-0.9 0.1-0.5 0.3-0.7 0.8-1 1.1 0 1.8 0.2 2.1 1.4-0.6 1.3-1.6 0.9-2.7 0.5z"/>
	<path id="Layer" class="s25" d="m89 233.7c-1.6 1.5-3 0.1-4.7-0.4-0.3-0.3-0.3-0.7-0.3-0.9 0.4-0.3 0.9-0.3 1.6-0.3 1.4 0.5 2.3 0.9 3.4 1.6z"/>
	<path id="Layer" class="s9" d="m89.9 209.3c-0.1-1.2-0.1-2.2 0-3.5 0.3-1.6 0.5-2.8 0.9-4.4 0.2-0.3 0.6-0.5 0.9-0.5 0.2 0.6 0.3 1.2 0.3 1.9 0.1 1.2-0.3 2.9 1.1 3.4 1.7 0.7 1.7-1.5 2.6-2.1 0.7-0.5 1.4-0.8 2.4-1.1 0.6-0.1 0.8-0.2 1.2 0 0.2 1 0.1 1.6-0.1 2.5-0.2 0.5-0.2 0.7-0.4 1.2-0.2 0.7-0.4 1.1-0.6 1.8-0.2 0.6-0.3 0.8-0.5 1.3-0.6 0.9-1.1 1.4-2 1.9-1.3 0.4-2.3 0.3-3.5-0.4-0.3-0.2-0.2-0.3-0.3-0.2-0.4-0.7-1.2-1-2-1.8z"/>
	<path id="Layer" class="s6" d="m97.9 206.8c0.2-0.3 0.1-0.3 0.1-0.3 0.1-0.4 0.3-0.8 0.7-1.5 0.9-1 0.7-2.1 1.2-3.2 0.1-0.3 0.1-0.3 0-0.3 0.7-0.1 1.3-0.2 2.2-0.4 0.8 0 1.2 0.2 1.7 0.7 0.1 0.3 0 0.7 0.1 0.9-3.4 2.1-1.6 6.6-4.5 9.2-2.4 0.3-2-1.2-2.2-2.7-0.2-0.3-0.2-0.7-0.2-0.9 0.3-0.5 0.5-0.9 0.9-1.5z"/>
	<path id="Layer" class="s14" d="m93.1 197.6c0.3-0.3 0.8-0.5 1.6-0.7 1 0.3 2.1 0.3 1.9 1.4-0.2 1.1-1.2 0.6-2.3 0.7-0.6-0.4-0.8-0.8-1.2-1.4z"/>
	<path id="Layer" class="s14" d="m99.7 201.6c0.9 1 0.5 2-0.3 3.2-0.4 0.1-0.6-0.2-0.6-0.9 0.2-0.4-0.1-0.7-0.2-0.8 0.2-0.6 0.4-0.9 1.1-1.5z"/>
	<path id="Layer" class="s9" d="m70.6 140c-3.7 1.7-5 0.8-4.5-2.7 0.5-3.5 1.7-6.9 5.4-8.2 3.6-1.1 6.5 0.3 9 2.9 7.6 7.6 9.1 14.3 4.9 22.9-1.8 1.2-3.3 2.3-5.2 1.8-1.5-0.4-1.1-1.2-0.2-2.7 1.6-3.4 1.9-6.2 0.3-9.4-0.2-0.5-0.4-0.6-0.7-1.1-0.4-0.6-0.6-0.9-1-1.5-0.4-0.3-0.5-0.5-0.9-0.8-2.2-1.3-4.2-1.6-7.1-1.2z"/>
	<path id="Layer" class="s17" d="m62.1 155c1.2-2 2.4-3.8 4.8-3.9 2.9-0.3 3.2-2.2 3.2-4.9 0.7-0.8 1.7-0.5 1.9-1.7-2.4-0.8-4-1.6-1.7-4.3-0.3-0.3-0.4-0.2-0.3-0.2 2.9-1.5 5.6-0.4 8.7 0.8 0.3 0.2 0.3 0.2 0.3 0.2 0.4 0.4 0.5 1 0.8 1.8 0.2 0.2 0.2 0.2 0.2 0.2 2.5 3.3 2.4 6.8 0.2 10.7-0.2 0.3-0.2 0.3-0.2 0.3-2.6-0.8-2.9-3.4-4-5.3-0.8-1.4-1.9-2.4-1.9 0.8-2.2 4.6-7.1 4.1-10.9 6.5-0.6-0.1-0.8-0.4-1.1-1z"/>
	<path id="Layer" class="s6" d="m161.4 240.1c-0.3 0.1-0.4-0.4-0.4-0.7 0.4-0.4 0.9-0.6 1.7-0.9 0.2 0.7-0.1 1.3-1.3 1.6z"/>
	<path id="Layer" class="s3" d="m158.7 238.9c-0.2 0.3-0.5 0.2-0.7 0.2-0.4-0.5-0.6-0.9-0.7-1.8 0.2-1.5 2.5-2 1.4-4.1 0.3-0.4 0.5-0.5 1.1-0.5 0.9 0.3 1.4 0.6 2.1 1-0.4 1.4-1 2.5-1.8 3.8-0.5 0.6-0.8 0.9-1.4 1.4z"/>
	<path id="Layer" class="s17" d="m147.1 249.2c-0.7-0.8-1-1.6-1.2-2.8 0.8-0.4 1.5-0.4 2.6-0.4 1.2 0.6 1 1.5 0.7 2.7-0.2 0.4-0.2 0.3-0.2 0.3-0.5 0.1-1 0.1-1.9 0.2z"/>
	<path id="Layer" class="s17" d="m159.2 232.8c-0.3 1.4 1 2.8-1.1 3.9-0.4 0.6-0.8 0.8-1.7 0.8-0.5-0.3-0.7-0.5-0.9-1-1.3-0.4-2.4-0.4-4-0.5-0.1-1.5 1.6-1.8 2.6-3.1 1.4-0.4 2.7-0.5 4.4-0.6 0.6 0.1 0.7 0.2 0.7 0.5z"/>
	<path id="Layer" class="s14" d="m159.3 233c-0.3 0-0.4-0.3-0.4-0.5 0.3-0.1 0.6-0.1 1.1 0.1 0 0.3-0.2 0.3-0.7 0.4z"/>
	<path id="Layer" class="s7" d="m104.1 201.9c-0.5 0-0.9-0.3-1.4-0.7 0.1-0.2 0.4-0.2 1.3-0.2 0.6 0 0.2 0.1 0.4 0.2 0 0.2-0.1 0.4-0.3 0.7z"/>
	<path id="Layer" class="s6" d="m104.5 201.2c0.1 0.1 0.1-0.1 0.1-0.1 0-0.1-0.1-0.1-0.1-0.1-0.1 0-0.1 0.2 0 0.2z"/>
	<path id="Layer" class="s10" d="m89 128.8q-0.3 0.1-1-0.5 0.3-0.1 1 0.5z"/>
	<path id="Layer" class="s25" d="m26.8 174.5c-0.3 0.3-0.6 0.4-1.4 0.4-0.5 0.1-0.4-0.4-0.3-0.7 0.7-0.1 1.3-0.7 1.7 0.3z"/>
	<path id="Layer" class="s25" d="m27.6 172.5c0 0.1-0.2 0.1-0.2 0.1 0 0 0.1-0.2 0.2-0.1z"/>
	<path id="Layer" class="s3" d="m36.4 177.4c0.1-0.1 0.1 0.2 0.1 0.2 0 0-0.2-0.1-0.1-0.2z"/>
	<path id="Layer" class="s26" d="m58.8 152c1 0.7 1.7 1.5 2.3 2.6-0.3 1-0.7 1.1-1.7 0.5-0.6-0.6-0.9-1.1-1.2-1.9 0-0.6 0.1-0.9 0.6-1.2z"/>
	<path id="Layer" class="s7" d="m58.9 151.5c0.1 0.7-0.1 1-0.6 1.3-0.6-0.3-1-0.8-1.4-1.6 0.9-1.3 1.3-0.3 2 0.3z"/>
	<path id="Layer" class="s2" d="m75.6 83.8c1.1 6.5 1.9 12.9 2.8 19.7-0.8 0.5-1.6 0.5-2.9 0.4-4.2-6.7-5.5-13.7-3.9-21.6 1.5 0.2 2.6 0.8 4 1.5z"/>
	<path id="Layer" class="s14" d="m63.7 65.1c0.7-0.2 1.2-0.2 2-0.2 0.7 0.2 1 0.5 1.6 1 0.5 1.5 0.8 2.9 1.1 4.7-0.1 3.1 0.4 5.7-0.4 8.8 0 2.2-0.7 3.8-2.7 4-2.2 0.1-2.8-1.8-3.1-3.3-0.6-3.1-1.8-6.1-0.6-9.7 0.6-1.1 0.9-1.9 1.3-3.1 0.1-0.9 0.2-1.5 0.8-2.2z"/>
	<path id="Layer" class="s2" d="m72.3 99.7c-3.5-1.9-6.2-4.6-8.2-8.6 2.2-3.6 1.8-7.2 3.5-10.6 0.2-0.5 0.4-0.6 0.9-0.7 0.4 0.2 0.9 0.2 1.1 0.2 0.4 0.2 0.6 0.4 1 1 0.2 6.4 1.8 12.3 1.7 18.7z"/>
	<path id="Layer" class="s31" d="m72.4 100.3c-1.2-6.3-2.5-12.3-2.3-18.9 0.2-0.6 0.4-0.8 0.8-0.7 0.6 0.4 0.8 0.6 1 1.1 0.1 7.4 1.2 14.4 3 21.7 0.1 1.1 0 1.9-0.1 2.9-2.3-1.7-1.5-4.1-2.4-6.1z"/>
	<path id="Layer" class="s21" d="m78.8 53.2c-2.4 6.7-3.1 13.7-3.1 21.2-1.2-6.8-1.7-14 1.9-21.1 0.5-0.2 0.7-0.2 1.2-0.1z"/>
	<path id="Layer" class="s13" d="m68.9 79.5c0 0.5-0.5 0.5-0.7 0.5-0.4-0.1-0.6-0.2-0.8-0.7 0.3-2.8 0.6-5.2 1.1-8 0.2 2.4 0.3 5.1 0.4 8.2z"/>
	<path id="Layer" class="s1" d="m71.2 80.5c-0.2 0.4-0.3 0.4-0.8 0.5-0.3-0.2-0.3-0.4-0.5-0.8 0-2.6 0.1-5 0.2-7.8 0.1-0.6 0.3-0.7 0.6-0.7 0.3 3 0.4 5.7 0.5 8.8z"/>
	<path id="Layer" class="s13" d="m71 71.6c-0.1 0.4-0.5 0.3-0.7 0.4-0.2-2.2-0.2-4.5-0.2-7.7 1.4 2.8 0.8 4.9 0.9 7.3z"/>
	<path id="Layer" class="s26" d="m65.1 58.7c-0.6-0.1-1.1-0.6-1.7-1.3 0.9-0.4 1.7-0.1 1.7 1.3z"/>
	<path id="Layer" class="s3" d="m67.5 65.6q-0.5 0.3-1.3-0.4c-0.2-0.3-0.2-0.8-0.2-1.1 0.5 0.3 0.9 0.8 1.5 1.5z"/>
	<path id="Layer" class="s26" d="m65.9 60.8c-0.8 0.1-1-0.5-1-1.5 1-0.3 1.1 0.4 1 1.5z"/>
	<path id="Layer" class="s27" d="m126.7 6.9c0.9 0 1.4 0 2.3 0.1 4.1 8.3 8.8 16.1 11.1 25.4-9 0.6-18.1 0-27.6 1.9-3.6-3.1-5.2-7.4-8-10.9-3.2-4-7.1-7.3-10.7-11.3 2.7-1.2 5.6-2 8.8-3 4.7-0.6 9-1.1 13.6-1.8 3.5-0.3 6.7-0.3 10.5-0.4z"/>
	<path id="Layer" class="s28" d="m78.8 19.3c2.1-3 5.4-3.8 8.6-5.4 4 0.6 6.3 3.4 8.7 5.8 4.4 4.6 8.7 9.3 11.1 15.5-3.2 1.3-6.1 2.7-9.8 2.7-8.8-3.7-13.6-11.1-18.6-18.6z"/>
	<path id="Layer" class="s34" d="m107.4 35.4c-5.8-7.7-11.5-15.3-19.4-21.3 0.5-0.7 1.1-1 2-1.6 0.6-0.3 1-0.4 1.8-0.6 0.7-0.1 1-0.1 1.6-0.2 8.9 5.2 14.5 12.9 18.6 22.2-1.3 0.8-2.8 1.1-4.6 1.5z"/>
	<path id="Layer" class="s35" d="m78.4 19c3.8 2.4 5.5 6.4 8.4 9.2 3.2 3.2 6.6 6.1 10.1 9.4-3.1 3-6.1 2.7-9-0.2-3.8-3.9-8.3-6.9-11.6-11.4-3.2-4.5-3.6-4.2 2.1-7z"/>
	<path id="Layer" class="s35" d="m83.3 44.9c-6.1-4.8-11.9-9.7-18-14.7 1.4-3.4 3.1-3.4 5.7-0.8 4 3.8 8.4 7.3 12.7 10.8 2 1.7 2.3 3.1-0.4 4.7z"/>
	<path id="Layer" class="s22" d="m156.5 34.8c-4.1 0.1-8.4 0-13.2-0.3-0.5-0.5-0.5-0.7-0.2-1.2 4.4-0.2 8.8 0.5 13.4 1.5z"/>
	<path id="Layer" class="s2" d="m58.3 74.9c-0.1-1.3-0.2-2.2-0.2-3.5 0.9-0.7 1.6-0.5 2.7 0.2 0.7 6.4 4.1 11.9 4 18.4-0.2 0.4-0.5 0.7-0.7 0.9-1.5-1.2-2.8-2.6-4.5-4-1.3-0.5-1.1-1.4-1.1-2.5 0-2 0-3.6 0-5.6 0-1.4 0.1-2.4-0.2-3.9z"/>
	<path id="Layer" class="s31" d="m58.7 83.7c0.4 1 0.5 1.7 0.6 2.7-0.6 2.3-1.2 4.2-2.1 6.4-0.5-2.6-0.1-5.3 0.7-8.4 0.3-0.6 0.4-0.7 0.8-0.7z"/>
	<path id="Layer" class="s31" d="m75.4 108.7c0.3 0.3 0.5 0.8 0 0z"/>
	<path id="Layer" class="s1" d="m61 96c0.1-0.2 0.3-1 0.3 0-0.2 0.1-0.3 0-0.3 0z"/>
	<path id="Layer" class="s26" d="m48.2 89c-0.3-0.7-0.3-1.4-0.3-2.5-0.2-0.6-0.3-0.8-0.7-1.4-0.8-2.6-0.7-4.9 0.1-7.5 0.5-0.8 1-1 2-0.8 0.7 2.7 0.8 5.3 0 8.3-0.3 1.6-0.5 2.7-1.1 3.9z"/>
	<path id="Layer" class="s7" d="m49.7 76.6c0 0.4-0.5 0.3-0.5 0.3 0 0-0.5 0.1-0.8 0.1-1.6-0.7-1.3-2.2-1.7-3.7-0.2-1.1-0.2-1.9-0.1-3 0.3-0.9 0.6-1.3 1.4-1.8 0.8 2.5 1.3 5.1 1.7 8.1z"/>
	<path id="Layer" class="s7" d="m59 83.6c0 0.4-0.5 0.4-0.8 0.4-0.3-0.8-0.4-1.5-0.6-2.7-0.2-1-0.2-1.5-0.2-2.4 0-0.3 0.3-0.6 0.5-0.8 0.3-0.3 0.4-0.5 0.8-0.3 0.2 1.9 0.3 3.6 0.3 5.8z"/>
	<path id="Layer" class="s1" d="m48.3 68.2c-0.2 0.6-0.4 1-0.8 1.6-0.7 0.2-1 0-1.4-0.6-0.1-0.2-0.1-0.2-0.1-0.2-0.4-0.3-0.5-0.8-0.2-1.7 0.6-0.3 1.1-0.3 1.8-0.3 0.5 0.3 0.6 0.6 0.7 1.2z"/>
	<path id="Layer" class="s25" d="m47.3 93.2c-0.5-1.1-0.6-2.4 0.3-4 0.7 1.2 0.7 2.5-0.3 4z"/>
	<path id="Layer" class="s1" d="m64.9 90.5c-2.1-5.9-3.7-11.8-4.4-18.2-1.3-1.6-1.7-3.1-0.8-5.2 0.7 0.6 1.1 1.6 1.8 2.8 0.9 3.4 1.4 6.7 2 9.8 0.2 1.1 0.1 2.7 1.6 2.8 1.7 0.1 1.8-1.6 2.2-3.2 0.3-0.1 0.4 0.1 0.6 0.5-0.2 3.3-0.5 6.3-0.9 9.4-0.1 1.1-0.4 1.9-2.1 1.3z"/>
	<path id="Layer" class="s19" d="m60 66.6c0 1.5 0.1 2.9 0.2 4.9-0.5 0.3-1 0.1-1.8-0.3-0.6-1.9-1.1-3.7-1.4-5.8 0-0.4 0-0.4 0-0.4 0.8-0.4 1.4 0.1 2.2 0.8 0.6 0.2 0.8 0.4 0.8 0.8z"/>
	<path id="Layer" class="s3" d="m63.8 64.7c0 0.8-0.1 1.4-0.5 2.2-0.3 0.1-0.3 0.1-0.3 0.1-0.2-0.2-0.4-0.5-0.9-0.9 0-1.2 0.2-2.2 1.7-1.4z"/>
	<path id="Layer" class="s7" d="m59.4 65.7c-0.7 0.5-1.2 0.1-2.1-0.6-0.4-0.5-0.4-1-0.3-1.8 1.3-0.1 1.7 1.1 2.4 2.4z"/>
	<path id="Layer" class="s14" d="m62 66.1q0.3 0 0.9 0.7-0.3 0.1-0.9-0.7z"/>
	<path id="Layer" class="s1" d="m39.8 84.3c-0.4-1.7-0.6-3-0.9-4.8-0.1-1.2-0.1-2-0.3-3.2 0-2.6 0.1-4.9 0.3-7.1 0.2-2.6 1.3-2.8 3.2-0.6 2.6 4.3 3.4 8.8 3.3 13.9-0.1 2.2-0.2 4-1.9 5.6-3.1 0.3-2.9-1.9-3.7-3.8z"/>
	<path id="Layer" class="s25" d="m47.8 84.7c0.2 0.4 0.2 0.6 0.1 1.1-2.3-0.2-1.5 2.1-2.7 3-1.4-1.2-0.4-2.8-0.7-4.6 0.1-0.9 0.2-1.4 0.8-2.1 0.4-0.3 0.7-0.4 1.3-0.4 1.1 0.7 0.8 1.8 1.2 3z"/>
	<path id="Layer" class="s14" d="m44.8 82.8c0.2 1.9 0.2 3.6 0.2 5.8-0.5 0.3-1 0.2-1.7-0.1 0.1-1.7 0.4-3.2 0.8-5.2 0.1-0.3 0.5-0.6 0.7-0.5z"/>
	<path id="Layer" class="s22" d="m45.1 82.8c-0.2 0.2-0.5 0.2-0.7 0.2-0.4-4.5-0.7-9-2.1-13.7 0.2-0.6 0.4-0.8 0.7-1.3 1.6 1.7 1.9 4 2.3 6.6 1.9 2.3 1.9 4.5 0.8 7.2-0.4 0.5-0.6 0.7-1 1z"/>
	<path id="Layer" class="s4" d="m48 84.5c-1.2 0-0.9-1-1.1-2.2-1-2.4 0.1-4.7-1.2-7 0.1-0.8 0.3-1.2 0.5-2 0.3-0.5 0.5-0.6 1-0.6 0.5 1.3 0.7 2.5 0.9 3.9 0 2.7-0.1 5.1-0.1 7.9z"/>
	<path id="Layer" class="s26" d="m45.5 74.9c2.5 1.6 1 4.1 1.4 6.6-0.1 0.4-0.5 0.5-0.8 0.5-0.4-2.1-0.5-4.2-0.7-6.7 0.1-0.4 0.1-0.4 0.1-0.4z"/>
	<path id="Layer" class="s22" d="m47.4 72.6c-0.1 0.3-0.3 0.3-0.8 0.3-0.4-1-0.6-2.1-0.7-3.5 0.5-0.7 0.9-0.6 1.2 0.3 0.2 1 0.2 1.8 0.3 2.9z"/>
	<path id="Layer" class="s22" d="m45.7 67.1c0.5 0.4 0.7 0.9 0.6 1.7-1-0.2-1.4-0.8-0.6-1.7z"/>
	<path id="Layer" class="s31" d="m58.9 77.7c-0.1 0.3-0.5 0.3-0.7 0.3-0.1-0.9-0.1-1.7-0.1-3 0.8 0.3 0.8 1.3 0.8 2.7z"/>
	<path id="Layer" class="s14" d="m162.3 35.6q-2.1 0.2-5.1-0.3 2.2-0.2 5.1 0.3z"/>
	<path id="Layer" class="s26" d="m71.7 144.5c1.4 0.4 3.4 1.1 2.3 2.6-0.9 1.3-1.8-1.1-3.5-1.3-0.4 0-0.6-0.4-0.6-0.5 0.4-0.3 1-0.5 1.8-0.8z"/>
	<path id="Layer" class="s19" d="m81.7 123.8c-0.7-0.1-1.4-0.7-2.1-1.3 1.2-0.8 1.6 0.5 2.1 1.3z"/>
	<path id="Layer" class="s19" d="m82.8 124c0.2 0 0.3 0.4 0.3 0.6 0 0.4-0.1 0.6-0.1 1.1-0.4-0.1-0.8-0.5-1.3-1.1-0.1-0.3 0.2-0.5 0.3-0.6 0.1-0.1 0.6-0.1 0.8 0z"/>
	<path id="Layer" class="s30" d="m162 257.2c5.2-3.1 9.3-8.3 16.4-8.4 1.5 2.5-0.5 3.5-1.9 4.7-2.5 2.1-5.5 3.5-8.7 5.1-1 0.5-1.8 0.8-2.9 1.1-1.4 0.2-2.4 0.1-3-1.3 0.1-0.6 0.1-0.7 0.1-1.2z"/>
	<path id="Layer" class="s29" d="m167 258.5c3.5-3.8 9-4.5 11.7-9.3 0.1-0.4 0.2-0.8 0.3-1 0.4-0.2 0.8-0.1 1.6 0 0.3 0.7 0.3 1.4 0.4 2.5-0.2 0.5-0.4 0.6-0.6 0.9-0.7 0.6-0.9 1.2-1.2 2.2-0.2 0.3-0.2 0.2-0.2 0.2-0.2 0.2-0.5 0.4-0.8 0.9-0.2 0.2-0.2 0.1-0.2 0.1-0.2 0.2-0.5 0.4-0.8 0.9-0.2 0.2-0.2 0.1-0.2 0.1-0.5 0.5-1.2 0.5-1.8 1.2-1.1 0.8-2.1 1.3-3.4 1.8-1.7 0.5-3.2 0.9-4.8-0.5z"/>
	<path id="Layer" class="s25" d="m166.7 258.1c1.3 1.2 2.8 0.6 4.5 0.9-0.5 1.6-2.4 0.8-3.9 2-0.8 0.4-1.2 0.5-2 0.3-0.3-0.2-0.2-0.3-0.2-0.4-0.5-0.4-0.6-0.8-0.3-1.7 0.7-0.5 1.1-0.8 1.9-1.1z"/>
	<path id="Layer" class="s29" d="m164.6 258.9c0.4 0.4 0.4 0.9 0.4 1.6-1 0.4-2 0.4-3.5 0.3-0.5 0-0.7-0.1-0.9-0.5-0.1-1 0-1.7 1.1-2.2 0.7 1 1.7 0.8 2.9 0.8z"/>
	<path id="Layer" class="s0" d="m160.4 260.1c0.2 0 0.6 0.3 0.7 0.5-0.3 0.8-0.8 1.4-1.4 0.9-0.7-0.5-0.3-1 0.7-1.4z"/>
	<path id="Layer" class="s0" d="m181 251q0.4 0.5 0.7 1c0 0-0.2 0.2-0.3 0.3-0.1-0.3-0.2-0.5-0.3-1-0.1-0.2-0.1-0.3-0.1-0.3z"/>
	<path id="Layer" class="s25" d="m179.4 253.9c-0.2-0.5 0-1.2 0.5-2 0.1 0.4 0 1.2-0.5 2z"/>
	<path id="Layer" class="s25" d="m175.3 257.4c-0.2-0.7 0.1-1.3 1.4-1.4-0.1 0.4-0.6 0.9-1.4 1.4z"/>
	<path id="Layer" class="s0" d="m165.2 261.3c0.2-0.2 0.7-0.2 1.4-0.2-0.1 0.7-0.6 0.9-1.4 0.2z"/>
	<path id="Layer" class="s25" d="m177.3 256q-0.2-0.4 0.5-0.9 0.1 0.4-0.5 0.9z"/>
	<path id="Layer" class="s25" d="m178.3 255q-0.2-0.4 0.5-0.9 0.2 0.4-0.5 0.9z"/>
	<path id="Layer" class="s6" d="m162 248.1c1.7-2.4 3.5-5.9 6.9-1.4-1.6 0.3-3.3 0.3-2.6 2.7 0.5 1.7-0.4 2.7-1.7 3-1.3 0.2-2.4-0.7-2.6-2.6 0.2-0.7 0.3-1.1 0-1.7z"/>
	<path id="Layer" class="s14" d="m179 248q-3.6 0-7.3 0c2.2-2.2 4.5-3.2 7.1-0.3 0.2 0.3 0.2 0.3 0.2 0.3z"/>
	<path id="Layer" class="s6" d="m155.7 237.2c0.8-0.2 1.2-0.2 2-0.3 0.3 0.5 0.3 0.9 0.2 1.8-0.1 0.3-0.4 0.4-0.5 0.4-0.8 0.3-0.9 0.9-1.2 1.7-0.4 0.2-0.5 0.2-1 0.2-0.6 0.3-1 0.5-1.8 0.4-1.1-2.4 1-2.9 2.3-4.2z"/>
	<path id="Layer" class="s3" d="m152.6 240.7c0.7 0.3 1.2 0.3 2 0.3-0.2 2.3-1.1 3.6-3.6 1.3 0.2-0.5 0.5-0.7 0.8-1.2 0.2-0.2 0.2-0.1 0.2-0.1 0.1-0.2 0.2-0.4 0.6-0.3z"/>
	<path id="Layer" class="s4" d="m149.2 248.9c-0.2-0.6-0.2-1.4-0.2-2.6 0.6-1.4 1.6-1.6 2.4-0.8 0.7 0.9-0.5 1.4-1.1 2.2-0.4 0.5-0.6 0.8-1.1 1.2z"/>
	<path id="Layer" class="s25" d="m153 240.7c-0.2 0.2-0.6 0.3-0.8 0.3-1-2.6 1.7-2.9 3-4.6 0.4-0.1 0.5 0.1 0.7 0.5-0.8 1.2-1.8 2.3-2.9 3.8z"/>
	<path id="Layer" class="s6" d="m155 248.3c0.1 0.1 0 0.3 0 0.4-0.1-0.1-0.1-0.3 0-0.4z"/>
	<path id="Layer" class="s6" d="m169 247c0.6 0.2 1.2 0.7 0.6 1.2-0.4 0.4-0.5-0.3-0.7-0.9 0-0.2 0.1-0.3 0.1-0.3z"/>
	<path id="Layer" class="s17" d="m157.6 245.3c-0.1-0.1-0.2-0.4-0.2-0.6 0.1 0.2 0.2 0.3 0.2 0.6z"/>
	<path id="Layer" class="s3" d="m156.3 240.9q-0.1-0.7 0.6-1.7 0.1 0.6-0.6 1.7z"/>
	<path id="Layer" class="s4" d="m161.8 248.3c0.4-0.1 0.8 0.1 0.3 1-0.2-0.1-0.2-0.3-0.3-1z"/>
	<path id="Layer" class="s25" d="m151.7 240.8c0.2 0.5 0 0.8-0.4 1.2-0.2-0.4-0.1-0.9 0.4-1.2z"/>
	<path id="Layer" class="s7" d="m146.6 83c-2-7.8-1.5-15 3.6-21.2 3.1-3.9 7-5.8 12.5-3.9 0.4 0.5 0.5 0.7 0.4 1.2-10.8 3.7-14.1 8.6-13.3 20.2 2.1 7 5 10.3 8.9 10.2 3.8-0.1 7.4-4.3 9-10.8 1.8-5-0.8-9.4-0.5-14.3 0.3-0.6 0.5-0.8 1-1 0.9 1.1 1.4 2.1 2.2 3.4 2.5 2.7 2.3 5.7 1.7 9.1-1.3 3.3-1.3 6.5-3 9.3-2.7 4.7-6.2 8.4-12.2 7.7-5.6-0.6-8.6-4.4-10.3-9.9z"/>
	<path id="Layer" class="s7" d="m105.5 85.2c-2-6.4-2.6-12.5 0.1-18.6 2.1-4.9 5.2-8.4 11-9.4 0.7 0.4 0.9 0.8 0.8 1.6-6 3.9-9.5 8.9-9.2 16.3-0.1 0.5-0.1 0.7-0.3 1.2-0.2 1-0.2 1.6 0 2.5 2.4 9.2 4.8 11.1 13.7 10.5 0.6 0.2 0.8 0.4 1 0.9-6.7 4.9-12 3.3-17.1-5z"/>
	<path id="Layer" class="s7" d="m127.5 65c3.5 6.4 3 12.7 0.3 19.4-1 1.6-1.9 2.8-3 4.1-0.5 0.1-0.8 0.1-1.2-0.3-0.5-3.5 2-5.9 2.3-9.3 1.2-4.2 0.2-8 0.2-12.2 0.2-0.9 0.5-1.3 1.4-1.7z"/>
	<path id="Layer" class="s30" d="m172.1 76c-0.6-2.6-0.9-5.4-1.4-8.6 3.8 1.8 3.8 4.8 1.4 8.6z"/>
	<path id="Layer" class="s26" d="m162.9 59.6c0.1-0.5 0.1-0.7 0.1-1.2 0.8 0 1.5 0.3 2.6 0.7 0.6 0.5 0.9 0.9 1.3 1.6-0.1 0.5-0.3 0.6-0.8 0.9-1.7 0.2-2.7-0.3-3.2-2z"/>
	<path id="Layer" class="s7" d="m165.4 61.5c0.4-0.4 0.6-0.4 1.2-0.5 0.8 0.6 1.3 1.2 1.9 2.1 0 0.4-0.2 0.6-0.6 0.9-1.7 0.2-2.4-0.7-2.5-2.5z"/>
	<path id="Layer" class="s25" d="m163 103.9c-0.7 0.2-1.5 0.1-2.6 0.1 0.3-0.8 1.2-0.9 2.4-0.7 0.3 0.1 0.3 0.4 0.2 0.6z"/>
	<path id="Layer" class="s7" d="m123.6 89.1c-0.2 0.7-0.4 0.9-0.8 1.3-0.4 0-0.5-0.1-0.9-0.5-0.1-0.5 0-0.7 0.5-1.1 0.7-0.1 0.9-0.1 1.2 0.3z"/>
	<path id="Layer" class="s7" d="m124.3 88.4c0.1 0.5-0.1 0.7-0.5 1-0.3 0-0.4-0.1-0.8-0.4-0.2-0.6-0.1-0.9 0.5-1.2 0.4 0.1 0.5 0.2 0.8 0.6z"/>
	<path id="Layer" class="s26" d="m117.2 59.1c-0.2-0.7-0.2-1-0.2-1.6 2.4-0.8 4.3 0.3 6.5 1.7 0.2 0.5 0.1 0.8-0.3 1.3-2.3 0.5-4.2 0.1-6-1.4z"/>
	<path id="Layer" class="s26" d="m127.8 64.7c-0.2 0.5-0.4 0.8-0.8 1.2-2.1 0.1-2.5-1.4-2.6-3.3 0.1-0.7 0.3-0.9 0.7-1.3 1.1 0.9 1.9 2 2.7 3.4z"/>
	<path id="Layer" class="s26" d="m123.5 59.7c0.5 0 0.8 0.2 1.2 0.6 0 0.4-0.1 0.6-0.5 0.9-0.7 0.1-1-0.1-1.4-0.7 0.1-0.4 0.3-0.5 0.7-0.8z"/>
	<path id="Layer" class="s26" d="m124.6 60.7c0.4-0.1 0.6 0.1 0.8 0.3 0 0.4-0.2 0.6-0.5 1-0.6 0.2-0.9 0-1.1-0.5 0.2-0.4 0.3-0.5 0.8-0.8z"/>
	<path id="Layer" class="s10" d="m99 169q-0.4 0.4-0.9 0.8c0 0-0.2-0.3-0.4-0.5 0.3-0.1 0.5-0.2 1-0.3 0.3 0 0.3 0 0.3 0z"/>
	<path id="Layer" class="s15" d="m148.7 162c0.3 0.4 0.5 0.6 1 0.9 0.2 2.2 0.2 4.2 0.3 6.7-0.3 0.9-0.7 1.3-1 2.1-0.3 0.8-0.7 1.2-1 2-0.3 0.8-0.7 1.2-1 2-0.3 0.8-0.7 1.2-1 2-0.3 0.8-0.7 1.2-1 2-0.3 0.5-0.6 0.7-0.9 1.1-8.8 0.9-17.5 1.5-26.7 2.2-0.9-0.3-1.3-0.7-2.1-1-0.5-0.3-0.6-0.6-1.1-0.9-0.4-0.9-0.7-1.7-1.1-2.8 1.6-1.9 3.5-0.9 5.7-0.8 5.2 0 10 0 14.8 0 2.1 0 4-0.1 5.8-1.9 1-1.4 2-2.5 2.3-4.2 0.1-0.8 0.2-1.2 0.5-2 0.5-0.8 0.9-1.3 1.4-2.1 0.4-3.3-3.5-2.7-4-5.4 2.4-1.2 5-0.8 7.9-0.9 0.6 0.4 0.7 0.6 1.2 1z"/>
	<path id="Layer" class="s16" d="m139.2 161.5c1.6 2.6 7.5 0.6 5.9 6-2.8 1.9-5.7 2-9.2 1.9-2.3 0-4.2 0-6.5 0-2.7 0.1-5.1-0.3-7.7 0.4-0.4 0.3-0.6 0.5-1 0.9-1.1 1.2-1.4 2.5-1.4 4.1 0 1.4 0.3 2.6-0.2 3.9-1.9-0.1-3.6-0.4-5.7-0.7-2.1-1.5-1.1-3.5-1.2-5.6 0.7-2.1 1.3-3.7 2.1-5.6 0.6-0.6 1.1-0.8 1.7-1.3 3.2-1.6 5.7-4.1 9.7-3.6 4.6-0.2 8.9-0.3 13.5-0.4z"/>
	<path id="Layer" class="s25" d="m144.4 226.4c1.3-0.5 2.8-0.6 4.5-0.6-1.1 1.9-2.7 1.1-4.5 0.6z"/>
	<path id="Layer" class="s25" d="m155.3 222.2q-0.3-0.8 0.4-2.1c0.8 0.7 0.4 1.3-0.4 2.1z"/>
	<path id="Layer" class="s22" d="m92.4 238.1c-0.3-0.3-0.4-0.5-0.5-1 0.5-0.7 0.8-1.2 1.2-2.1 0.3-0.4 0.5-0.5 0.8-0.9 1.3 1.4 3.1 3 1.2 5-1 1-1.6-0.5-2.7-1z"/>
	<path id="Layer" class="s3" d="m93.8 234.9c0.1 1.1-0.2 1.9-1.6 1.9-0.3-0.1-0.3-0.3-0.2-0.4-0.2-0.5-0.4-0.8-0.9-1.2-0.2-0.2-0.1-0.2-0.1-0.2-0.3-0.2-0.6-0.4-1-0.9 0-0.7 0-1.1 0-1.8 0.1-0.4 0.4-0.4 0.6-0.4 0.9 0.5 1.6 0.9 2.2 1.9 0.2 0.2 0.2 0.2 0.2 0.2 0.2 0.2 0.5 0.4 0.8 0.9z"/>
	<path id="Layer" class="s25" d="m93.3 233.7c-0.9-0.2-1.6-0.6-2.4-1.4 1.3-0.9 2 0 2.4 1.4z"/>
	<path id="Layer" class="s25" d="m89.7 233.8c0.6 0.2 0.8 0.5 1.2 1-0.7 1.2-1.4 0.3-2-0.4 0.2-0.4 0.4-0.5 0.8-0.6z"/>
	<path id="Layer" class="s25" d="m94.1 234.8c-0.4 0.1-0.7-0.1-1.1-0.6 0.2-0.4 0.4-0.6 0.9-0.5 0.3 0.4 0.3 0.6 0.2 1.1z"/>
	<path id="Layer" class="s8" d="m90.5 244.5c0 0.1 0.1 0 0 0z"/>
	<path id="Layer" class="s3" d="m90 232q-0.3-0.2-0.4-0.5c0.1 0 0.2 0.1 0.4 0.3 0.1 0.1 0 0.2 0 0.2z"/>
	<path id="Layer" class="s25" d="m96.9 209.1c1.4 0.3 0.8 1.8 1.8 2.8 0.3 0.6 0.3 1.1 0.2 1.9-0.7 0.3-1.4 0.3-2.5 0.2-1-0.7-1.1-1.5-0.7-2.7 0.5-0.9 0.7-1.4 1.2-2.2z"/>
	<path id="Layer" class="s14" d="m95.5 210.9c0.5 0.8 0.5 1.5 0.6 2.6-1.2 0.1-2.3-0.2-3.8-0.6-0.4-0.4-0.4-0.8-0.4-1.5 1.1-0.3 2.1-0.4 3.6-0.5z"/>
	<path id="Layer" class="s14" d="m89.6 209.2c1.2-0.2 2.1 0 2.3 1.6-1 0-2.7 0.7-2.3-1.6z"/>
	<path id="Layer" class="s5" d="m82.4 249c-0.4-1.9-1.7-2.6-2.9-3.8 1.8-0.2 3.5-0.1 4.6 1.4 1.2 1.7 0.4 2.3-1.7 2.4z"/>
	<path id="Layer" class="s25" d="m75 242.9c0.8-0.2 1.5-0.1 2.7 0 0.5 0.1 0.6 0.4 0.5 0.8-0.9 0.3-1.6 0.3-2.7 0.2-0.4-0.3-0.4-0.5-0.5-1z"/>
	<path id="Layer" class="s25" d="m79.6 244.6c0.1 0.3-0.3 0.2-0.4 0.3-0.5-0.1-0.8-0.3-1.2-0.7 0.6-0.7 1-0.2 1.6 0.4z"/>
	<path id="Layer" class="s25" d="m90.8 235.3c0.5-0.1 0.8 0.1 1.2 0.6-0.4 0.2-0.9 0-1.2-0.6z"/>
	<path id="Layer" class="s5" d="m85.5 242.5c-0.1 0 0 0.1 0 0z"/>
	<path id="Layer" class="s25" d="m98.7 203.8c0.3-0.1 0.3 0.2 0.4 0.9-0.1 0.8-0.3 1.3-0.8 1.8-0.7-0.8-0.4-1.7 0.4-2.7z"/>
	<path id="Layer" class="s25" d="m97.7 206.6q0.3 0.5-0.4 1.4-0.3-0.5 0.4-1.4z"/>
	<path id="Layer" class="s7" d="m80.3 154c-0.4-3.4 1.6-6.9-0.5-10.6 3.7 2.1 3.9 6.1 0.5 10.6z"/>
	<path id="Layer" class="s7" d="m78.9 140.7c-2.7 1.5-5.4-2.3-8.6-0.3 2.7-3.5 5.6-1.7 8.6 0.3z"/>
	<path id="Layer" class="s7" d="m80.3 142.8c-1.5 0.4-1.7-0.5-1.7-1.6 1.3-0.1 1.7 0.6 1.7 1.6z"/>
	<path id="Layer" class="s36" d="m165.2 61.2c0.9 0.9 1.4 1.8 2.2 2.9 1.4 4.7 3.5 9.2 1.6 14.5-0.8 2-1.9 2.9-4.1 2.5-1.7-2.3-1.1-4.7-1.4-7-0.2-2-0.7-3.9-2.7-5.4-5.6-1.7-6.5-0.9-5.5 5.6 0.2 2.1 0.2 3.8-0.4 5.8-2.2 3-3.7 0.3-5.7-0.1-2.2-7.2-0.1-13.5 4.7-18.9 2.2-2.4 5.1-2.7 8.6-1.9 1.1 0.7 1.8 1.3 2.7 2z"/>
	<path id="Layer" class="s37" d="m148.9 80.5c0.1-1 0-2 0.3-2.3 1.1-0.9 1.1 0.7 1.7 1 0.8 0.5 1.5 1.1 2.6 1.8 0.7 0.1 1 0.1 1.3 0.3 4.8 3.6 4.8 3.6 9.7-0.4 1.5-0.5 2.6-1.1 4.1-1.8 0.5 1.1 0 2.1-0.5 3.2-2.4 6.2-5.9 9.3-10.5 8.6-5.7-0.7-7.5-5.2-8.7-10.4z"/>
	<path id="Layer" class="s36" d="m123.6 61.1c0.3 0.4 0.4 0.7 0.9 1.1 0.7 1.2 1.3 2.4 2.1 3.8 1.3 4.2 1.7 8.3 0.8 12.8-1 0.9-1.5 1.9-3.1 1.5-2-1.9-1.5-4.1-2-6.1-0.5-1.9-0.9-3.9-3.2-5-1.8-1.2-3.5-2.4-5.2-0.8-1.8 1.5-0.9 3.6-0.6 5.9 0.2 2.2 0.2 3.9-0.6 6-3.5 1.9-4.1-1.1-5.7-3.2-0.1-7.9 1.1-14.9 9.6-18.2 2.2 0 3.9 0.1 5.8 1.2 0.5 0.5 0.6 0.7 1.2 1z"/>
	<path id="Layer" class="s37" d="m123.2 79.8c1.3 0.3 2.3-0.1 3.6-0.6 0.3 2.9-1.2 5.4-2.9 8.2-0.5 0.4-0.8 0.6-1.1 1.1-0.4 0.3-0.7 0.4-1 0.9-8.2 3.6-13.7-0.4-14.9-11-0.1-0.6-0.2-0.8-0.2-1.3 0.1-0.3 0.1-0.3 0.1-0.3 1.5 1.3 3.1 2.6 4.9 4.1 3.2 1.5 5.6 6.1 9.5 1.1 0.5-0.6 0.7-0.9 1.2-1.4 0.3-0.4 0.4-0.5 0.8-0.8z"/>
	<path id="Layer" class="s36" d="m106.6 76.9c0.3 0.1 0.3 0.3 0.3 0.8-0.1 0-0.3-0.3-0.3-0.8z"/>
	<path id="Layer" class="s1" d="m118.4 175.3c-0.7-2.1-0.6-3.8 1.3-5.3 7.7-0.6 15-0.8 22.8 0.3 0.7 1.8 0.5 3.3-1.1 4.6-1.6 0.5-2.8 1-4.4 1.3-5.8 0.3-11.2 0.4-17.1-0.1-0.6-0.2-0.9-0.4-1.5-0.8z"/>
	<path id="Layer" class="s31" d="m137.8 175.1c1.1-1.3 2-1.3 3.1-0.2-0.7 3.8-3.5 4.1-6.4 4.1-4.9 0.1-9.8 0-15.1 0-0.8-1.1-1.1-2.2-1.4-3.7 0.1-0.3 0.6-0.3 0.8-0.3 6.4 1 12.6 0.4 19 0.1z"/>
	<path id="Layer" class="s2" d="m142.9 170.3c-7.4 1.1-14.9 1.1-22.6 0-0.3-0.4-0.3-0.3-0.3-0.3 2.3-1.8 5-0.6 7.8-1.3 2.5-0.3 4.5-0.2 6.9-0.2 2.8 0 5.2-0.1 7.8 0.4 0.4 0.6 0.4 0.8 0.4 1.4z"/>
	<path id="Layer" class="s1" d="m143.2 169.1c-2.7 0-5 0-7.8-0.1-0.6-0.2-0.7-0.3-0.6-0.7 3.3-0.3 6.3-0.3 9.8-0.4-0.1 0.3-0.6 0.8-1.4 1.2z"/>
	<path id="Layer" class="s15" d="m128.3 169.1c-2.6 1.4-5.1 0.8-7.9 0.9 1.2-3.6 4.4-1.3 7.3-1.9 0.5 0.3 0.7 0.5 0.6 1z"/>
	<path id="Layer" class="s31" d="m128.5 169.3c-0.5-0.1-0.5-0.3-0.4-0.8 2-0.4 4-0.4 6.5-0.4 0.4 0 0.4 0.5 0.4 0.7-2 0.3-4.1 0.4-6.5 0.5z"/>
	<path id="Layer" class="s1" d="m164.9 80.5c-4.4 7.5-7 7.7-10.9 0.9-0.2-2.5-0.1-4.6 0-7.2 4-0.7 5.9-2.9 6.6-6.9 5.9 2.8 4.5 8 4.3 13.2z"/>
	<path id="Layer" class="s8" d="m160.5 67c1.2 6.7-0.4 8.5-6.1 6.8-1.2-2.3-2.4-4.7 0-6.8 1.8-1.6 3.8-1.5 6.1 0z"/>
	<path id="Layer" class="s1" d="m123.2 80.8c-4.5 7.2-7.2 7.3-11 0.5-0.2-2.4-0.2-4.6-0.1-7.2 3.2-0.8 6.3-1.3 6.8-5.8 6.1 1.6 4.6 6.3 4.5 10.9 0 0.4 0 0.5 0 0.5 0.2 0.3 0.2 0.6-0.2 1.1z"/>
	<path id="Layer" class="s0" d="m118.9 67.7c1.4 2.5 0.9 4.4-0.8 6-1.6 1.5-3.5 1.3-5.6 0.1-1.5-2.7-2-5.3 0.6-7.2 1.9-1.4 4-1.1 5.8 1.1z"/>
	<path id="Layer" class="s36" d="m123.3 80.9q-0.5-0.3 0-1 0.3 0.2 0 1z"/>
	<path id="Layer" class="s2" d="m137.6 174.8c-5.6 2.4-11.8 1-18.3 0.6 5.8-0.4 11.8-0.5 18.3-0.6z"/>
</svg>