<?xml version="1.0" standalone="no"?>
<!DOCTYPE svg PUBLIC "-//W3C//DTD SVG 20010904//EN"
 "http://www.w3.org/TR/2001/REC-SVG-20010904/DTD/svg10.dtd">
<svg version="1.0" xmlns="http://www.w3.org/2000/svg"
 width="1000.000000pt" height="1000.000000pt" viewBox="0 0 1000.000000 1000.000000"
 preserveAspectRatio="xMidYMid meet">
<metadata>
Created by potrace 1.14, written by Peter Selinger 2001-2017
</metadata>
<g transform="translate(0.000000,1000.000000) scale(0.100000,-0.100000)"
fill="#000000" stroke="none">
<path d="M4712 9849 c-525 -29 -1039 -181 -1411 -417 -30 -19 -67 -35 -81 -36
-54 -4 -239 -175 -344 -318 -179 -241 -299 -600 -331 -988 -10 -112 -25 -192
-41 -218 -25 -38 -56 -44 -160 -27 -281 45 -427 -19 -494 -215 -21 -60 -22
-77 -17 -230 7 -175 48 -564 73 -690 29 -143 85 -230 177 -274 60 -29 166 -48
252 -46 33 1 100 2 148 1 l88 -1 192 -184 c106 -102 205 -194 220 -206 28 -22
93 -105 116 -148 19 -36 5 -57 -79 -116 -123 -86 -212 -221 -262 -393 -21 -69
-23 -99 -22 -268 1 -127 6 -212 15 -256 18 -78 12 -102 -30 -123 -56 -30 -111
-21 -182 28 -131 89 -210 118 -385 141 -139 18 -173 11 -211 -46 -14 -21 -29
-39 -33 -39 -9 0 -247 -365 -372 -570 -114 -187 -125 -200 -176 -200 -22 0
-56 7 -77 16 -49 20 -124 20 -168 -1 -51 -24 -124 -106 -155 -173 -37 -80 -38
-211 -3 -290 40 -88 121 -142 215 -142 20 0 36 -3 36 -6 0 -11 -61 -108 -84
-132 -11 -13 -67 -45 -123 -72 -174 -82 -248 -182 -248 -335 0 -98 30 -170 97
-238 91 -91 219 -100 382 -28 27 12 57 19 67 16 9 -3 35 -34 58 -68 22 -34 57
-79 78 -99 85 -83 152 -77 325 28 64 39 101 40 113 4 3 -11 12 -20 18 -20 18
1 48 27 61 52 9 18 21 24 56 26 56 4 64 11 91 80 17 45 23 82 24 173 3 127 20
183 67 227 l25 23 6 -113 c6 -133 17 -169 68 -225 64 -70 62 -148 -4 -234 -59
-78 -134 -97 -243 -62 -43 13 -59 14 -79 5 -14 -6 -25 -17 -25 -24 0 -33 153
-98 231 -98 97 0 226 87 268 180 37 81 19 206 -44 316 l-24 41 73 6 c160 12
263 112 274 269 4 59 1 75 -23 123 -15 32 -45 71 -70 92 -24 20 -46 46 -49 59
-3 12 1 59 9 105 17 98 51 155 148 240 34 31 78 79 97 107 19 29 41 52 47 52
7 0 38 34 69 76 79 105 128 125 203 86 58 -29 71 -68 71 -217 0 -199 34 -292
145 -392 58 -53 200 -133 235 -133 9 0 29 -9 43 -20 24 -19 25 -25 24 -113 -1
-83 2 -99 31 -166 18 -40 32 -75 32 -76 0 -5 -208 -72 -264 -85 -70 -16 -103
-36 -122 -73 -18 -34 -19 4 17 -713 14 -276 -1 -374 -73 -487 -41 -64 -103
-112 -213 -166 -127 -63 -189 -129 -265 -283 -117 -237 -107 -284 95 -483 141
-138 165 -156 261 -206 102 -53 175 -80 289 -105 105 -23 361 -24 493 -1 151
26 153 27 338 311 87 135 165 246 171 246 7 0 20 12 30 28 9 15 24 34 34 42
23 20 113 266 147 399 22 91 26 128 27 256 0 139 -2 158 -33 266 -44 158 -43
171 16 224 26 24 61 69 77 102 28 54 30 65 30 174 0 88 -4 120 -15 134 -14 16
-13 17 5 12 153 -49 336 -29 509 55 33 15 63 25 67 21 14 -16 40 -107 46 -163
8 -81 -23 -179 -83 -260 -59 -80 -74 -117 -74 -180 0 -66 18 -100 96 -182 117
-121 144 -223 125 -463 -17 -209 -7 -251 106 -464 37 -69 85 -161 106 -204 25
-51 61 -102 105 -149 70 -74 272 -251 346 -303 24 -17 48 -44 55 -61 22 -60
59 -69 281 -69 179 0 204 3 304 28 262 66 464 202 629 422 86 115 121 193 114
255 -7 54 -33 111 -83 183 -19 26 -34 51 -34 56 0 17 -120 139 -172 174 -29
20 -102 55 -162 76 -60 22 -128 53 -150 69 -50 36 -98 104 -124 175 -39 103
-84 430 -106 772 -20 302 -39 330 -229 345 -94 8 -130 13 -180 27 -35 9 -39
39 -17 111 33 105 12 169 -84 259 -50 46 -56 57 -56 92 0 33 9 50 56 108 171
208 301 419 398 646 43 100 66 142 82 149 18 8 39 3 111 -30 138 -64 224 -75
373 -50 65 11 72 11 97 -8 18 -14 39 -49 59 -99 39 -96 68 -125 129 -125 35 0
43 -3 39 -15 -9 -23 33 -81 73 -100 79 -38 236 5 303 81 33 38 75 121 85 167
4 22 9 26 19 18 23 -19 73 7 116 61 22 28 38 54 35 58 -3 4 6 11 20 14 18 5
25 13 25 32 0 14 7 27 18 31 9 4 55 43 102 87 112 105 188 160 258 186 50 19
69 21 147 15 191 -14 216 -13 237 16 15 20 17 31 9 51 -9 23 -7 25 15 20 49
-9 104 75 104 158 -1 38 -26 128 -54 191 -6 14 5 15 96 11 92 -4 110 -2 156
18 92 40 158 145 169 270 4 44 0 64 -19 100 -21 41 -76 90 -101 90 -6 0 -7
-40 -2 -111 8 -136 -4 -173 -73 -219 -56 -37 -107 -45 -217 -31 -77 9 -93 8
-141 -8 -58 -21 -70 -16 -60 24 8 30 56 66 117 89 58 21 127 80 145 123 8 18
14 56 14 86 0 29 5 58 12 65 22 22 97 15 130 -13 37 -31 44 -31 64 0 16 25 16
27 -6 50 -13 14 -33 25 -46 25 -12 0 -27 6 -33 14 -6 7 -32 16 -58 19 -36 4
-53 12 -72 33 -23 27 -23 33 -18 122 4 59 2 112 -5 140 -21 84 -103 141 -228
157 -83 11 -88 14 -98 47 -6 18 -13 62 -16 98 -8 83 -53 177 -108 224 -150
129 -400 61 -495 -133 -26 -53 -28 -64 -28 -191 -1 -130 -2 -137 -32 -202 -41
-86 -55 -87 -131 -10 -61 63 -110 83 -234 98 -32 3 -58 8 -58 10 0 1 16 30 36
64 121 208 208 473 245 749 20 159 52 245 98 267 53 26 124 201 140 349 13
110 1 241 -39 423 -33 148 -55 194 -109 221 -96 50 -127 118 -146 328 -8 87
-24 192 -36 233 -42 151 -145 333 -244 430 -25 24 -45 49 -45 56 0 6 -21 30
-47 53 -27 23 -68 62 -93 85 -58 54 -138 115 -270 202 -151 100 -243 153 -430
243 -570 274 -1188 383 -1938 340z m153 -109 c3 -5 3 -10 -2 -10 -4 0 -35 -4
-68 -10 -33 -5 -149 -21 -258 -35 -166 -21 -220 -32 -335 -70 -75 -25 -143
-49 -150 -54 -10 -6 10 -24 70 -66 46 -32 135 -110 199 -174 131 -132 227
-267 319 -451 32 -65 66 -120 76 -124 9 -3 42 -2 73 3 121 21 280 33 606 45
287 11 343 10 367 -1 15 -8 103 -21 195 -29 284 -25 270 -31 -72 -32 -447 -2
-672 -17 -1060 -72 -384 -55 -624 -122 -859 -240 -54 -28 -105 -50 -114 -50
-40 0 -212 -141 -254 -208 -11 -19 -42 -56 -69 -84 -59 -61 -79 -60 -79 6 l0
45 -122 77 c-261 164 -360 236 -470 341 -48 46 -58 61 -58 89 0 38 26 122 45
144 7 8 15 27 19 43 3 15 10 27 15 27 5 0 29 42 54 93 126 257 382 446 797
589 125 43 154 51 418 118 112 27 207 48 212 45 5 -3 42 4 82 15 41 11 108 24
149 29 106 12 267 13 274 1z m1210 -1100 c55 -5 210 -18 345 -29 293 -25 290
-25 507 -62 180 -30 361 -79 491 -130 86 -34 101 -44 112 -74 4 -11 40 -62 78
-112 70 -91 71 -94 82 -175 30 -247 40 -746 20 -1113 -8 -155 -8 -182 5 -191
12 -9 13 -17 4 -43 -9 -25 -15 -30 -33 -25 -20 5 -24 0 -35 -53 -49 -232 -181
-595 -269 -736 l-17 -29 39 -33 c38 -34 38 -35 22 -60 -19 -29 -22 -29 -56
-10 -34 20 -47 18 -60 -5 -9 -17 -6 -25 16 -47 38 -38 23 -57 -51 -63 -66 -6
-99 -35 -111 -96 -5 -30 -19 -45 -83 -92 -158 -117 -329 -183 -586 -226 -55
-10 -113 -22 -130 -28 -16 -6 -46 -11 -65 -10 -19 1 -50 -3 -69 -9 -18 -6 -63
-13 -100 -15 -377 -18 -510 -26 -721 -43 -580 -47 -866 -35 -1171 50 -196 54
-300 100 -405 179 -26 20 -54 32 -77 33 -21 1 -37 7 -37 14 0 17 -75 97 -136
144 -29 22 -60 52 -69 66 -17 26 -17 26 29 65 99 85 100 110 16 488 -29 129
-82 497 -94 650 -22 270 -27 465 -16 625 14 214 25 287 62 403 46 146 80 212
135 257 26 22 90 81 143 132 94 91 96 92 215 136 454 168 875 252 1400 281
104 5 555 -4 670 -14z m-3165 -755 c5 -13 20 -31 33 -40 16 -10 24 -25 25 -46
0 -17 8 -36 17 -42 9 -7 18 -34 22 -66 4 -36 14 -63 32 -84 l26 -31 -25 8
c-14 5 -44 11 -67 13 -35 4 -44 2 -49 -13 -3 -11 -14 -37 -23 -59 -10 -22 -24
-55 -31 -72 -7 -18 -15 -33 -19 -33 -4 0 -20 26 -35 58 -16 31 -33 64 -37 72
-4 8 -18 34 -30 58 -11 23 -33 49 -48 56 -19 10 -32 29 -44 69 -36 115 -16
171 77 212 l51 23 58 -30 c36 -18 61 -38 67 -53z m5014 -128 c11 -15 21 -42
22 -60 1 -17 9 -50 17 -72 8 -22 16 -85 18 -140 l4 -100 -46 -3 c-32 -2 -51 2
-62 12 -18 18 -29 118 -27 232 1 43 -1 91 -5 106 -4 15 -5 35 -1 44 9 24 56
13 80 -19z m-5461 -53 c23 -8 54 -27 69 -41 43 -41 56 -83 152 -488 14 -59 9
-158 -7 -152 -6 2 -23 23 -38 48 -23 39 -30 44 -60 42 -40 -2 -66 -29 -75 -81
-13 -71 -44 -138 -80 -173 -35 -32 -36 -33 -30 -9 19 75 25 165 16 231 -6 39
-7 75 -4 80 7 11 -11 128 -33 214 -8 33 -17 76 -19 95 -2 19 -5 53 -7 76 -2
22 -14 66 -26 97 -33 89 -32 91 39 83 33 -4 79 -14 103 -22z m-379 -57 c15
-19 26 -38 26 -43 0 -5 11 -26 25 -46 14 -20 25 -46 25 -57 0 -10 12 -41 26
-68 27 -54 45 -150 63 -337 10 -104 10 -122 -3 -135 -9 -8 -18 -12 -22 -9 -3
4 -15 84 -25 179 -25 227 -51 323 -98 367 -73 67 -95 32 -106 -165 -5 -97 -11
-133 -20 -133 -18 0 -24 36 -31 215 -8 174 0 223 39 250 36 26 73 19 101 -18z
m186 -158 c0 -5 -4 -9 -10 -9 -5 0 -10 7 -10 16 0 8 5 12 10 9 6 -3 10 -10 10
-16z m34 -86 c9 -59 8 -89 -4 -77 -17 17 -29 114 -15 114 7 0 15 -17 19 -37z
m-299 -345 c7 -34 25 -140 25 -150 0 -4 -9 -8 -19 -8 -15 0 -21 12 -30 63 -13
73 -14 101 -4 110 12 13 23 7 28 -15z m6444 -893 c157 -55 171 -190 43 -440
-49 -95 -153 -215 -188 -215 -27 0 -54 30 -54 62 0 16 11 54 24 86 13 31 31
92 40 134 25 119 4 184 -74 233 -22 14 -40 28 -40 31 0 26 67 105 100 117 30
11 108 7 149 -8z m423 -437 c34 -17 51 -67 46 -138 -10 -134 -63 -197 -178
-207 -47 -5 -61 -3 -65 9 -3 8 8 55 26 104 23 66 32 108 33 162 1 69 2 73 26
78 14 3 30 7 35 9 13 4 55 -5 77 -17z m-5562 -59 c33 -11 64 -18 70 -14 5 3
10 0 10 -8 0 -7 11 -24 25 -37 28 -27 31 -42 11 -59 -10 -8 -21 -9 -42 0 -74
29 -280 30 -369 2 -39 -12 50 81 105 110 63 33 109 34 190 6z m4479 -25 c21
-18 36 -45 50 -91 16 -51 31 -77 66 -113 54 -55 73 -110 46 -134 -15 -14 -25
-8 -104 63 -48 43 -102 86 -121 95 -47 22 -131 20 -185 -4 -24 -11 -45 -20
-47 -20 -11 0 -2 95 11 120 31 60 122 108 207 109 36 1 53 -5 77 -25z m-439
-218 c0 -38 50 -124 92 -157 46 -37 141 -78 181 -79 23 0 27 -4 27 -27 0 -87
-43 -141 -155 -195 -89 -43 -179 -127 -249 -233 -64 -97 -78 -103 -188 -85
-75 13 -118 41 -118 77 0 10 14 43 30 73 55 100 68 134 85 215 45 224 104 329
233 415 48 32 62 31 62 -4z m726 -62 c-4 -9 -9 -15 -11 -12 -3 3 -3 13 1 22 4
9 9 15 11 12 3 -3 3 -13 -1 -22z m698 -90 c27 -10 18 -34 -19 -50 -40 -16 -55
-12 -55 16 0 30 39 47 74 34z m-1066 -57 c10 -3 7 -5 -9 -6 -24 -1 -26 2 -20
27 5 24 6 25 9 5 2 -12 11 -24 20 -26z m-4293 -1 c143 -67 340 -327 374 -494
23 -113 9 -236 -41 -363 -29 -75 -31 -77 -90 -108 -65 -33 -113 -39 -142 -18
-23 17 -15 46 25 90 67 72 103 198 79 271 -13 41 -52 91 -83 107 -18 10 -19 9
-13 -12 21 -75 23 -122 13 -242 l-12 -128 -35 23 c-25 16 -48 48 -80 112 -51
101 -73 122 -96 92 -8 -11 -14 -32 -14 -46 0 -55 -79 -134 -160 -161 -19 -6
-81 -29 -138 -51 l-103 -40 -23 21 c-12 12 -27 21 -32 21 -6 0 -24 20 -42 45
-17 25 -36 45 -42 45 -5 0 -10 6 -10 13 0 6 -23 33 -51 59 l-51 46 49 22 c104
46 272 98 355 109 81 11 88 10 125 -10 21 -13 47 -30 58 -39 11 -9 27 -20 37
-23 18 -6 48 21 48 46 0 15 -44 57 -61 57 -5 0 -33 12 -64 26 -64 31 -76 56
-49 103 28 48 91 54 208 19 73 -21 131 -19 124 4 -7 19 -120 77 -164 84 -43 6
-88 -10 -129 -46 -11 -9 -35 -22 -54 -29 -90 -30 -128 1 -117 93 9 83 43 181
79 228 70 93 212 126 322 74z m533 -10 c37 -19 84 -46 104 -60 21 -14 77 -39
125 -55 189 -65 196 -69 285 -168 9 -10 39 -38 67 -63 28 -24 51 -53 51 -63 0
-10 5 -15 11 -12 6 4 19 -2 30 -14 24 -26 53 -26 284 -6 369 32 639 45 1058
52 335 5 440 9 448 19 15 19 66 -43 122 -150 37 -70 47 -98 47 -136 0 -27 -4
-50 -10 -52 -5 -1 -12 -28 -14 -58 -3 -32 -47 -179 -104 -345 -96 -284 -99
-290 -126 -293 l-29 -4 7 49 c11 72 7 121 -14 192 -32 103 -25 141 29 171 51
27 70 159 29 198 -65 60 -195 24 -213 -59 -5 -23 -11 -29 -23 -24 -116 45
-191 58 -327 58 -124 1 -150 -2 -228 -26 -49 -15 -167 -68 -263 -117 -206
-106 -214 -111 -214 -127 0 -7 -10 -13 -22 -13 -21 0 -90 -47 -184 -127 -28
-24 -55 -43 -59 -43 -5 0 -34 -22 -64 -48 -31 -27 -76 -60 -101 -73 -24 -13
-51 -32 -58 -41 -19 -25 -32 -22 -32 7 0 15 6 25 15 25 16 0 85 86 85 107 0
38 -69 16 -117 -37 -14 -17 -31 -30 -37 -30 -6 0 -35 -16 -65 -35 -47 -31 -60
-35 -122 -35 -38 0 -69 3 -69 6 0 3 25 29 55 58 62 58 71 82 28 72 -16 -4 -96
-33 -179 -66 -152 -60 -235 -79 -347 -80 -54 0 -62 3 -93 34 -29 29 -34 41
-34 79 0 40 7 54 50 109 143 180 185 251 231 385 40 119 52 211 47 364 -5 145
-1 132 -111 394 -34 79 -42 115 -28 115 6 0 42 -15 79 -34z m4297 -206 c11
-17 -24 -182 -42 -201 -10 -11 -29 -30 -43 -45 -74 -76 -204 -97 -261 -42 -8
7 -26 21 -41 31 -32 20 -104 123 -114 162 -7 27 -6 28 21 21 15 -4 58 -25 94
-47 73 -44 132 -63 167 -55 14 4 24 2 24 -4 0 -6 29 13 65 42 43 36 65 60 65
75 0 39 19 73 39 73 11 0 23 -4 26 -10z m505 -105 c-12 -15 -30 -12 -30 6 0 5
10 9 21 9 18 0 19 -2 9 -15z m84 -169 c68 -28 84 -95 44 -176 -25 -49 -89 -90
-139 -90 -24 0 -114 41 -175 80 -20 12 -27 9 -85 -43 -35 -31 -68 -57 -73 -57
-5 0 -19 -11 -31 -24 -25 -27 -86 -47 -125 -42 -36 5 -114 42 -148 71 -24 20
-29 33 -31 73 -1 40 3 52 23 71 l25 23 53 -18 c43 -15 80 -18 198 -17 l145 2
26 29 c15 16 29 36 31 43 4 10 13 7 35 -13 32 -30 53 -34 102 -17 37 13 51 35
51 83 0 41 17 46 74 22z m-966 -171 c45 -51 82 -99 82 -106 0 -47 -304 -362
-396 -410 -55 -30 -87 -20 -127 37 l-29 41 17 100 c14 81 14 109 5 154 -22
104 -23 102 47 119 53 14 67 22 104 65 23 28 68 76 98 108 l56 58 30 -36 c17
-20 67 -79 113 -130z m-5328 -30 c36 -30 75 -63 87 -74 12 -12 27 -21 32 -21
5 0 12 -8 16 -19 3 -10 14 -26 25 -36 11 -10 20 -25 20 -33 0 -22 48 -82 66
-82 7 0 14 -9 14 -19 0 -11 3 -26 6 -34 4 -11 -12 -19 -63 -32 -37 -10 -72
-21 -78 -25 -5 -3 -28 -12 -50 -19 -71 -22 -130 -73 -161 -140 -16 -33 -33
-60 -39 -60 -30 -2 -85 22 -85 36 0 12 -3 13 -15 3 -9 -7 -31 -10 -57 -7 -38
4 -358 49 -445 63 -18 3 -33 11 -33 18 0 12 129 162 301 349 98 105 192 179
267 207 46 18 48 17 87 -2 22 -11 69 -44 105 -73z m4722 -99 c43 -30 58 -67
58 -142 0 -57 -4 -78 -23 -105 -47 -70 -114 -98 -253 -106 -131 -7 -188 11
-264 85 -50 48 -82 104 -69 116 2 2 38 -2 79 -9 107 -20 234 -19 276 1 38 18
78 78 89 134 14 73 12 71 51 55 19 -8 44 -21 56 -29z m-6097 -575 c16 -62 41
-106 103 -182 46 -56 48 -57 121 -69 41 -7 81 -14 88 -17 20 -8 16 -33 -9 -55
-19 -17 -33 -19 -77 -15 -32 4 -66 14 -82 26 -26 19 -29 20 -74 4 -56 -19
-109 -12 -141 18 -34 32 -58 101 -52 152 7 57 57 169 74 163 6 -2 15 5 18 17
7 29 15 19 31 -42z m773 18 c114 -20 162 -74 162 -185 0 -49 -5 -69 -26 -100
-15 -21 -27 -40 -28 -40 0 -1 -16 -5 -33 -9 l-33 -7 0 62 c0 107 -47 169 -205
270 l-50 32 75 -6 c41 -4 103 -12 138 -17z m448 -109 c41 -23 58 -41 78 -82
14 -28 26 -64 26 -79 0 -35 -34 -142 -63 -197 -26 -49 -35 -45 -57 23 -7 22
-21 56 -31 76 -19 38 -94 109 -114 109 -26 0 -33 124 -9 158 24 34 103 31 170
-8z m1824 -4 c0 -3 -4 -8 -10 -11 -5 -3 -10 -1 -10 4 0 6 5 11 10 11 6 0 10
-2 10 -4z m340 -36 c0 -5 -12 -10 -27 -9 -25 0 -26 1 -8 9 27 12 35 12 35 0z
m-176 -35 c-6 -16 -34 -21 -34 -7 0 13 11 22 26 22 8 0 11 -6 8 -15z m-1843
-431 c43 -22 59 -52 58 -109 -1 -76 -19 -120 -63 -154 -52 -41 -99 -42 -146
-2 l-35 28 47 46 c48 46 62 76 56 118 -2 20 -10 24 -45 27 -38 3 -43 6 -43 28
0 14 4 33 10 43 9 17 13 18 71 4 34 -8 75 -21 90 -29z m1377 -13 c20 -10 109
-31 197 -45 183 -31 389 -73 423 -87 25 -10 27 -29 12 -108 -24 -126 -63 -161
-182 -161 -168 0 -368 68 -497 170 -90 71 -103 150 -36 217 18 18 36 33 39 33
4 0 23 -8 44 -19z m-2443 -127 c-9 -38 -31 -100 -50 -139 -61 -128 -211 -282
-296 -305 -104 -28 -228 43 -244 140 -7 43 2 157 14 164 4 3 27 -5 51 -16 65
-31 161 -30 220 0 25 13 90 68 145 122 99 98 167 143 173 115 2 -7 -4 -43 -13
-81z m4487 19 c10 -9 18 -30 18 -47 0 -38 -47 -139 -85 -184 -41 -49 -114 -95
-154 -97 -23 -2 -37 -9 -42 -21 -4 -11 -8 -14 -8 -7 -1 8 -10 7 -31 -4 -45
-22 -115 -20 -148 3 -31 23 -76 107 -94 177 -11 41 -10 52 3 75 15 28 81 58
87 41 2 -6 10 -5 18 2 16 13 71 27 134 35 49 5 161 32 169 39 2 3 29 5 59 5
38 0 61 -5 74 -17z m-4050 -250 c10 -9 18 -30 18 -50 0 -28 -3 -33 -24 -33
-26 0 -36 16 -36 59 0 43 13 51 42 24z m-149 -71 c46 -131 32 -182 -67 -247
-65 -44 -124 -55 -161 -31 -27 18 -69 77 -79 113 -6 19 -2 22 36 28 78 13 121
49 198 163 19 28 37 52 40 52 3 0 17 -35 33 -78z m4367 58 c11 -11 20 -26 20
-34 0 -20 -43 -79 -66 -91 -11 -5 -37 -29 -58 -52 -20 -23 -46 -45 -57 -48
-25 -8 -24 -36 2 -69 20 -25 24 -26 85 -20 62 7 64 6 64 -16 0 -13 7 -24 19
-27 17 -4 16 -7 -9 -35 -25 -27 -37 -31 -103 -38 -41 -4 -79 -10 -86 -14 -20
-13 -12 -36 12 -36 12 0 40 -9 62 -20 38 -19 39 -19 59 -1 12 11 44 21 76 25
34 4 50 3 41 -3 -11 -7 -11 -10 0 -17 36 -23 63 -34 85 -34 20 0 24 5 24 30 0
53 64 93 117 74 18 -7 37 -38 80 -134 47 -104 57 -137 61 -196 9 -144 -52
-288 -171 -401 -97 -92 -150 -121 -260 -144 -75 -15 -116 -17 -222 -12 -105 5
-147 2 -209 -11 -43 -10 -80 -15 -84 -12 -3 4 -9 68 -14 144 -4 75 -15 165
-24 199 -18 71 -16 85 20 108 44 29 61 13 102 -91 43 -113 72 -151 120 -160
28 -5 40 -2 57 15 13 11 38 26 57 32 61 21 81 49 64 93 -3 8 -21 20 -39 26
-30 10 -36 9 -54 -9 -29 -29 -65 -26 -96 7 -37 39 -95 136 -107 179 -6 22 -28
55 -54 80 -24 23 -44 44 -44 47 0 2 -14 27 -31 55 -29 47 -31 53 -18 82 10 26
28 39 96 70 85 40 91 47 74 92 -13 34 -40 41 -84 22 -57 -24 -102 -19 -138 13
-27 24 -30 31 -20 49 11 22 70 35 161 37 21 1 82 24 152 58 102 50 126 67 189
133 79 82 111 93 149 55z m-2295 -87 c-12 -71 -24 -130 -31 -151 -7 -23 -6
-23 39 -17 41 6 49 4 72 -19 14 -14 28 -26 31 -26 3 0 27 21 55 47 42 39 56
46 92 47 36 1 42 4 45 23 5 34 -39 48 -104 33 -77 -19 -88 -13 -92 44 l-3 48
43 -7 c24 -4 61 -15 83 -25 22 -10 73 -20 113 -23 41 -3 81 -12 89 -19 8 -7
42 -12 76 -13 56 0 61 -2 67 -25 4 -14 3 -33 -3 -44 -8 -16 -17 -18 -67 -13
-54 6 -58 5 -62 -16 -8 -48 1 -59 42 -52 28 5 46 2 64 -10 31 -21 33 -36 5
-61 -32 -29 -47 -65 -70 -163 -21 -92 -52 -153 -80 -159 -10 -2 -24 16 -39 50
-14 29 -30 54 -35 55 -6 2 -19 -12 -29 -31 -15 -28 -25 -34 -63 -40 -83 -11
-92 -9 -107 28 -10 23 -22 35 -38 38 -21 3 -23 8 -26 71 -2 49 -7 67 -17 67
-22 0 -44 -28 -55 -73 -16 -63 -18 -67 -36 -74 -30 -11 -55 29 -64 105 -12
116 -30 121 -50 14 -19 -102 -11 -180 24 -225 32 -42 45 -45 71 -17 20 22 73
26 134 10 20 -5 74 -16 120 -25 47 -9 90 -20 97 -26 7 -6 32 -9 56 -8 28 2 52
-3 70 -15 l27 -18 -35 -47 c-33 -47 -42 -71 -26 -71 22 0 75 45 88 75 8 19 18
35 23 35 8 0 79 243 101 347 7 32 22 64 38 81 26 28 29 29 68 17 66 -19 122
-56 138 -89 19 -40 11 -78 -38 -175 -21 -40 -35 -79 -32 -87 4 -9 -1 -13 -15
-11 -32 3 -58 -40 -69 -113 -23 -144 -53 -163 -192 -120 -34 11 -78 20 -95 20
-24 0 -33 5 -33 16 0 15 -12 16 -111 10 -68 -4 -124 -13 -145 -23 -32 -16 -38
-15 -156 16 -210 56 -296 108 -300 184 -5 102 12 189 78 397 40 125 51 149 80
173 19 16 34 37 34 47 0 17 47 41 105 53 48 11 55 8 50 -20z m223 -1153 c17
-7 32 -16 32 -20 0 -4 15 -17 34 -28 20 -12 36 -31 40 -48 4 -16 21 -50 36
-76 16 -26 36 -69 44 -95 22 -69 39 -239 26 -263 -5 -10 -10 -28 -10 -40 0
-28 -52 -80 -80 -80 -11 0 -38 9 -60 20 -22 11 -41 20 -42 20 -2 0 -3 -44 -4
-98 -2 -272 -128 -395 -403 -391 -72 1 -169 14 -137 18 84 10 273 45 279 50 4
5 5 20 1 35 l-6 26 -107 0 c-174 1 -281 30 -513 142 -102 49 -129 67 -139 90
-6 15 -18 28 -25 28 -18 0 -33 -39 -27 -71 2 -13 -2 -32 -10 -43 -12 -17 -15
-14 -30 34 -9 29 -17 63 -17 75 0 61 49 127 109 146 55 17 119 57 138 86 11
16 19 55 23 102 l5 76 58 28 c52 26 70 29 180 33 67 2 144 6 171 9 39 5 62 1
113 -21 50 -21 70 -25 90 -18 15 5 28 14 30 20 5 16 -115 64 -157 63 -26 -1
-232 26 -235 30 -1 1 -2 17 -3 35 -3 47 16 56 98 45 103 -13 130 2 130 72 l0
32 168 -6 c92 -3 182 -11 200 -17z m2392 -221 c0 -6 7 -9 15 -5 21 8 85 -24
85 -42 0 -23 -49 -115 -77 -144 -14 -14 -22 -31 -19 -37 9 -14 68 -14 101 1
14 6 27 9 30 6 10 -10 -6 -35 -30 -46 -16 -8 -26 -23 -31 -47 -3 -20 -5 -38
-2 -40 2 -2 60 10 128 26 69 17 134 31 145 31 11 0 56 14 101 29 93 34 122 35
187 12 37 -13 47 -22 47 -40 0 -26 -19 -38 -77 -48 -63 -10 -60 -21 10 -35 34
-6 89 -21 122 -32 44 -14 64 -17 76 -9 46 28 109 -64 117 -172 4 -50 0 -66
-28 -123 -43 -87 -186 -236 -299 -312 -157 -106 -301 -150 -512 -159 l-137 -6
-11 36 c-30 88 -12 219 33 256 9 8 16 23 16 34 0 11 5 47 12 78 10 47 9 63 -2
83 -25 48 -44 42 -119 -37 -75 -79 -151 -125 -221 -134 -30 -4 -45 -2 -51 8
-13 21 -10 127 6 194 19 81 20 78 -21 72 -34 -6 -36 -4 -55 39 -11 24 -18 48
-15 53 3 5 -1 22 -9 37 -27 51 -19 86 42 184 55 90 71 109 169 200 79 73 91
82 126 90 52 12 148 12 148 -1z"/>
<path d="M5620 8160 c-195 -5 -377 -11 -405 -14 -27 -3 -76 -1 -108 5 -47 10
-70 9 -125 -4 -37 -9 -116 -21 -177 -27 -116 -12 -215 -35 -215 -50 0 -5 19
-15 41 -22 36 -10 48 -9 88 6 53 20 66 22 225 30 65 4 122 8 125 11 9 5 1082
6 1243 1 71 -3 132 -7 137 -10 5 -4 51 -9 103 -12 51 -3 102 -10 113 -15 24
-11 187 -39 226 -39 15 0 44 -10 64 -21 39 -23 39 -34 6 -94 -24 -43 -73 -63
-179 -74 -97 -10 -127 -5 -212 37 -26 13 -61 17 -140 17 -135 0 -175 -18 -281
-125 -178 -181 -245 -434 -192 -727 l16 -93 -28 -30 c-23 -24 -37 -30 -71 -30
-23 0 -108 -9 -189 -20 -81 -11 -181 -20 -221 -20 -72 0 -174 16 -174 27 0 4
17 56 37 117 36 108 37 115 38 261 0 146 -1 152 -33 240 -19 50 -36 101 -39
115 -3 14 -25 51 -49 83 -24 31 -44 60 -44 64 0 16 -91 87 -145 114 -106 51
-257 35 -377 -42 -162 -104 -278 -353 -278 -596 0 -89 21 -235 46 -320 8 -27
-1 -28 -71 -9 -127 33 -224 115 -265 222 -32 84 -46 272 -32 417 11 115 46
245 87 328 23 43 28 47 122 84 148 59 230 97 215 103 -24 8 -205 -19 -292 -45
-106 -30 -166 -63 -244 -132 -58 -51 -104 -121 -105 -159 -1 -9 -5 -44 -10
-77 -13 -83 -13 -422 0 -525 5 -47 12 -125 14 -175 6 -118 21 -224 50 -361 55
-255 114 -340 272 -391 45 -14 80 -29 77 -34 -7 -13 123 -46 206 -53 41 -4
104 -15 139 -26 52 -16 79 -19 143 -14 43 4 81 11 84 16 3 4 12 2 19 -6 12
-11 60 -14 242 -14 125 -1 299 2 386 6 87 4 168 3 180 -1 12 -5 70 -4 131 3
60 6 155 13 210 15 56 2 123 8 150 13 33 7 57 7 72 0 25 -12 214 -1 214 12 0
7 62 17 150 25 171 16 345 41 387 57 30 11 76 41 107 69 30 27 61 49 71 49 20
0 117 80 112 93 -1 4 15 27 36 49 45 47 57 75 57 128 0 24 5 40 14 43 8 3 32
61 54 129 67 208 84 370 79 725 -3 236 -6 262 -25 306 -13 29 -33 54 -51 65
-17 9 -31 21 -31 26 0 15 -70 75 -110 96 -21 11 -59 24 -85 30 -26 6 -68 20
-93 31 -24 11 -61 23 -81 26 -20 3 -40 9 -46 13 -21 15 -186 51 -257 56 -40 2
-122 9 -183 14 -105 9 -299 22 -485 33 -47 3 -245 1 -440 -3z m892 -339 c115
-19 215 -126 263 -281 55 -176 67 -291 40 -393 -8 -32 -15 -72 -15 -90 0 -38
-64 -185 -107 -248 -44 -63 -101 -116 -151 -140 -36 -18 -57 -21 -130 -17 -72
3 -96 9 -141 33 -122 67 -181 196 -212 461 -25 211 23 378 155 546 57 72 105
108 164 124 59 16 64 16 134 5z m-1455 -29 c61 -32 103 -80 151 -174 57 -112
75 -211 70 -384 -2 -74 -8 -138 -14 -145 -6 -8 -14 -38 -17 -68 -9 -74 -84
-224 -139 -278 -83 -81 -257 -109 -363 -59 -88 41 -161 140 -195 265 -21 79
-40 205 -31 210 4 4 11 62 14 131 3 69 13 149 21 179 38 137 127 252 243 315
64 35 72 36 143 33 51 -3 88 -10 117 -25z m1867 -313 c61 -48 72 -128 31 -218
-14 -30 -27 -52 -29 -50 -4 4 -46 260 -46 279 0 16 15 12 44 -11z"/>
<path d="M6500 7419 c0 -99 -1 -101 -31 -131 l-30 -31 -93 7 -93 7 -7 -93 c-9
-134 2 -183 57 -260 92 -129 159 -139 253 -36 21 24 55 68 74 98 l35 54 0 156
c0 140 -2 159 -22 196 -25 46 -76 99 -115 120 l-28 15 0 -102z"/>
<path d="M4974 7463 c16 -55 16 -73 1 -109 -37 -90 -105 -125 -191 -99 -91 27
-86 33 -82 -117 3 -119 5 -137 27 -173 105 -174 184 -194 295 -75 101 109 106
125 109 296 2 134 0 153 -19 189 -21 40 -79 88 -122 100 -20 6 -23 4 -18 -12z"/>
<path d="M6420 5869 c0 -7 17 -43 37 -80 40 -73 46 -73 57 0 9 59 -11 91 -59
91 -19 0 -35 -5 -35 -11z"/>
<path d="M5130 5814 c-58 -49 -75 -107 -41 -138 19 -17 20 -17 43 18 24 37 45
46 54 23 9 -25 132 -107 226 -152 162 -76 227 -90 423 -90 166 1 172 2 252 32
96 37 152 73 213 139 44 48 99 148 88 160 -3 3 -29 -9 -56 -26 -71 -43 -191
-94 -295 -124 -242 -70 -536 -46 -799 66 -48 20 -60 42 -37 65 13 13 5 29 -21
43 -15 8 -25 4 -50 -16z"/>
<path d="M7225 5214 c-8 -20 -48 -133 -88 -251 -57 -169 -70 -217 -61 -231 19
-29 38 -24 69 21 92 130 185 217 295 274 39 20 56 36 61 55 6 22 3 28 -14 34
-12 4 -50 34 -84 67 -56 53 -68 60 -112 65 -50 4 -50 4 -66 -34z"/>
<path d="M3477 4793 c-15 -14 -6 -53 14 -63 44 -24 66 13 29 50 -21 21 -32 24
-43 13z"/>
<path d="M4667 4364 c-35 -19 -47 -50 -47 -118 0 -46 4 -56 34 -85 93 -90 234
-12 206 114 -11 50 -43 81 -95 94 -56 14 -64 14 -98 -5z"/>
<path d="M5698 2339 c-46 -23 -51 -31 -38 -64 8 -22 15 -26 42 -23 27 2 35 9
42 35 6 18 18 34 29 37 10 2 17 11 15 18 -7 20 -49 19 -90 -3z"/>
<path d="M6284 2296 c-4 -15 2 -50 15 -88 29 -85 27 -123 -5 -153 -15 -14 -33
-25 -40 -25 -7 0 -20 25 -29 55 -16 56 -52 94 -75 80 -13 -8 -7 -60 16 -142
12 -42 19 -53 35 -53 12 0 23 8 26 20 3 11 8 20 10 20 16 0 86 -67 97 -94 l13
-31 24 45 c37 70 33 170 -10 277 -18 45 -42 90 -52 99 -17 15 -18 15 -25 -10z"/>
<path d="M6061 1908 c-30 -30 -31 -33 -15 -45 25 -18 47 -16 78 8 31 24 33 44
7 59 -29 15 -34 13 -70 -22z"/>
<path d="M6299 1856 c-15 -33 -5 -63 16 -46 17 14 20 56 5 65 -5 3 -15 -5 -21
-19z"/>
<path d="M5963 1671 c-73 -12 -68 -33 10 -47 30 -5 45 -2 64 12 14 11 26 24
27 29 1 12 -46 15 -101 6z"/>
<path d="M4230 2535 c-6 -7 -13 -20 -14 -27 -1 -7 -10 -28 -20 -46 -18 -35
-18 -73 -1 -79 17 -5 78 122 70 146 -8 25 -18 27 -35 6z"/>
<path d="M4168 2374 c-5 -4 -8 -16 -8 -28 0 -14 3 -17 11 -9 6 6 9 19 7 28 -1
9 -6 13 -10 9z"/>
<path d="M3860 1991 c0 -13 41 -41 60 -41 10 1 6 9 -13 25 -29 26 -47 32 -47
16z"/>
<path d="M3930 1431 c0 -13 50 -51 66 -51 20 0 17 24 -4 43 -20 18 -62 23 -62
8z"/>
<path d="M4007 1366 c-4 -10 1 -20 13 -26 27 -15 32 -13 28 12 -4 27 -33 36
-41 14z"/>
<path d="M3856 1361 c-3 -4 6 -18 19 -31 20 -19 27 -21 40 -10 14 12 14 15 -1
31 -18 20 -49 25 -58 10z"/>
<path d="M3932 1309 c2 -7 10 -15 17 -17 8 -3 12 1 9 9 -2 7 -10 15 -17 17 -8
3 -12 -1 -9 -9z"/>
<path d="M3236 1049 c-51 -40 -36 -47 97 -46 101 2 122 5 122 17 0 11 -14 16
-57 18 -43 2 -58 7 -58 17 0 23 -72 19 -104 -6z"/>
<path d="M3456 991 c-6 -10 39 -32 48 -24 8 9 -14 33 -30 33 -7 0 -15 -4 -18
-9z"/>
<path d="M6260 1244 c-62 -48 -80 -71 -80 -105 0 -51 31 -35 93 47 50 67 62
95 39 93 -4 0 -27 -16 -52 -35z"/>
<path d="M6157 1104 c-4 -4 -7 -14 -7 -23 0 -11 3 -12 11 -4 6 6 10 16 7 23
-2 6 -7 8 -11 4z"/>
<path d="M6086 928 c-16 -23 -22 -98 -8 -98 18 0 84 79 80 96 -5 29 -52 30
-72 2z"/>
<path d="M6983 904 c-17 -9 -39 -24 -49 -35 -17 -19 -14 -19 111 -19 l128 0
-19 21 c-44 49 -112 62 -171 33z"/>
<path d="M7165 806 c-26 -54 -121 -137 -230 -200 -55 -32 -121 -76 -147 -98
-27 -21 -53 -36 -58 -33 -6 4 -23 -1 -38 -11 -30 -20 -112 -21 -142 -2 -39 25
-70 -43 -34 -73 11 -9 39 -13 80 -12 35 1 64 -2 64 -8 0 -16 63 -10 120 12 75
29 83 33 178 82 45 24 82 42 82 39 0 -9 112 91 156 139 8 9 14 24 14 33 0 10
9 29 20 43 20 26 25 59 14 101 -5 16 -14 22 -35 22 -22 0 -31 -7 -44 -34z"/>
</g>
</svg>
